M48
; DRILL file {KiCad 6.0.11+dfsg-1~bpo11+1} date lun. 13 nov. 2023 20:17:38
; FORMAT={-:-/ absolute / metric / decimal}
; #@! TF.CreationDate,2023-11-13T20:17:38+01:00
; #@! TF.GenerationSoftware,Kicad,Pcbnew,6.0.11+dfsg-1~bpo11+1
; #@! TF.FileFunction,Plated,1,2,PTH
FMAT,2
METRIC
; #@! TA.AperFunction,Plated,PTH,ViaDrill
T1C0.400
; #@! TA.AperFunction,Plated,PTH,ComponentDrill
T2C0.750
; #@! TA.AperFunction,Plated,PTH,ComponentDrill
T3C0.762
; #@! TA.AperFunction,Plated,PTH,ComponentDrill
T4C0.800
; #@! TA.AperFunction,Plated,PTH,ComponentDrill
T5C1.000
; #@! TA.AperFunction,Plated,PTH,ComponentDrill
T6C1.020
; #@! TA.AperFunction,Plated,PTH,ComponentDrill
T7C1.100
; #@! TA.AperFunction,Plated,PTH,ComponentDrill
T8C1.400
; #@! TA.AperFunction,Plated,PTH,ComponentDrill
T9C1.500
; #@! TA.AperFunction,Plated,PTH,ComponentDrill
T10C1.800
; #@! TA.AperFunction,Plated,PTH,ComponentDrill
T11C2.900
%
G90
G05
T1
X140.318Y-53.302
X141.069Y-74.492
X142.624Y-73.288
X144.112Y-71.572
X154.251Y-81.254
X168.066Y-100.019
X182.173Y-75.303
T2
X113.87Y-72.685
X113.87Y-80.305
X229.066Y-53.88
X229.066Y-55.88
X229.066Y-57.88
T3
X131.02Y-75.49
X131.02Y-78.03
X131.02Y-80.57
X131.02Y-83.11
X131.02Y-85.65
X131.02Y-88.19
X131.02Y-90.73
X131.02Y-93.27
X131.02Y-95.81
X131.02Y-98.35
X131.02Y-100.89
X131.02Y-103.43
X131.02Y-105.97
X131.02Y-108.51
X204.15Y-88.19
X204.15Y-90.73
X204.15Y-93.27
X204.15Y-95.81
T4
X100.889Y-50.368
X100.889Y-57.988
X100.965Y-60.554
X100.965Y-68.174
X114.554Y-83.312
X114.554Y-90.932
X116.57Y-72.7
X116.57Y-75.24
X116.57Y-77.78
X116.57Y-80.32
X117.69Y-69.0
X119.661Y-86.5
X122.161Y-86.5
X124.19Y-72.7
X124.19Y-75.24
X124.19Y-77.78
X124.19Y-80.32
X125.31Y-69.0
X127.07Y-72.95
X127.07Y-80.45
X140.69Y-94.0
X140.7Y-97.18
X140.7Y-99.72
X140.7Y-102.26
X140.7Y-104.8
X140.75Y-108.0
X145.024Y-81.28
X145.024Y-83.82
X145.024Y-86.36
X145.024Y-88.9
X148.25Y-108.0
X148.31Y-94.0
X148.32Y-97.18
X148.32Y-99.72
X148.32Y-102.26
X148.32Y-104.8
X152.644Y-81.28
X152.644Y-83.82
X152.644Y-86.36
X152.644Y-88.9
X154.295Y-105.5
X156.795Y-105.5
X160.23Y-105.5
X160.5Y-74.0
X160.5Y-81.62
X162.73Y-105.5
X163.5Y-74.0
X163.5Y-81.62
X163.75Y-84.5
X164.0Y-88.0
X164.0Y-91.5
X166.25Y-84.5
X166.5Y-74.0
X166.5Y-81.62
X166.5Y-88.0
X166.5Y-91.5
X166.65Y-107.5
X168.021Y-67.0
X169.88Y-70.5
X169.88Y-73.04
X169.88Y-75.58
X169.88Y-78.12
X169.88Y-80.66
X169.88Y-83.2
X169.88Y-85.74
X170.05Y-89.125
X171.0Y-92.811
X171.0Y-95.311
X174.15Y-107.5
X175.641Y-67.0
X177.0Y-92.795
X177.0Y-95.295
X177.5Y-70.5
X177.5Y-73.04
X177.5Y-75.58
X177.5Y-78.12
X177.5Y-80.66
X177.5Y-83.2
X177.5Y-85.74
X177.55Y-89.125
X179.954Y-64.5
X179.954Y-67.0
X181.0Y-74.0
X181.0Y-81.62
X183.0Y-95.0
X184.0Y-74.0
X184.0Y-81.62
X184.95Y-87.92
X184.95Y-91.5
X185.2Y-84.5
X185.674Y-64.575
X185.674Y-67.075
X187.0Y-74.0
X187.0Y-81.62
X187.45Y-87.92
X187.45Y-91.5
X187.7Y-84.5
X188.0Y-95.0
X189.865Y-67.5
X190.19Y-102.0
X190.19Y-105.5
X190.19Y-108.91
X190.68Y-70.875
X190.68Y-73.415
X190.68Y-75.955
X190.68Y-78.495
X190.68Y-81.035
X190.68Y-83.575
X190.68Y-86.115
X190.85Y-89.5
X193.5Y-92.974
X193.5Y-95.474
X197.485Y-67.5
X197.81Y-102.0
X197.81Y-105.5
X197.81Y-108.91
X198.3Y-70.875
X198.3Y-73.415
X198.3Y-75.955
X198.3Y-78.495
X198.3Y-81.035
X198.3Y-83.575
X198.3Y-86.115
X198.35Y-89.5
X199.43Y-92.924
X199.43Y-95.424
X202.184Y-64.33
X202.184Y-66.83
X207.889Y-64.444
X207.889Y-66.944
X209.618Y-76.81
X209.618Y-84.43
X212.928Y-76.81
X212.928Y-84.43
X215.5Y-97.69
X215.5Y-105.31
X215.5Y-107.69
X215.5Y-115.31
X216.23Y-76.748
X216.23Y-84.368
X216.23Y-86.868
X216.23Y-94.488
T5
X107.95Y-119.38
X108.5Y-99.75
X108.5Y-114.25
X110.45Y-124.38
X111.0Y-114.25
X112.95Y-119.38
X113.5Y-99.75
X113.5Y-114.25
X132.12Y-133.0
X134.62Y-133.0
X137.12Y-133.0
X160.568Y-66.696
X163.068Y-71.696
X164.74Y-132.975
X165.568Y-66.696
X167.24Y-132.975
X169.74Y-132.975
X181.071Y-106.5
X184.871Y-106.5
X197.235Y-132.975
X199.735Y-132.975
X202.235Y-132.975
X206.375Y-101.767
X206.375Y-104.267
X209.681Y-61.189
X211.647Y-68.829
X211.681Y-61.189
X213.681Y-61.189
X214.147Y-73.829
X215.681Y-61.189
X216.647Y-68.829
X217.681Y-61.189
X219.681Y-61.189
X225.044Y-127.133
X227.584Y-127.133
X230.124Y-127.133
T6
X108.594Y-45.593
X108.594Y-63.373
X111.134Y-45.593
X111.134Y-63.373
X113.674Y-45.593
X113.674Y-63.373
X116.214Y-45.593
X116.214Y-63.373
X118.754Y-45.593
X118.754Y-63.373
X121.294Y-45.593
X121.294Y-63.373
X123.834Y-45.593
X123.834Y-63.373
X126.374Y-45.593
X126.374Y-63.373
X128.914Y-45.593
X128.914Y-63.373
X131.454Y-45.593
X131.454Y-63.373
X133.994Y-45.593
X133.994Y-63.373
X136.534Y-45.593
X136.534Y-63.373
X139.074Y-45.593
X139.074Y-63.373
X141.614Y-45.593
X141.614Y-63.373
X144.154Y-45.593
X144.154Y-63.373
X146.694Y-45.593
X146.694Y-63.373
X149.234Y-45.593
X149.234Y-63.373
X151.774Y-45.593
X151.774Y-63.373
X154.314Y-45.593
X154.314Y-63.373
X156.624Y-51.943
X156.624Y-54.483
X156.624Y-57.023
X156.854Y-45.593
X156.854Y-63.373
T7
X98.285Y-76.46
X98.285Y-81.54
X108.445Y-71.38
X108.445Y-79.0
X108.445Y-86.62
X110.985Y-73.92
X110.985Y-84.08
X219.515Y-76.42
X219.515Y-86.58
X219.515Y-98.42
X219.515Y-108.58
X222.055Y-73.88
X222.055Y-81.5
X222.055Y-89.12
X222.055Y-95.88
X222.055Y-103.5
X222.055Y-111.12
X232.215Y-78.96
X232.215Y-84.04
X232.215Y-100.96
X232.215Y-106.04
T8
X126.62Y-122.5
X126.62Y-128.85
X126.62Y-135.2
X142.85Y-122.5
X142.85Y-128.85
X142.85Y-135.2
X159.12Y-122.5
X159.12Y-128.85
X159.12Y-135.2
X164.385Y-44.775
X164.385Y-51.125
X164.385Y-57.475
X175.35Y-122.5
X175.35Y-128.85
X175.35Y-135.2
X180.615Y-44.775
X180.615Y-51.125
X180.615Y-57.475
X185.385Y-44.775
X185.385Y-51.125
X185.385Y-57.475
X191.62Y-122.5
X191.62Y-128.85
X191.62Y-135.2
X201.615Y-44.775
X201.615Y-51.125
X201.615Y-57.475
X207.85Y-122.5
X207.85Y-128.85
X207.85Y-135.2
T11
X209.181Y-50.189
X220.181Y-50.189
T5
X100.232Y-90.425G85X100.232Y-90.626
G05
X102.232Y-94.425G85X102.232Y-94.626
G05
X107.232Y-90.425G85X107.232Y-90.626
G05
X222.968Y-70.102G85X222.968Y-69.903
G05
X222.968Y-119.378G85X222.968Y-119.178
G05
X227.968Y-66.102G85X227.968Y-65.903
G05
X227.968Y-115.378G85X227.968Y-115.178
G05
X229.968Y-70.102G85X229.968Y-69.903
G05
X229.968Y-119.378G85X229.968Y-119.178
G05
T9
X105.4Y-107.4G85X105.4Y-106.1
G05
X116.6Y-107.4G85X116.6Y-106.1
G05
T10
X130.22Y-126.15G85X130.22Y-125.85
G05
X139.02Y-126.15G85X139.02Y-125.85
G05
X162.84Y-126.125G85X162.84Y-125.825
G05
X171.64Y-126.125G85X171.64Y-125.825
G05
X195.335Y-126.125G85X195.335Y-125.825
G05
X204.135Y-126.125G85X204.135Y-125.825
G05
T0
M30
