G04 #@! TF.GenerationSoftware,KiCad,Pcbnew,6.0.11+dfsg-1~bpo11+1*
G04 #@! TF.CreationDate,2023-11-13T20:16:46+01:00*
G04 #@! TF.ProjectId,v1_1,76315f31-2e6b-4696-9361-645f70636258,rev?*
G04 #@! TF.SameCoordinates,Original*
G04 #@! TF.FileFunction,Soldermask,Bot*
G04 #@! TF.FilePolarity,Negative*
%FSLAX46Y46*%
G04 Gerber Fmt 4.6, Leading zero omitted, Abs format (unit mm)*
G04 Created by KiCad (PCBNEW 6.0.11+dfsg-1~bpo11+1) date 2023-11-13 20:16:46*
%MOMM*%
%LPD*%
G01*
G04 APERTURE LIST*
G04 Aperture macros list*
%AMRoundRect*
0 Rectangle with rounded corners*
0 $1 Rounding radius*
0 $2 $3 $4 $5 $6 $7 $8 $9 X,Y pos of 4 corners*
0 Add a 4 corners polygon primitive as box body*
4,1,4,$2,$3,$4,$5,$6,$7,$8,$9,$2,$3,0*
0 Add four circle primitives for the rounded corners*
1,1,$1+$1,$2,$3*
1,1,$1+$1,$4,$5*
1,1,$1+$1,$6,$7*
1,1,$1+$1,$8,$9*
0 Add four rect primitives between the rounded corners*
20,1,$1+$1,$2,$3,$4,$5,0*
20,1,$1+$1,$4,$5,$6,$7,0*
20,1,$1+$1,$6,$7,$8,$9,0*
20,1,$1+$1,$8,$9,$2,$3,0*%
G04 Aperture macros list end*
%ADD10R,1.800000X1.800000*%
%ADD11C,1.800000*%
%ADD12RoundRect,0.750000X0.750000X-1.250000X0.750000X1.250000X-0.750000X1.250000X-0.750000X-1.250000X0*%
%ADD13C,1.600000*%
%ADD14O,1.600000X1.600000*%
%ADD15C,3.200000*%
%ADD16RoundRect,0.250000X0.625000X-0.350000X0.625000X0.350000X-0.625000X0.350000X-0.625000X-0.350000X0*%
%ADD17O,1.750000X1.200000*%
%ADD18R,1.560000X1.560000*%
%ADD19C,1.560000*%
%ADD20R,1.500000X1.500000*%
%ADD21O,1.500000X1.500000*%
%ADD22O,1.800000X1.800000*%
%ADD23O,1.700000X1.700000*%
%ADD24R,1.700000X1.700000*%
%ADD25C,1.524000*%
%ADD26C,5.000000*%
%ADD27R,1.600000X1.600000*%
%ADD28C,3.400000*%
%ADD29R,2.000000X2.000000*%
%ADD30C,2.000000*%
%ADD31R,2.000000X3.200000*%
%ADD32O,1.500000X2.000000*%
%ADD33C,3.000000*%
%ADD34RoundRect,0.150000X0.675000X0.150000X-0.675000X0.150000X-0.675000X-0.150000X0.675000X-0.150000X0*%
%ADD35RoundRect,0.250000X0.750000X-0.600000X0.750000X0.600000X-0.750000X0.600000X-0.750000X-0.600000X0*%
%ADD36O,2.000000X1.700000*%
G04 APERTURE END LIST*
D10*
X164740000Y-132975000D03*
D11*
X167240000Y-132975000D03*
X169740000Y-132975000D03*
D12*
X171640000Y-125975000D03*
X162840000Y-125975000D03*
D13*
X127070000Y-80450000D03*
D14*
X127070000Y-72950000D03*
D15*
X228600000Y-45620000D03*
X101600000Y-134620000D03*
D16*
X229066000Y-57880000D03*
D17*
X229066000Y-55880000D03*
X229066000Y-53880000D03*
D13*
X100965000Y-60553600D03*
D14*
X100965000Y-68173600D03*
D18*
X160568000Y-66695600D03*
D19*
X163068000Y-71695600D03*
X165568000Y-66695600D03*
D18*
X107950000Y-119380000D03*
D19*
X110450000Y-124380000D03*
X112950000Y-119380000D03*
D18*
X211647400Y-68829200D03*
D19*
X214147400Y-73829200D03*
X216647400Y-68829200D03*
D20*
X113870000Y-72685000D03*
D21*
X113870000Y-80305000D03*
D22*
X225044000Y-127133000D03*
X227584000Y-127133000D03*
D10*
X230124000Y-127133000D03*
D15*
X228600000Y-134620000D03*
D13*
X114554000Y-83312000D03*
D14*
X114554000Y-90932000D03*
D15*
X101600000Y-45620000D03*
D10*
X197235000Y-132975000D03*
D11*
X199735000Y-132975000D03*
X202235000Y-132975000D03*
D12*
X204135000Y-125975000D03*
X195335000Y-125975000D03*
D22*
X108724000Y-57208000D03*
D21*
X111754000Y-56908000D03*
X111754000Y-52058000D03*
D22*
X108724000Y-51758000D03*
D23*
X108594000Y-63373000D03*
X111134000Y-63373000D03*
D24*
X113674000Y-63373000D03*
D23*
X116214000Y-63373000D03*
X118754000Y-63373000D03*
X121294000Y-63373000D03*
X123834000Y-63373000D03*
D24*
X126374000Y-63373000D03*
D23*
X128914000Y-63373000D03*
X131454000Y-63373000D03*
X133994000Y-63373000D03*
X136534000Y-63373000D03*
D24*
X139074000Y-63373000D03*
D23*
X141614000Y-63373000D03*
X144154000Y-63373000D03*
X146694000Y-63373000D03*
X149234000Y-63373000D03*
D24*
X151774000Y-63373000D03*
D23*
X154314000Y-63373000D03*
X156854000Y-63373000D03*
X156854000Y-45593000D03*
X154314000Y-45593000D03*
D24*
X151774000Y-45593000D03*
D23*
X149234000Y-45593000D03*
X146694000Y-45593000D03*
X144154000Y-45593000D03*
X141614000Y-45593000D03*
D24*
X139074000Y-45593000D03*
D23*
X136534000Y-45593000D03*
X133994000Y-45593000D03*
X131454000Y-45593000D03*
X128914000Y-45593000D03*
D24*
X126374000Y-45593000D03*
D23*
X123834000Y-45593000D03*
X121294000Y-45593000D03*
X118754000Y-45593000D03*
X116214000Y-45593000D03*
D24*
X113674000Y-45593000D03*
D23*
X111134000Y-45593000D03*
X108594000Y-45593000D03*
X156624000Y-57023000D03*
D24*
X156624000Y-54483000D03*
D23*
X156624000Y-51943000D03*
D25*
X211680800Y-61188600D03*
X209680800Y-61188600D03*
X219680800Y-61188600D03*
X213680800Y-61188600D03*
X215680800Y-61188600D03*
X217680800Y-61188600D03*
D26*
X220180800Y-50188600D03*
X209180800Y-50188600D03*
D13*
X100888800Y-50368200D03*
D14*
X100888800Y-57988200D03*
D27*
X116570000Y-72700000D03*
D14*
X116570000Y-75240000D03*
X116570000Y-77780000D03*
X116570000Y-80320000D03*
X124190000Y-80320000D03*
X124190000Y-77780000D03*
X124190000Y-75240000D03*
X124190000Y-72700000D03*
D28*
X202650000Y-110410000D03*
X135430000Y-73510000D03*
X202650000Y-73610000D03*
X135430000Y-110310000D03*
D25*
X131020000Y-75490000D03*
X131020000Y-78030000D03*
X131020000Y-80570000D03*
X131020000Y-83110000D03*
X131020000Y-85650000D03*
X131020000Y-88190000D03*
X131020000Y-90730000D03*
X131020000Y-93270000D03*
X131020000Y-95810000D03*
X131020000Y-98350000D03*
X131020000Y-100890000D03*
X131020000Y-103430000D03*
X131020000Y-105970000D03*
X131020000Y-108510000D03*
X204150000Y-88190000D03*
X204150000Y-90730000D03*
X204150000Y-93270000D03*
X204150000Y-95810000D03*
D10*
X132120000Y-133000000D03*
D11*
X134620000Y-133000000D03*
X137120000Y-133000000D03*
D12*
X139020000Y-126000000D03*
X130220000Y-126000000D03*
D29*
X108500000Y-114250000D03*
D30*
X113500000Y-114250000D03*
X111000000Y-114250000D03*
D31*
X116600000Y-106750000D03*
X105400000Y-106750000D03*
D30*
X113500000Y-99750000D03*
X108500000Y-99750000D03*
D27*
X152644000Y-81280000D03*
D14*
X152644000Y-83820000D03*
X152644000Y-86360000D03*
X152644000Y-88900000D03*
X145024000Y-88900000D03*
X145024000Y-86360000D03*
X145024000Y-83820000D03*
X145024000Y-81280000D03*
D13*
X177550000Y-89125000D03*
D14*
X170050000Y-89125000D03*
D27*
X177500000Y-70500000D03*
D14*
X177500000Y-73040000D03*
X177500000Y-75580000D03*
X177500000Y-78120000D03*
X177500000Y-80660000D03*
X177500000Y-83200000D03*
X177500000Y-85740000D03*
X169880000Y-85740000D03*
X169880000Y-83200000D03*
X169880000Y-80660000D03*
X169880000Y-78120000D03*
X169880000Y-75580000D03*
X169880000Y-73040000D03*
X169880000Y-70500000D03*
D25*
X230168000Y-68002500D03*
X224168000Y-68002500D03*
D32*
X227968000Y-66002500D03*
X229968000Y-70002500D03*
X222968000Y-70002500D03*
D14*
X174149800Y-107500000D03*
D13*
X166649800Y-107500000D03*
D27*
X162730400Y-105500000D03*
D13*
X160230400Y-105500000D03*
D27*
X179954000Y-64500000D03*
D13*
X179954000Y-67000000D03*
X164000000Y-88000000D03*
X166500000Y-88000000D03*
X166250000Y-84500000D03*
X163750000Y-84500000D03*
D27*
X199430000Y-92923800D03*
D13*
X199430000Y-95423800D03*
D33*
X180615000Y-51125000D03*
X164385000Y-51125000D03*
X180615000Y-44775000D03*
X164385000Y-44775000D03*
X180615000Y-57475000D03*
X164385000Y-57475000D03*
D34*
X173125000Y-101095000D03*
X173125000Y-102365000D03*
X173125000Y-103635000D03*
X173125000Y-104905000D03*
X167875000Y-104905000D03*
X167875000Y-103635000D03*
X167875000Y-102365000D03*
X167875000Y-101095000D03*
D25*
X224168000Y-117278500D03*
X230168000Y-117278500D03*
D32*
X227968000Y-115278500D03*
X229968000Y-119278500D03*
X222968000Y-119278500D03*
D13*
X166500000Y-91500000D03*
X164000000Y-91500000D03*
D33*
X126620000Y-128850000D03*
X142850000Y-128850000D03*
X126620000Y-135200000D03*
X142850000Y-135200000D03*
X126620000Y-122500000D03*
X142850000Y-122500000D03*
D13*
X190190000Y-105500000D03*
D14*
X197810000Y-105500000D03*
D35*
X206375000Y-104267000D03*
D36*
X206375000Y-101767000D03*
D13*
X184000000Y-74000000D03*
D14*
X184000000Y-81620000D03*
D13*
X125310000Y-69000000D03*
D14*
X117690000Y-69000000D03*
D13*
X216230200Y-84368000D03*
D14*
X216230200Y-76748000D03*
D27*
X202184000Y-64329700D03*
D13*
X202184000Y-66829700D03*
X215500000Y-107690000D03*
D14*
X215500000Y-115310000D03*
D13*
X160500000Y-81620000D03*
D14*
X160500000Y-74000000D03*
D33*
X201615000Y-51125000D03*
X185385000Y-51125000D03*
X201615000Y-44775000D03*
X185385000Y-44775000D03*
X201615000Y-57475000D03*
X185385000Y-57475000D03*
D27*
X140700000Y-104800000D03*
D14*
X140700000Y-102260000D03*
X140700000Y-99720000D03*
X140700000Y-97180000D03*
X148320000Y-97180000D03*
X148320000Y-99720000D03*
X148320000Y-102260000D03*
X148320000Y-104800000D03*
D13*
X197810000Y-108910000D03*
D14*
X190190000Y-108910000D03*
D13*
X163500000Y-74000000D03*
D14*
X163500000Y-81620000D03*
D13*
X187450000Y-91500000D03*
X184950000Y-91500000D03*
D29*
X184870700Y-106500000D03*
D30*
X181070700Y-106500000D03*
D13*
X148250000Y-108000000D03*
D14*
X140750000Y-108000000D03*
D27*
X122161400Y-86500000D03*
D13*
X119661400Y-86500000D03*
D27*
X177000000Y-92794900D03*
D13*
X177000000Y-95294900D03*
D27*
X198300000Y-70875000D03*
D14*
X198300000Y-73415000D03*
X198300000Y-75955000D03*
X198300000Y-78495000D03*
X198300000Y-81035000D03*
X198300000Y-83575000D03*
X198300000Y-86115000D03*
X190680000Y-86115000D03*
X190680000Y-83575000D03*
X190680000Y-81035000D03*
X190680000Y-78495000D03*
X190680000Y-75955000D03*
X190680000Y-73415000D03*
X190680000Y-70875000D03*
D27*
X207889000Y-64444000D03*
D13*
X207889000Y-66944000D03*
X215500000Y-105310000D03*
D14*
X215500000Y-97690000D03*
D27*
X193500000Y-92974400D03*
D13*
X193500000Y-95474400D03*
X197485000Y-67500000D03*
D14*
X189865000Y-67500000D03*
D13*
X184950000Y-87920000D03*
X187450000Y-87920000D03*
X166500000Y-74000000D03*
D14*
X166500000Y-81620000D03*
D13*
X216230200Y-86868000D03*
D14*
X216230200Y-94488000D03*
D13*
X148310000Y-94000000D03*
D14*
X140690000Y-94000000D03*
D27*
X171000000Y-92810700D03*
D13*
X171000000Y-95310700D03*
X188000000Y-95000000D03*
X183000000Y-95000000D03*
X187000000Y-74000000D03*
D14*
X187000000Y-81620000D03*
D30*
X108445000Y-71380000D03*
X108445000Y-79000000D03*
X108445000Y-86620000D03*
X110985000Y-73920000D03*
X110985000Y-84080000D03*
D33*
X98285000Y-76460000D03*
X98285000Y-81540000D03*
D13*
X212928200Y-84429600D03*
D14*
X212928200Y-76809600D03*
D13*
X209618200Y-84429600D03*
D14*
X209618200Y-76809600D03*
D27*
X154294900Y-105500000D03*
D13*
X156794900Y-105500000D03*
D27*
X185674000Y-64575300D03*
D13*
X185674000Y-67075300D03*
D25*
X106032000Y-92525500D03*
X100032000Y-92525500D03*
D32*
X102232000Y-94525500D03*
X100232000Y-90525500D03*
X107232000Y-90525500D03*
D13*
X187700000Y-84500000D03*
X185200000Y-84500000D03*
D30*
X222055000Y-89120000D03*
X222055000Y-81500000D03*
X222055000Y-73880000D03*
X219515000Y-86580000D03*
X219515000Y-76420000D03*
D33*
X232215000Y-78960000D03*
X232215000Y-84040000D03*
X191620000Y-128850000D03*
X207850000Y-128850000D03*
X191620000Y-135200000D03*
X207850000Y-135200000D03*
X191620000Y-122500000D03*
X207850000Y-122500000D03*
D13*
X190190000Y-102000000D03*
D14*
X197810000Y-102000000D03*
D33*
X159120000Y-128850000D03*
X175350000Y-128850000D03*
X159120000Y-135200000D03*
X175350000Y-135200000D03*
X159120000Y-122500000D03*
X175350000Y-122500000D03*
D13*
X181000000Y-74000000D03*
D14*
X181000000Y-81620000D03*
D30*
X222055000Y-111120000D03*
X222055000Y-103500000D03*
X222055000Y-95880000D03*
X219515000Y-108580000D03*
X219515000Y-98420000D03*
D33*
X232215000Y-106040000D03*
X232215000Y-100960000D03*
D13*
X198350000Y-89500000D03*
D14*
X190850000Y-89500000D03*
D13*
X175641000Y-67000000D03*
D14*
X168021000Y-67000000D03*
M02*
