%TF.GenerationSoftware,KiCad,Pcbnew,6.0.11+dfsg-1~bpo11+1*%
%TF.CreationDate,2023-11-13T20:18:02+01:00*%
%TF.ProjectId,v1_1,76315f31-2e6b-4696-9361-645f70636258,rev?*%
%TF.SameCoordinates,Original*%
%TF.FileFunction,Drillmap*%
%TF.FilePolarity,Positive*%
%FSLAX45Y45*%
G04 Gerber Fmt 4.5, Leading zero omitted, Abs format (unit mm)*
G04 Created by KiCad (PCBNEW 6.0.11+dfsg-1~bpo11+1) date 2023-11-13 20:18:02*
%MOMM*%
%LPD*%
G01*
G04 APERTURE LIST*
%ADD10C,0.100000*%
%ADD11C,0.200000*%
%ADD12C,0.040000*%
%ADD13C,0.075000*%
%ADD14C,0.076200*%
%ADD15C,0.080000*%
%ADD16C,0.102000*%
%ADD17C,0.110000*%
%ADD18C,0.140000*%
%ADD19C,0.150000*%
%ADD20C,0.180000*%
%ADD21C,0.290000*%
G04 APERTURE END LIST*
D10*
X23450000Y-13950000D02*
X9550000Y-13950000D01*
X9550000Y-13950000D02*
X9550000Y-4050000D01*
X9550000Y-4050000D02*
X23450000Y-4050000D01*
X23450000Y-4050000D02*
X23450000Y-13950000D01*
D11*
D12*
X14011800Y-5310210D02*
X14051800Y-5350210D01*
X14051800Y-5310210D02*
X14011800Y-5350210D01*
X14086880Y-7429240D02*
X14126880Y-7469240D01*
X14126880Y-7429240D02*
X14086880Y-7469240D01*
X14242440Y-7308850D02*
X14282440Y-7348850D01*
X14282440Y-7308850D02*
X14242440Y-7348850D01*
X14391170Y-7137240D02*
X14431170Y-7177240D01*
X14431170Y-7137240D02*
X14391170Y-7177240D01*
X15405100Y-8105400D02*
X15445100Y-8145400D01*
X15445100Y-8105400D02*
X15405100Y-8145400D01*
X16786620Y-9981870D02*
X16826620Y-10021870D01*
X16826620Y-9981870D02*
X16786620Y-10021870D01*
X18197350Y-7510270D02*
X18237350Y-7550270D01*
X18237350Y-7510270D02*
X18197350Y-7550270D01*
D13*
X11424500Y-7268500D02*
G75*
G03*
X11424500Y-7268500I-37500J0D01*
G01*
X11424500Y-8030500D02*
G75*
G03*
X11424500Y-8030500I-37500J0D01*
G01*
X22944100Y-5388000D02*
G75*
G03*
X22944100Y-5388000I-37500J0D01*
G01*
X22944100Y-5588000D02*
G75*
G03*
X22944100Y-5588000I-37500J0D01*
G01*
X22944100Y-5788000D02*
G75*
G03*
X22944100Y-5788000I-37500J0D01*
G01*
D14*
X13102000Y-7510900D02*
X13102000Y-7587100D01*
X13063900Y-7549000D02*
X13140100Y-7549000D01*
X13102000Y-7764900D02*
X13102000Y-7841100D01*
X13063900Y-7803000D02*
X13140100Y-7803000D01*
X13102000Y-8018900D02*
X13102000Y-8095100D01*
X13063900Y-8057000D02*
X13140100Y-8057000D01*
X13102000Y-8272900D02*
X13102000Y-8349100D01*
X13063900Y-8311000D02*
X13140100Y-8311000D01*
X13102000Y-8526900D02*
X13102000Y-8603100D01*
X13063900Y-8565000D02*
X13140100Y-8565000D01*
X13102000Y-8780900D02*
X13102000Y-8857100D01*
X13063900Y-8819000D02*
X13140100Y-8819000D01*
X13102000Y-9034900D02*
X13102000Y-9111100D01*
X13063900Y-9073000D02*
X13140100Y-9073000D01*
X13102000Y-9288900D02*
X13102000Y-9365100D01*
X13063900Y-9327000D02*
X13140100Y-9327000D01*
X13102000Y-9542900D02*
X13102000Y-9619100D01*
X13063900Y-9581000D02*
X13140100Y-9581000D01*
X13102000Y-9796900D02*
X13102000Y-9873100D01*
X13063900Y-9835000D02*
X13140100Y-9835000D01*
X13102000Y-10050900D02*
X13102000Y-10127100D01*
X13063900Y-10089000D02*
X13140100Y-10089000D01*
X13102000Y-10304900D02*
X13102000Y-10381100D01*
X13063900Y-10343000D02*
X13140100Y-10343000D01*
X13102000Y-10558900D02*
X13102000Y-10635100D01*
X13063900Y-10597000D02*
X13140100Y-10597000D01*
X13102000Y-10812900D02*
X13102000Y-10889100D01*
X13063900Y-10851000D02*
X13140100Y-10851000D01*
X20415000Y-8780900D02*
X20415000Y-8857100D01*
X20376900Y-8819000D02*
X20453100Y-8819000D01*
X20415000Y-9034900D02*
X20415000Y-9111100D01*
X20376900Y-9073000D02*
X20453100Y-9073000D01*
X20415000Y-9288900D02*
X20415000Y-9365100D01*
X20376900Y-9327000D02*
X20453100Y-9327000D01*
X20415000Y-9542900D02*
X20415000Y-9619100D01*
X20376900Y-9581000D02*
X20453100Y-9581000D01*
D15*
X10117165Y-5065105D02*
X10117165Y-5008536D01*
X10060596Y-5008536D01*
X10060596Y-5065105D01*
X10117165Y-5065105D01*
X10117165Y-5827104D02*
X10117165Y-5770535D01*
X10060596Y-5770535D01*
X10060596Y-5827104D01*
X10117165Y-5827104D01*
X10124785Y-6083644D02*
X10124785Y-6027075D01*
X10068216Y-6027075D01*
X10068216Y-6083644D01*
X10124785Y-6083644D01*
X10124785Y-6845644D02*
X10124785Y-6789075D01*
X10068216Y-6789075D01*
X10068216Y-6845644D01*
X10124785Y-6845644D01*
X11483684Y-8359484D02*
X11483684Y-8302915D01*
X11427115Y-8302915D01*
X11427115Y-8359484D01*
X11483684Y-8359484D01*
X11483684Y-9121485D02*
X11483684Y-9064916D01*
X11427115Y-9064916D01*
X11427115Y-9121485D01*
X11483684Y-9121485D01*
X11685284Y-7298284D02*
X11685284Y-7241715D01*
X11628715Y-7241715D01*
X11628715Y-7298284D01*
X11685284Y-7298284D01*
X11685284Y-7552284D02*
X11685284Y-7495715D01*
X11628715Y-7495715D01*
X11628715Y-7552284D01*
X11685284Y-7552284D01*
X11685284Y-7806284D02*
X11685284Y-7749715D01*
X11628715Y-7749715D01*
X11628715Y-7806284D01*
X11685284Y-7806284D01*
X11685284Y-8060284D02*
X11685284Y-8003715D01*
X11628715Y-8003715D01*
X11628715Y-8060284D01*
X11685284Y-8060284D01*
X11797284Y-6928284D02*
X11797284Y-6871715D01*
X11740715Y-6871715D01*
X11740715Y-6928284D01*
X11797284Y-6928284D01*
X11994424Y-8678285D02*
X11994424Y-8621716D01*
X11937855Y-8621716D01*
X11937855Y-8678285D01*
X11994424Y-8678285D01*
X12244424Y-8678285D02*
X12244424Y-8621716D01*
X12187855Y-8621716D01*
X12187855Y-8678285D01*
X12244424Y-8678285D01*
X12447284Y-7298284D02*
X12447284Y-7241715D01*
X12390715Y-7241715D01*
X12390715Y-7298284D01*
X12447284Y-7298284D01*
X12447284Y-7552284D02*
X12447284Y-7495715D01*
X12390715Y-7495715D01*
X12390715Y-7552284D01*
X12447284Y-7552284D01*
X12447284Y-7806284D02*
X12447284Y-7749715D01*
X12390715Y-7749715D01*
X12390715Y-7806284D01*
X12447284Y-7806284D01*
X12447284Y-8060284D02*
X12447284Y-8003715D01*
X12390715Y-8003715D01*
X12390715Y-8060284D01*
X12447284Y-8060284D01*
X12559284Y-6928284D02*
X12559284Y-6871715D01*
X12502715Y-6871715D01*
X12502715Y-6928284D01*
X12559284Y-6928284D01*
X12735284Y-7323284D02*
X12735284Y-7266715D01*
X12678715Y-7266715D01*
X12678715Y-7323284D01*
X12735284Y-7323284D01*
X12735284Y-8073284D02*
X12735284Y-8016715D01*
X12678715Y-8016715D01*
X12678715Y-8073284D01*
X12735284Y-8073284D01*
X14097284Y-9428285D02*
X14097284Y-9371716D01*
X14040715Y-9371716D01*
X14040715Y-9428285D01*
X14097284Y-9428285D01*
X14098284Y-9746285D02*
X14098284Y-9689716D01*
X14041715Y-9689716D01*
X14041715Y-9746285D01*
X14098284Y-9746285D01*
X14098284Y-10000285D02*
X14098284Y-9943716D01*
X14041715Y-9943716D01*
X14041715Y-10000285D01*
X14098284Y-10000285D01*
X14098284Y-10254285D02*
X14098284Y-10197716D01*
X14041715Y-10197716D01*
X14041715Y-10254285D01*
X14098284Y-10254285D01*
X14098284Y-10508285D02*
X14098284Y-10451716D01*
X14041715Y-10451716D01*
X14041715Y-10508285D01*
X14098284Y-10508285D01*
X14103284Y-10828285D02*
X14103284Y-10771716D01*
X14046715Y-10771716D01*
X14046715Y-10828285D01*
X14103284Y-10828285D01*
X14530684Y-8156284D02*
X14530684Y-8099715D01*
X14474115Y-8099715D01*
X14474115Y-8156284D01*
X14530684Y-8156284D01*
X14530684Y-8410285D02*
X14530684Y-8353715D01*
X14474115Y-8353715D01*
X14474115Y-8410285D01*
X14530684Y-8410285D01*
X14530684Y-8664285D02*
X14530684Y-8607716D01*
X14474115Y-8607716D01*
X14474115Y-8664285D01*
X14530684Y-8664285D01*
X14530684Y-8918285D02*
X14530684Y-8861716D01*
X14474115Y-8861716D01*
X14474115Y-8918285D01*
X14530684Y-8918285D01*
X14853284Y-10828285D02*
X14853284Y-10771716D01*
X14796715Y-10771716D01*
X14796715Y-10828285D01*
X14853284Y-10828285D01*
X14859284Y-9428285D02*
X14859284Y-9371716D01*
X14802715Y-9371716D01*
X14802715Y-9428285D01*
X14859284Y-9428285D01*
X14860284Y-9746285D02*
X14860284Y-9689716D01*
X14803715Y-9689716D01*
X14803715Y-9746285D01*
X14860284Y-9746285D01*
X14860284Y-10000285D02*
X14860284Y-9943716D01*
X14803715Y-9943716D01*
X14803715Y-10000285D01*
X14860284Y-10000285D01*
X14860284Y-10254285D02*
X14860284Y-10197716D01*
X14803715Y-10197716D01*
X14803715Y-10254285D01*
X14860284Y-10254285D01*
X14860284Y-10508285D02*
X14860284Y-10451716D01*
X14803715Y-10451716D01*
X14803715Y-10508285D01*
X14860284Y-10508285D01*
X15292684Y-8156284D02*
X15292684Y-8099715D01*
X15236115Y-8099715D01*
X15236115Y-8156284D01*
X15292684Y-8156284D01*
X15292684Y-8410285D02*
X15292684Y-8353715D01*
X15236115Y-8353715D01*
X15236115Y-8410285D01*
X15292684Y-8410285D01*
X15292684Y-8664285D02*
X15292684Y-8607716D01*
X15236115Y-8607716D01*
X15236115Y-8664285D01*
X15292684Y-8664285D01*
X15292684Y-8918285D02*
X15292684Y-8861716D01*
X15236115Y-8861716D01*
X15236115Y-8918285D01*
X15292684Y-8918285D01*
X15457774Y-10578285D02*
X15457774Y-10521716D01*
X15401205Y-10521716D01*
X15401205Y-10578285D01*
X15457774Y-10578285D01*
X15707774Y-10578285D02*
X15707774Y-10521716D01*
X15651205Y-10521716D01*
X15651205Y-10578285D01*
X15707774Y-10578285D01*
X16051324Y-10578285D02*
X16051324Y-10521716D01*
X15994755Y-10521716D01*
X15994755Y-10578285D01*
X16051324Y-10578285D01*
X16078284Y-7428284D02*
X16078284Y-7371715D01*
X16021715Y-7371715D01*
X16021715Y-7428284D01*
X16078284Y-7428284D01*
X16078284Y-8190284D02*
X16078284Y-8133715D01*
X16021715Y-8133715D01*
X16021715Y-8190284D01*
X16078284Y-8190284D01*
X16301324Y-10578285D02*
X16301324Y-10521716D01*
X16244755Y-10521716D01*
X16244755Y-10578285D01*
X16301324Y-10578285D01*
X16378284Y-7428284D02*
X16378284Y-7371715D01*
X16321715Y-7371715D01*
X16321715Y-7428284D01*
X16378284Y-7428284D01*
X16378284Y-8190284D02*
X16378284Y-8133715D01*
X16321715Y-8133715D01*
X16321715Y-8190284D01*
X16378284Y-8190284D01*
X16403284Y-8478285D02*
X16403284Y-8421716D01*
X16346715Y-8421716D01*
X16346715Y-8478285D01*
X16403284Y-8478285D01*
X16428284Y-8828285D02*
X16428284Y-8771716D01*
X16371715Y-8771716D01*
X16371715Y-8828285D01*
X16428284Y-8828285D01*
X16428284Y-9178285D02*
X16428284Y-9121716D01*
X16371715Y-9121716D01*
X16371715Y-9178285D01*
X16428284Y-9178285D01*
X16653284Y-8478285D02*
X16653284Y-8421716D01*
X16596715Y-8421716D01*
X16596715Y-8478285D01*
X16653284Y-8478285D01*
X16678284Y-7428284D02*
X16678284Y-7371715D01*
X16621715Y-7371715D01*
X16621715Y-7428284D01*
X16678284Y-7428284D01*
X16678284Y-8190284D02*
X16678284Y-8133715D01*
X16621715Y-8133715D01*
X16621715Y-8190284D01*
X16678284Y-8190284D01*
X16678284Y-8828285D02*
X16678284Y-8771716D01*
X16621715Y-8771716D01*
X16621715Y-8828285D01*
X16678284Y-8828285D01*
X16678284Y-9178285D02*
X16678284Y-9121716D01*
X16621715Y-9121716D01*
X16621715Y-9178285D01*
X16678284Y-9178285D01*
X16693264Y-10778285D02*
X16693264Y-10721716D01*
X16636695Y-10721716D01*
X16636695Y-10778285D01*
X16693264Y-10778285D01*
X16830385Y-6728284D02*
X16830385Y-6671715D01*
X16773815Y-6671715D01*
X16773815Y-6728284D01*
X16830385Y-6728284D01*
X17016285Y-7078284D02*
X17016285Y-7021715D01*
X16959716Y-7021715D01*
X16959716Y-7078284D01*
X17016285Y-7078284D01*
X17016285Y-7332284D02*
X17016285Y-7275715D01*
X16959716Y-7275715D01*
X16959716Y-7332284D01*
X17016285Y-7332284D01*
X17016285Y-7586284D02*
X17016285Y-7529715D01*
X16959716Y-7529715D01*
X16959716Y-7586284D01*
X17016285Y-7586284D01*
X17016285Y-7840284D02*
X17016285Y-7783715D01*
X16959716Y-7783715D01*
X16959716Y-7840284D01*
X17016285Y-7840284D01*
X17016285Y-8094284D02*
X17016285Y-8037715D01*
X16959716Y-8037715D01*
X16959716Y-8094284D01*
X17016285Y-8094284D01*
X17016285Y-8348284D02*
X17016285Y-8291715D01*
X16959716Y-8291715D01*
X16959716Y-8348284D01*
X17016285Y-8348284D01*
X17016285Y-8602285D02*
X17016285Y-8545716D01*
X16959716Y-8545716D01*
X16959716Y-8602285D01*
X17016285Y-8602285D01*
X17033285Y-8940785D02*
X17033285Y-8884216D01*
X16976716Y-8884216D01*
X16976716Y-8940785D01*
X17033285Y-8940785D01*
X17128285Y-9309355D02*
X17128285Y-9252786D01*
X17071716Y-9252786D01*
X17071716Y-9309355D01*
X17128285Y-9309355D01*
X17128285Y-9559355D02*
X17128285Y-9502786D01*
X17071716Y-9502786D01*
X17071716Y-9559355D01*
X17128285Y-9559355D01*
X17443265Y-10778285D02*
X17443265Y-10721716D01*
X17386696Y-10721716D01*
X17386696Y-10778285D01*
X17443265Y-10778285D01*
X17592385Y-6728284D02*
X17592385Y-6671715D01*
X17535816Y-6671715D01*
X17535816Y-6728284D01*
X17592385Y-6728284D01*
X17728285Y-9307775D02*
X17728285Y-9251206D01*
X17671716Y-9251206D01*
X17671716Y-9307775D01*
X17728285Y-9307775D01*
X17728285Y-9557775D02*
X17728285Y-9501206D01*
X17671716Y-9501206D01*
X17671716Y-9557775D01*
X17728285Y-9557775D01*
X17778285Y-7078284D02*
X17778285Y-7021715D01*
X17721716Y-7021715D01*
X17721716Y-7078284D01*
X17778285Y-7078284D01*
X17778285Y-7332284D02*
X17778285Y-7275715D01*
X17721716Y-7275715D01*
X17721716Y-7332284D01*
X17778285Y-7332284D01*
X17778285Y-7586284D02*
X17778285Y-7529715D01*
X17721716Y-7529715D01*
X17721716Y-7586284D01*
X17778285Y-7586284D01*
X17778285Y-7840284D02*
X17778285Y-7783715D01*
X17721716Y-7783715D01*
X17721716Y-7840284D01*
X17778285Y-7840284D01*
X17778285Y-8094284D02*
X17778285Y-8037715D01*
X17721716Y-8037715D01*
X17721716Y-8094284D01*
X17778285Y-8094284D01*
X17778285Y-8348284D02*
X17778285Y-8291715D01*
X17721716Y-8291715D01*
X17721716Y-8348284D01*
X17778285Y-8348284D01*
X17778285Y-8602285D02*
X17778285Y-8545716D01*
X17721716Y-8545716D01*
X17721716Y-8602285D01*
X17778285Y-8602285D01*
X17783285Y-8940785D02*
X17783285Y-8884216D01*
X17726716Y-8884216D01*
X17726716Y-8940785D01*
X17783285Y-8940785D01*
X18023685Y-6478284D02*
X18023685Y-6421715D01*
X17967116Y-6421715D01*
X17967116Y-6478284D01*
X18023685Y-6478284D01*
X18023685Y-6728284D02*
X18023685Y-6671715D01*
X17967116Y-6671715D01*
X17967116Y-6728284D01*
X18023685Y-6728284D01*
X18128285Y-7428284D02*
X18128285Y-7371715D01*
X18071716Y-7371715D01*
X18071716Y-7428284D01*
X18128285Y-7428284D01*
X18128285Y-8190284D02*
X18128285Y-8133715D01*
X18071716Y-8133715D01*
X18071716Y-8190284D01*
X18128285Y-8190284D01*
X18328285Y-9528285D02*
X18328285Y-9471716D01*
X18271716Y-9471716D01*
X18271716Y-9528285D01*
X18328285Y-9528285D01*
X18428285Y-7428284D02*
X18428285Y-7371715D01*
X18371716Y-7371715D01*
X18371716Y-7428284D01*
X18428285Y-7428284D01*
X18428285Y-8190284D02*
X18428285Y-8133715D01*
X18371716Y-8133715D01*
X18371716Y-8190284D01*
X18428285Y-8190284D01*
X18523285Y-8820285D02*
X18523285Y-8763716D01*
X18466716Y-8763716D01*
X18466716Y-8820285D01*
X18523285Y-8820285D01*
X18523285Y-9178285D02*
X18523285Y-9121716D01*
X18466716Y-9121716D01*
X18466716Y-9178285D01*
X18523285Y-9178285D01*
X18548285Y-8478285D02*
X18548285Y-8421716D01*
X18491716Y-8421716D01*
X18491716Y-8478285D01*
X18548285Y-8478285D01*
X18595685Y-6485814D02*
X18595685Y-6429245D01*
X18539116Y-6429245D01*
X18539116Y-6485814D01*
X18595685Y-6485814D01*
X18595685Y-6735814D02*
X18595685Y-6679245D01*
X18539116Y-6679245D01*
X18539116Y-6735814D01*
X18595685Y-6735814D01*
X18728285Y-7428284D02*
X18728285Y-7371715D01*
X18671716Y-7371715D01*
X18671716Y-7428284D01*
X18728285Y-7428284D01*
X18728285Y-8190284D02*
X18728285Y-8133715D01*
X18671716Y-8133715D01*
X18671716Y-8190284D01*
X18728285Y-8190284D01*
X18773285Y-8820285D02*
X18773285Y-8763716D01*
X18716716Y-8763716D01*
X18716716Y-8820285D01*
X18773285Y-8820285D01*
X18773285Y-9178285D02*
X18773285Y-9121716D01*
X18716716Y-9121716D01*
X18716716Y-9178285D01*
X18773285Y-9178285D01*
X18798285Y-8478285D02*
X18798285Y-8421716D01*
X18741716Y-8421716D01*
X18741716Y-8478285D01*
X18798285Y-8478285D01*
X18828285Y-9528285D02*
X18828285Y-9471716D01*
X18771716Y-9471716D01*
X18771716Y-9528285D01*
X18828285Y-9528285D01*
X19014785Y-6778284D02*
X19014785Y-6721715D01*
X18958216Y-6721715D01*
X18958216Y-6778284D01*
X19014785Y-6778284D01*
X19047285Y-10228285D02*
X19047285Y-10171716D01*
X18990716Y-10171716D01*
X18990716Y-10228285D01*
X19047285Y-10228285D01*
X19047285Y-10578285D02*
X19047285Y-10521716D01*
X18990716Y-10521716D01*
X18990716Y-10578285D01*
X19047285Y-10578285D01*
X19047285Y-10919285D02*
X19047285Y-10862716D01*
X18990716Y-10862716D01*
X18990716Y-10919285D01*
X19047285Y-10919285D01*
X19096285Y-7115784D02*
X19096285Y-7059215D01*
X19039716Y-7059215D01*
X19039716Y-7115784D01*
X19096285Y-7115784D01*
X19096285Y-7369784D02*
X19096285Y-7313215D01*
X19039716Y-7313215D01*
X19039716Y-7369784D01*
X19096285Y-7369784D01*
X19096285Y-7623784D02*
X19096285Y-7567215D01*
X19039716Y-7567215D01*
X19039716Y-7623784D01*
X19096285Y-7623784D01*
X19096285Y-7877784D02*
X19096285Y-7821215D01*
X19039716Y-7821215D01*
X19039716Y-7877784D01*
X19096285Y-7877784D01*
X19096285Y-8131784D02*
X19096285Y-8075215D01*
X19039716Y-8075215D01*
X19039716Y-8131784D01*
X19096285Y-8131784D01*
X19096285Y-8385784D02*
X19096285Y-8329215D01*
X19039716Y-8329215D01*
X19039716Y-8385784D01*
X19096285Y-8385784D01*
X19096285Y-8639785D02*
X19096285Y-8583216D01*
X19039716Y-8583216D01*
X19039716Y-8639785D01*
X19096285Y-8639785D01*
X19113285Y-8978285D02*
X19113285Y-8921716D01*
X19056716Y-8921716D01*
X19056716Y-8978285D01*
X19113285Y-8978285D01*
X19378285Y-9325725D02*
X19378285Y-9269156D01*
X19321716Y-9269156D01*
X19321716Y-9325725D01*
X19378285Y-9325725D01*
X19378285Y-9575725D02*
X19378285Y-9519156D01*
X19321716Y-9519156D01*
X19321716Y-9575725D01*
X19378285Y-9575725D01*
X19776785Y-6778284D02*
X19776785Y-6721715D01*
X19720216Y-6721715D01*
X19720216Y-6778284D01*
X19776785Y-6778284D01*
X19809285Y-10228285D02*
X19809285Y-10171716D01*
X19752716Y-10171716D01*
X19752716Y-10228285D01*
X19809285Y-10228285D01*
X19809285Y-10578285D02*
X19809285Y-10521716D01*
X19752716Y-10521716D01*
X19752716Y-10578285D01*
X19809285Y-10578285D01*
X19809285Y-10919285D02*
X19809285Y-10862716D01*
X19752716Y-10862716D01*
X19752716Y-10919285D01*
X19809285Y-10919285D01*
X19858285Y-7115784D02*
X19858285Y-7059215D01*
X19801716Y-7059215D01*
X19801716Y-7115784D01*
X19858285Y-7115784D01*
X19858285Y-7369784D02*
X19858285Y-7313215D01*
X19801716Y-7313215D01*
X19801716Y-7369784D01*
X19858285Y-7369784D01*
X19858285Y-7623784D02*
X19858285Y-7567215D01*
X19801716Y-7567215D01*
X19801716Y-7623784D01*
X19858285Y-7623784D01*
X19858285Y-7877784D02*
X19858285Y-7821215D01*
X19801716Y-7821215D01*
X19801716Y-7877784D01*
X19858285Y-7877784D01*
X19858285Y-8131784D02*
X19858285Y-8075215D01*
X19801716Y-8075215D01*
X19801716Y-8131784D01*
X19858285Y-8131784D01*
X19858285Y-8385784D02*
X19858285Y-8329215D01*
X19801716Y-8329215D01*
X19801716Y-8385784D01*
X19858285Y-8385784D01*
X19858285Y-8639785D02*
X19858285Y-8583216D01*
X19801716Y-8583216D01*
X19801716Y-8639785D01*
X19858285Y-8639785D01*
X19863285Y-8978285D02*
X19863285Y-8921716D01*
X19806716Y-8921716D01*
X19806716Y-8978285D01*
X19863285Y-8978285D01*
X19971285Y-9320665D02*
X19971285Y-9264096D01*
X19914716Y-9264096D01*
X19914716Y-9320665D01*
X19971285Y-9320665D01*
X19971285Y-9570665D02*
X19971285Y-9514096D01*
X19914716Y-9514096D01*
X19914716Y-9570665D01*
X19971285Y-9570665D01*
X20246685Y-6461254D02*
X20246685Y-6404685D01*
X20190116Y-6404685D01*
X20190116Y-6461254D01*
X20246685Y-6461254D01*
X20246685Y-6711254D02*
X20246685Y-6654685D01*
X20190116Y-6654685D01*
X20190116Y-6711254D01*
X20246685Y-6711254D01*
X20817185Y-6472684D02*
X20817185Y-6416115D01*
X20760616Y-6416115D01*
X20760616Y-6472684D01*
X20817185Y-6472684D01*
X20817185Y-6722684D02*
X20817185Y-6666115D01*
X20760616Y-6666115D01*
X20760616Y-6722684D01*
X20817185Y-6722684D01*
X20990105Y-7709244D02*
X20990105Y-7652675D01*
X20933536Y-7652675D01*
X20933536Y-7709244D01*
X20990105Y-7709244D01*
X20990105Y-8471245D02*
X20990105Y-8414676D01*
X20933536Y-8414676D01*
X20933536Y-8471245D01*
X20990105Y-8471245D01*
X21321105Y-7709244D02*
X21321105Y-7652675D01*
X21264536Y-7652675D01*
X21264536Y-7709244D01*
X21321105Y-7709244D01*
X21321105Y-8471245D02*
X21321105Y-8414676D01*
X21264536Y-8414676D01*
X21264536Y-8471245D01*
X21321105Y-8471245D01*
X21578285Y-9797285D02*
X21578285Y-9740716D01*
X21521716Y-9740716D01*
X21521716Y-9797285D01*
X21578285Y-9797285D01*
X21578285Y-10559285D02*
X21578285Y-10502716D01*
X21521716Y-10502716D01*
X21521716Y-10559285D01*
X21578285Y-10559285D01*
X21578285Y-10797285D02*
X21578285Y-10740716D01*
X21521716Y-10740716D01*
X21521716Y-10797285D01*
X21578285Y-10797285D01*
X21578285Y-11559284D02*
X21578285Y-11502715D01*
X21521716Y-11502715D01*
X21521716Y-11559284D01*
X21578285Y-11559284D01*
X21651305Y-7703084D02*
X21651305Y-7646515D01*
X21594736Y-7646515D01*
X21594736Y-7703084D01*
X21651305Y-7703084D01*
X21651305Y-8465085D02*
X21651305Y-8408516D01*
X21594736Y-8408516D01*
X21594736Y-8465085D01*
X21651305Y-8465085D01*
X21651305Y-8715085D02*
X21651305Y-8658516D01*
X21594736Y-8658516D01*
X21594736Y-8715085D01*
X21651305Y-8715085D01*
X21651305Y-9477085D02*
X21651305Y-9420516D01*
X21594736Y-9420516D01*
X21594736Y-9477085D01*
X21651305Y-9477085D01*
D10*
X10023200Y-9102550D02*
X10073200Y-9052550D01*
X10023200Y-9002550D01*
X9973200Y-9052550D01*
X10023200Y-9102550D01*
D11*
X9973200Y-9042550D02*
X9973200Y-9062550D01*
X10073200Y-9042550D02*
X10073200Y-9062550D01*
X9973200Y-9062550D02*
G75*
G03*
X10073200Y-9062550I50000J0D01*
G01*
X10073200Y-9042550D02*
G75*
G03*
X9973200Y-9042550I-50000J0D01*
G01*
D10*
X10223200Y-9502550D02*
X10273200Y-9452550D01*
X10223200Y-9402550D01*
X10173200Y-9452550D01*
X10223200Y-9502550D01*
D11*
X10173200Y-9442550D02*
X10173200Y-9462550D01*
X10273200Y-9442550D02*
X10273200Y-9462550D01*
X10173200Y-9462550D02*
G75*
G03*
X10273200Y-9462550I50000J0D01*
G01*
X10273200Y-9442550D02*
G75*
G03*
X10173200Y-9442550I-50000J0D01*
G01*
D10*
X10723200Y-9102550D02*
X10773200Y-9052550D01*
X10723200Y-9002550D01*
X10673200Y-9052550D01*
X10723200Y-9102550D01*
D11*
X10673200Y-9042550D02*
X10673200Y-9062550D01*
X10773200Y-9042550D02*
X10773200Y-9062550D01*
X10673200Y-9062550D02*
G75*
G03*
X10773200Y-9062550I50000J0D01*
G01*
X10773200Y-9042550D02*
G75*
G03*
X10673200Y-9042550I-50000J0D01*
G01*
D10*
X10795000Y-11988000D02*
X10845000Y-11938000D01*
X10795000Y-11888000D01*
X10745000Y-11938000D01*
X10795000Y-11988000D01*
X10850000Y-10025000D02*
X10900000Y-9975000D01*
X10850000Y-9925000D01*
X10800000Y-9975000D01*
X10850000Y-10025000D01*
X10850000Y-11475000D02*
X10900000Y-11425000D01*
X10850000Y-11375000D01*
X10800000Y-11425000D01*
X10850000Y-11475000D01*
X11045000Y-12488000D02*
X11095000Y-12438000D01*
X11045000Y-12388000D01*
X10995000Y-12438000D01*
X11045000Y-12488000D01*
X11100000Y-11475000D02*
X11150000Y-11425000D01*
X11100000Y-11375000D01*
X11050000Y-11425000D01*
X11100000Y-11475000D01*
X11295000Y-11988000D02*
X11345000Y-11938000D01*
X11295000Y-11888000D01*
X11245000Y-11938000D01*
X11295000Y-11988000D01*
X11350000Y-10025000D02*
X11400000Y-9975000D01*
X11350000Y-9925000D01*
X11300000Y-9975000D01*
X11350000Y-10025000D01*
X11350000Y-11475000D02*
X11400000Y-11425000D01*
X11350000Y-11375000D01*
X11300000Y-11425000D01*
X11350000Y-11475000D01*
X13212000Y-13350000D02*
X13262000Y-13300000D01*
X13212000Y-13250000D01*
X13162000Y-13300000D01*
X13212000Y-13350000D01*
X13462000Y-13350000D02*
X13512000Y-13300000D01*
X13462000Y-13250000D01*
X13412000Y-13300000D01*
X13462000Y-13350000D01*
X13712000Y-13350000D02*
X13762000Y-13300000D01*
X13712000Y-13250000D01*
X13662000Y-13300000D01*
X13712000Y-13350000D01*
X16056800Y-6719560D02*
X16106800Y-6669560D01*
X16056800Y-6619560D01*
X16006800Y-6669560D01*
X16056800Y-6719560D01*
X16306800Y-7219560D02*
X16356800Y-7169560D01*
X16306800Y-7119560D01*
X16256800Y-7169560D01*
X16306800Y-7219560D01*
X16474000Y-13347500D02*
X16524000Y-13297500D01*
X16474000Y-13247500D01*
X16424000Y-13297500D01*
X16474000Y-13347500D01*
X16556800Y-6719560D02*
X16606800Y-6669560D01*
X16556800Y-6619560D01*
X16506800Y-6669560D01*
X16556800Y-6719560D01*
X16724000Y-13347500D02*
X16774000Y-13297500D01*
X16724000Y-13247500D01*
X16674000Y-13297500D01*
X16724000Y-13347500D01*
X16974000Y-13347500D02*
X17024000Y-13297500D01*
X16974000Y-13247500D01*
X16924000Y-13297500D01*
X16974000Y-13347500D01*
X18107070Y-10700000D02*
X18157070Y-10650000D01*
X18107070Y-10600000D01*
X18057070Y-10650000D01*
X18107070Y-10700000D01*
X18487070Y-10700000D02*
X18537070Y-10650000D01*
X18487070Y-10600000D01*
X18437070Y-10650000D01*
X18487070Y-10700000D01*
X19723500Y-13347500D02*
X19773500Y-13297500D01*
X19723500Y-13247500D01*
X19673500Y-13297500D01*
X19723500Y-13347500D01*
X19973500Y-13347500D02*
X20023500Y-13297500D01*
X19973500Y-13247500D01*
X19923500Y-13297500D01*
X19973500Y-13347500D01*
X20223500Y-13347500D02*
X20273500Y-13297500D01*
X20223500Y-13247500D01*
X20173500Y-13297500D01*
X20223500Y-13347500D01*
X20637500Y-10226700D02*
X20687500Y-10176700D01*
X20637500Y-10126700D01*
X20587500Y-10176700D01*
X20637500Y-10226700D01*
X20637500Y-10476700D02*
X20687500Y-10426700D01*
X20637500Y-10376700D01*
X20587500Y-10426700D01*
X20637500Y-10476700D01*
X20968080Y-6168860D02*
X21018080Y-6118860D01*
X20968080Y-6068860D01*
X20918080Y-6118860D01*
X20968080Y-6168860D01*
X21164740Y-6932920D02*
X21214740Y-6882920D01*
X21164740Y-6832920D01*
X21114740Y-6882920D01*
X21164740Y-6932920D01*
X21168080Y-6168860D02*
X21218080Y-6118860D01*
X21168080Y-6068860D01*
X21118080Y-6118860D01*
X21168080Y-6168860D01*
X21368080Y-6168860D02*
X21418080Y-6118860D01*
X21368080Y-6068860D01*
X21318080Y-6118860D01*
X21368080Y-6168860D01*
X21414740Y-7432920D02*
X21464740Y-7382920D01*
X21414740Y-7332920D01*
X21364740Y-7382920D01*
X21414740Y-7432920D01*
X21568080Y-6168860D02*
X21618080Y-6118860D01*
X21568080Y-6068860D01*
X21518080Y-6118860D01*
X21568080Y-6168860D01*
X21664740Y-6932920D02*
X21714740Y-6882920D01*
X21664740Y-6832920D01*
X21614740Y-6882920D01*
X21664740Y-6932920D01*
X21768080Y-6168860D02*
X21818080Y-6118860D01*
X21768080Y-6068860D01*
X21718080Y-6118860D01*
X21768080Y-6168860D01*
X21968080Y-6168860D02*
X22018080Y-6118860D01*
X21968080Y-6068860D01*
X21918080Y-6118860D01*
X21968080Y-6168860D01*
X22296800Y-7050250D02*
X22346800Y-7000250D01*
X22296800Y-6950250D01*
X22246800Y-7000250D01*
X22296800Y-7050250D01*
D11*
X22346800Y-7010250D02*
X22346800Y-6990250D01*
X22246800Y-7010250D02*
X22246800Y-6990250D01*
X22346800Y-6990250D02*
G75*
G03*
X22246800Y-6990250I-50000J0D01*
G01*
X22246800Y-7010250D02*
G75*
G03*
X22346800Y-7010250I50000J0D01*
G01*
D10*
X22296800Y-11977850D02*
X22346800Y-11927850D01*
X22296800Y-11877850D01*
X22246800Y-11927850D01*
X22296800Y-11977850D01*
D11*
X22346800Y-11937850D02*
X22346800Y-11917850D01*
X22246800Y-11937850D02*
X22246800Y-11917850D01*
X22346800Y-11917850D02*
G75*
G03*
X22246800Y-11917850I-50000J0D01*
G01*
X22246800Y-11937850D02*
G75*
G03*
X22346800Y-11937850I50000J0D01*
G01*
D10*
X22504400Y-12763300D02*
X22554400Y-12713300D01*
X22504400Y-12663300D01*
X22454400Y-12713300D01*
X22504400Y-12763300D01*
X22758400Y-12763300D02*
X22808400Y-12713300D01*
X22758400Y-12663300D01*
X22708400Y-12713300D01*
X22758400Y-12763300D01*
X22796800Y-6650250D02*
X22846800Y-6600250D01*
X22796800Y-6550250D01*
X22746800Y-6600250D01*
X22796800Y-6650250D01*
D11*
X22846800Y-6610250D02*
X22846800Y-6590250D01*
X22746800Y-6610250D02*
X22746800Y-6590250D01*
X22846800Y-6590250D02*
G75*
G03*
X22746800Y-6590250I-50000J0D01*
G01*
X22746800Y-6610250D02*
G75*
G03*
X22846800Y-6610250I50000J0D01*
G01*
D10*
X22796800Y-11577850D02*
X22846800Y-11527850D01*
X22796800Y-11477850D01*
X22746800Y-11527850D01*
X22796800Y-11577850D01*
D11*
X22846800Y-11537850D02*
X22846800Y-11517850D01*
X22746800Y-11537850D02*
X22746800Y-11517850D01*
X22846800Y-11517850D02*
G75*
G03*
X22746800Y-11517850I-50000J0D01*
G01*
X22746800Y-11537850D02*
G75*
G03*
X22846800Y-11537850I50000J0D01*
G01*
D10*
X22996800Y-7050250D02*
X23046800Y-7000250D01*
X22996800Y-6950250D01*
X22946800Y-7000250D01*
X22996800Y-7050250D01*
D11*
X23046800Y-7010250D02*
X23046800Y-6990250D01*
X22946800Y-7010250D02*
X22946800Y-6990250D01*
X23046800Y-6990250D02*
G75*
G03*
X22946800Y-6990250I-50000J0D01*
G01*
X22946800Y-7010250D02*
G75*
G03*
X23046800Y-7010250I50000J0D01*
G01*
D10*
X22996800Y-11977850D02*
X23046800Y-11927850D01*
X22996800Y-11877850D01*
X22946800Y-11927850D01*
X22996800Y-11977850D01*
D11*
X23046800Y-11937850D02*
X23046800Y-11917850D01*
X22946800Y-11937850D02*
X22946800Y-11917850D01*
X23046800Y-11917850D02*
G75*
G03*
X22946800Y-11917850I-50000J0D01*
G01*
X22946800Y-11937850D02*
G75*
G03*
X23046800Y-11937850I50000J0D01*
G01*
D10*
X23012400Y-12763300D02*
X23062400Y-12713300D01*
X23012400Y-12663300D01*
X22962400Y-12713300D01*
X23012400Y-12763300D01*
D16*
X10808400Y-4508300D02*
X10910400Y-4610300D01*
X10910400Y-4508300D02*
X10808400Y-4610300D01*
X10910400Y-4559300D02*
G75*
G03*
X10910400Y-4559300I-51000J0D01*
G01*
X10808400Y-6286300D02*
X10910400Y-6388300D01*
X10910400Y-6286300D02*
X10808400Y-6388300D01*
X10910400Y-6337300D02*
G75*
G03*
X10910400Y-6337300I-51000J0D01*
G01*
X11062400Y-4508300D02*
X11164400Y-4610300D01*
X11164400Y-4508300D02*
X11062400Y-4610300D01*
X11164400Y-4559300D02*
G75*
G03*
X11164400Y-4559300I-51000J0D01*
G01*
X11062400Y-6286300D02*
X11164400Y-6388300D01*
X11164400Y-6286300D02*
X11062400Y-6388300D01*
X11164400Y-6337300D02*
G75*
G03*
X11164400Y-6337300I-51000J0D01*
G01*
X11316400Y-4508300D02*
X11418400Y-4610300D01*
X11418400Y-4508300D02*
X11316400Y-4610300D01*
X11418400Y-4559300D02*
G75*
G03*
X11418400Y-4559300I-51000J0D01*
G01*
X11316400Y-6286300D02*
X11418400Y-6388300D01*
X11418400Y-6286300D02*
X11316400Y-6388300D01*
X11418400Y-6337300D02*
G75*
G03*
X11418400Y-6337300I-51000J0D01*
G01*
X11570400Y-4508300D02*
X11672400Y-4610300D01*
X11672400Y-4508300D02*
X11570400Y-4610300D01*
X11672400Y-4559300D02*
G75*
G03*
X11672400Y-4559300I-51000J0D01*
G01*
X11570400Y-6286300D02*
X11672400Y-6388300D01*
X11672400Y-6286300D02*
X11570400Y-6388300D01*
X11672400Y-6337300D02*
G75*
G03*
X11672400Y-6337300I-51000J0D01*
G01*
X11824400Y-4508300D02*
X11926400Y-4610300D01*
X11926400Y-4508300D02*
X11824400Y-4610300D01*
X11926400Y-4559300D02*
G75*
G03*
X11926400Y-4559300I-51000J0D01*
G01*
X11824400Y-6286300D02*
X11926400Y-6388300D01*
X11926400Y-6286300D02*
X11824400Y-6388300D01*
X11926400Y-6337300D02*
G75*
G03*
X11926400Y-6337300I-51000J0D01*
G01*
X12078400Y-4508300D02*
X12180400Y-4610300D01*
X12180400Y-4508300D02*
X12078400Y-4610300D01*
X12180400Y-4559300D02*
G75*
G03*
X12180400Y-4559300I-51000J0D01*
G01*
X12078400Y-6286300D02*
X12180400Y-6388300D01*
X12180400Y-6286300D02*
X12078400Y-6388300D01*
X12180400Y-6337300D02*
G75*
G03*
X12180400Y-6337300I-51000J0D01*
G01*
X12332400Y-4508300D02*
X12434400Y-4610300D01*
X12434400Y-4508300D02*
X12332400Y-4610300D01*
X12434400Y-4559300D02*
G75*
G03*
X12434400Y-4559300I-51000J0D01*
G01*
X12332400Y-6286300D02*
X12434400Y-6388300D01*
X12434400Y-6286300D02*
X12332400Y-6388300D01*
X12434400Y-6337300D02*
G75*
G03*
X12434400Y-6337300I-51000J0D01*
G01*
X12586400Y-4508300D02*
X12688400Y-4610300D01*
X12688400Y-4508300D02*
X12586400Y-4610300D01*
X12688400Y-4559300D02*
G75*
G03*
X12688400Y-4559300I-51000J0D01*
G01*
X12586400Y-6286300D02*
X12688400Y-6388300D01*
X12688400Y-6286300D02*
X12586400Y-6388300D01*
X12688400Y-6337300D02*
G75*
G03*
X12688400Y-6337300I-51000J0D01*
G01*
X12840400Y-4508300D02*
X12942400Y-4610300D01*
X12942400Y-4508300D02*
X12840400Y-4610300D01*
X12942400Y-4559300D02*
G75*
G03*
X12942400Y-4559300I-51000J0D01*
G01*
X12840400Y-6286300D02*
X12942400Y-6388300D01*
X12942400Y-6286300D02*
X12840400Y-6388300D01*
X12942400Y-6337300D02*
G75*
G03*
X12942400Y-6337300I-51000J0D01*
G01*
X13094400Y-4508300D02*
X13196400Y-4610300D01*
X13196400Y-4508300D02*
X13094400Y-4610300D01*
X13196400Y-4559300D02*
G75*
G03*
X13196400Y-4559300I-51000J0D01*
G01*
X13094400Y-6286300D02*
X13196400Y-6388300D01*
X13196400Y-6286300D02*
X13094400Y-6388300D01*
X13196400Y-6337300D02*
G75*
G03*
X13196400Y-6337300I-51000J0D01*
G01*
X13348400Y-4508300D02*
X13450400Y-4610300D01*
X13450400Y-4508300D02*
X13348400Y-4610300D01*
X13450400Y-4559300D02*
G75*
G03*
X13450400Y-4559300I-51000J0D01*
G01*
X13348400Y-6286300D02*
X13450400Y-6388300D01*
X13450400Y-6286300D02*
X13348400Y-6388300D01*
X13450400Y-6337300D02*
G75*
G03*
X13450400Y-6337300I-51000J0D01*
G01*
X13602400Y-4508300D02*
X13704400Y-4610300D01*
X13704400Y-4508300D02*
X13602400Y-4610300D01*
X13704400Y-4559300D02*
G75*
G03*
X13704400Y-4559300I-51000J0D01*
G01*
X13602400Y-6286300D02*
X13704400Y-6388300D01*
X13704400Y-6286300D02*
X13602400Y-6388300D01*
X13704400Y-6337300D02*
G75*
G03*
X13704400Y-6337300I-51000J0D01*
G01*
X13856400Y-4508300D02*
X13958400Y-4610300D01*
X13958400Y-4508300D02*
X13856400Y-4610300D01*
X13958400Y-4559300D02*
G75*
G03*
X13958400Y-4559300I-51000J0D01*
G01*
X13856400Y-6286300D02*
X13958400Y-6388300D01*
X13958400Y-6286300D02*
X13856400Y-6388300D01*
X13958400Y-6337300D02*
G75*
G03*
X13958400Y-6337300I-51000J0D01*
G01*
X14110400Y-4508300D02*
X14212400Y-4610300D01*
X14212400Y-4508300D02*
X14110400Y-4610300D01*
X14212400Y-4559300D02*
G75*
G03*
X14212400Y-4559300I-51000J0D01*
G01*
X14110400Y-6286300D02*
X14212400Y-6388300D01*
X14212400Y-6286300D02*
X14110400Y-6388300D01*
X14212400Y-6337300D02*
G75*
G03*
X14212400Y-6337300I-51000J0D01*
G01*
X14364400Y-4508300D02*
X14466400Y-4610300D01*
X14466400Y-4508300D02*
X14364400Y-4610300D01*
X14466400Y-4559300D02*
G75*
G03*
X14466400Y-4559300I-51000J0D01*
G01*
X14364400Y-6286300D02*
X14466400Y-6388300D01*
X14466400Y-6286300D02*
X14364400Y-6388300D01*
X14466400Y-6337300D02*
G75*
G03*
X14466400Y-6337300I-51000J0D01*
G01*
X14618400Y-4508300D02*
X14720400Y-4610300D01*
X14720400Y-4508300D02*
X14618400Y-4610300D01*
X14720400Y-4559300D02*
G75*
G03*
X14720400Y-4559300I-51000J0D01*
G01*
X14618400Y-6286300D02*
X14720400Y-6388300D01*
X14720400Y-6286300D02*
X14618400Y-6388300D01*
X14720400Y-6337300D02*
G75*
G03*
X14720400Y-6337300I-51000J0D01*
G01*
X14872400Y-4508300D02*
X14974400Y-4610300D01*
X14974400Y-4508300D02*
X14872400Y-4610300D01*
X14974400Y-4559300D02*
G75*
G03*
X14974400Y-4559300I-51000J0D01*
G01*
X14872400Y-6286300D02*
X14974400Y-6388300D01*
X14974400Y-6286300D02*
X14872400Y-6388300D01*
X14974400Y-6337300D02*
G75*
G03*
X14974400Y-6337300I-51000J0D01*
G01*
X15126400Y-4508300D02*
X15228400Y-4610300D01*
X15228400Y-4508300D02*
X15126400Y-4610300D01*
X15228400Y-4559300D02*
G75*
G03*
X15228400Y-4559300I-51000J0D01*
G01*
X15126400Y-6286300D02*
X15228400Y-6388300D01*
X15228400Y-6286300D02*
X15126400Y-6388300D01*
X15228400Y-6337300D02*
G75*
G03*
X15228400Y-6337300I-51000J0D01*
G01*
X15380400Y-4508300D02*
X15482400Y-4610300D01*
X15482400Y-4508300D02*
X15380400Y-4610300D01*
X15482400Y-4559300D02*
G75*
G03*
X15482400Y-4559300I-51000J0D01*
G01*
X15380400Y-6286300D02*
X15482400Y-6388300D01*
X15482400Y-6286300D02*
X15380400Y-6388300D01*
X15482400Y-6337300D02*
G75*
G03*
X15482400Y-6337300I-51000J0D01*
G01*
X15611400Y-5143300D02*
X15713400Y-5245300D01*
X15713400Y-5143300D02*
X15611400Y-5245300D01*
X15713400Y-5194300D02*
G75*
G03*
X15713400Y-5194300I-51000J0D01*
G01*
X15611400Y-5397300D02*
X15713400Y-5499300D01*
X15713400Y-5397300D02*
X15611400Y-5499300D01*
X15713400Y-5448300D02*
G75*
G03*
X15713400Y-5448300I-51000J0D01*
G01*
X15611400Y-5651300D02*
X15713400Y-5753300D01*
X15713400Y-5651300D02*
X15611400Y-5753300D01*
X15713400Y-5702300D02*
G75*
G03*
X15713400Y-5702300I-51000J0D01*
G01*
X15634400Y-4508300D02*
X15736400Y-4610300D01*
X15736400Y-4508300D02*
X15634400Y-4610300D01*
X15736400Y-4559300D02*
G75*
G03*
X15736400Y-4559300I-51000J0D01*
G01*
X15634400Y-6286300D02*
X15736400Y-6388300D01*
X15736400Y-6286300D02*
X15634400Y-6388300D01*
X15736400Y-6337300D02*
G75*
G03*
X15736400Y-6337300I-51000J0D01*
G01*
D17*
X9773500Y-7591000D02*
X9883500Y-7701000D01*
X9883500Y-7591000D02*
X9773500Y-7701000D01*
X9828500Y-7591000D02*
X9828500Y-7701000D01*
X9773500Y-7646000D02*
X9883500Y-7646000D01*
X9773500Y-8099000D02*
X9883500Y-8209000D01*
X9883500Y-8099000D02*
X9773500Y-8209000D01*
X9828500Y-8099000D02*
X9828500Y-8209000D01*
X9773500Y-8154000D02*
X9883500Y-8154000D01*
X10789500Y-7083000D02*
X10899500Y-7193000D01*
X10899500Y-7083000D02*
X10789500Y-7193000D01*
X10844500Y-7083000D02*
X10844500Y-7193000D01*
X10789500Y-7138000D02*
X10899500Y-7138000D01*
X10789500Y-7845000D02*
X10899500Y-7955000D01*
X10899500Y-7845000D02*
X10789500Y-7955000D01*
X10844500Y-7845000D02*
X10844500Y-7955000D01*
X10789500Y-7900000D02*
X10899500Y-7900000D01*
X10789500Y-8607000D02*
X10899500Y-8717000D01*
X10899500Y-8607000D02*
X10789500Y-8717000D01*
X10844500Y-8607000D02*
X10844500Y-8717000D01*
X10789500Y-8662000D02*
X10899500Y-8662000D01*
X11043500Y-7337000D02*
X11153500Y-7447000D01*
X11153500Y-7337000D02*
X11043500Y-7447000D01*
X11098500Y-7337000D02*
X11098500Y-7447000D01*
X11043500Y-7392000D02*
X11153500Y-7392000D01*
X11043500Y-8353000D02*
X11153500Y-8463000D01*
X11153500Y-8353000D02*
X11043500Y-8463000D01*
X11098500Y-8353000D02*
X11098500Y-8463000D01*
X11043500Y-8408000D02*
X11153500Y-8408000D01*
X21896500Y-7587000D02*
X22006500Y-7697000D01*
X22006500Y-7587000D02*
X21896500Y-7697000D01*
X21951500Y-7587000D02*
X21951500Y-7697000D01*
X21896500Y-7642000D02*
X22006500Y-7642000D01*
X21896500Y-8603000D02*
X22006500Y-8713000D01*
X22006500Y-8603000D02*
X21896500Y-8713000D01*
X21951500Y-8603000D02*
X21951500Y-8713000D01*
X21896500Y-8658000D02*
X22006500Y-8658000D01*
X21896500Y-9787000D02*
X22006500Y-9897000D01*
X22006500Y-9787000D02*
X21896500Y-9897000D01*
X21951500Y-9787000D02*
X21951500Y-9897000D01*
X21896500Y-9842000D02*
X22006500Y-9842000D01*
X21896500Y-10803000D02*
X22006500Y-10913000D01*
X22006500Y-10803000D02*
X21896500Y-10913000D01*
X21951500Y-10803000D02*
X21951500Y-10913000D01*
X21896500Y-10858000D02*
X22006500Y-10858000D01*
X22150500Y-7333000D02*
X22260500Y-7443000D01*
X22260500Y-7333000D02*
X22150500Y-7443000D01*
X22205500Y-7333000D02*
X22205500Y-7443000D01*
X22150500Y-7388000D02*
X22260500Y-7388000D01*
X22150500Y-8095000D02*
X22260500Y-8205000D01*
X22260500Y-8095000D02*
X22150500Y-8205000D01*
X22205500Y-8095000D02*
X22205500Y-8205000D01*
X22150500Y-8150000D02*
X22260500Y-8150000D01*
X22150500Y-8857000D02*
X22260500Y-8967000D01*
X22260500Y-8857000D02*
X22150500Y-8967000D01*
X22205500Y-8857000D02*
X22205500Y-8967000D01*
X22150500Y-8912000D02*
X22260500Y-8912000D01*
X22150500Y-9533000D02*
X22260500Y-9643000D01*
X22260500Y-9533000D02*
X22150500Y-9643000D01*
X22205500Y-9533000D02*
X22205500Y-9643000D01*
X22150500Y-9588000D02*
X22260500Y-9588000D01*
X22150500Y-10295000D02*
X22260500Y-10405000D01*
X22260500Y-10295000D02*
X22150500Y-10405000D01*
X22205500Y-10295000D02*
X22205500Y-10405000D01*
X22150500Y-10350000D02*
X22260500Y-10350000D01*
X22150500Y-11057000D02*
X22260500Y-11167000D01*
X22260500Y-11057000D02*
X22150500Y-11167000D01*
X22205500Y-11057000D02*
X22205500Y-11167000D01*
X22150500Y-11112000D02*
X22260500Y-11112000D01*
X23166500Y-7841000D02*
X23276500Y-7951000D01*
X23276500Y-7841000D02*
X23166500Y-7951000D01*
X23221500Y-7841000D02*
X23221500Y-7951000D01*
X23166500Y-7896000D02*
X23276500Y-7896000D01*
X23166500Y-8349000D02*
X23276500Y-8459000D01*
X23276500Y-8349000D02*
X23166500Y-8459000D01*
X23221500Y-8349000D02*
X23221500Y-8459000D01*
X23166500Y-8404000D02*
X23276500Y-8404000D01*
X23166500Y-10041000D02*
X23276500Y-10151000D01*
X23276500Y-10041000D02*
X23166500Y-10151000D01*
X23221500Y-10041000D02*
X23221500Y-10151000D01*
X23166500Y-10096000D02*
X23276500Y-10096000D01*
X23166500Y-10549000D02*
X23276500Y-10659000D01*
X23276500Y-10549000D02*
X23166500Y-10659000D01*
X23221500Y-10549000D02*
X23221500Y-10659000D01*
X23166500Y-10604000D02*
X23276500Y-10604000D01*
D18*
X12592000Y-12180000D02*
X12732000Y-12320000D01*
X12732000Y-12180000D02*
X12592000Y-12320000D01*
X12711498Y-12299498D02*
X12711498Y-12200502D01*
X12612502Y-12200502D01*
X12612502Y-12299498D01*
X12711498Y-12299498D01*
X12592000Y-12815000D02*
X12732000Y-12955000D01*
X12732000Y-12815000D02*
X12592000Y-12955000D01*
X12711498Y-12934498D02*
X12711498Y-12835502D01*
X12612502Y-12835502D01*
X12612502Y-12934498D01*
X12711498Y-12934498D01*
X12592000Y-13450000D02*
X12732000Y-13590000D01*
X12732000Y-13450000D02*
X12592000Y-13590000D01*
X12711498Y-13569498D02*
X12711498Y-13470502D01*
X12612502Y-13470502D01*
X12612502Y-13569498D01*
X12711498Y-13569498D01*
X14215000Y-12180000D02*
X14355000Y-12320000D01*
X14355000Y-12180000D02*
X14215000Y-12320000D01*
X14334498Y-12299498D02*
X14334498Y-12200502D01*
X14235502Y-12200502D01*
X14235502Y-12299498D01*
X14334498Y-12299498D01*
X14215000Y-12815000D02*
X14355000Y-12955000D01*
X14355000Y-12815000D02*
X14215000Y-12955000D01*
X14334498Y-12934498D02*
X14334498Y-12835502D01*
X14235502Y-12835502D01*
X14235502Y-12934498D01*
X14334498Y-12934498D01*
X14215000Y-13450000D02*
X14355000Y-13590000D01*
X14355000Y-13450000D02*
X14215000Y-13590000D01*
X14334498Y-13569498D02*
X14334498Y-13470502D01*
X14235502Y-13470502D01*
X14235502Y-13569498D01*
X14334498Y-13569498D01*
X15842000Y-12180000D02*
X15982000Y-12320000D01*
X15982000Y-12180000D02*
X15842000Y-12320000D01*
X15961498Y-12299498D02*
X15961498Y-12200502D01*
X15862502Y-12200502D01*
X15862502Y-12299498D01*
X15961498Y-12299498D01*
X15842000Y-12815000D02*
X15982000Y-12955000D01*
X15982000Y-12815000D02*
X15842000Y-12955000D01*
X15961498Y-12934498D02*
X15961498Y-12835502D01*
X15862502Y-12835502D01*
X15862502Y-12934498D01*
X15961498Y-12934498D01*
X15842000Y-13450000D02*
X15982000Y-13590000D01*
X15982000Y-13450000D02*
X15842000Y-13590000D01*
X15961498Y-13569498D02*
X15961498Y-13470502D01*
X15862502Y-13470502D01*
X15862502Y-13569498D01*
X15961498Y-13569498D01*
X16368500Y-4407500D02*
X16508500Y-4547500D01*
X16508500Y-4407500D02*
X16368500Y-4547500D01*
X16487998Y-4526998D02*
X16487998Y-4428002D01*
X16389002Y-4428002D01*
X16389002Y-4526998D01*
X16487998Y-4526998D01*
X16368500Y-5042500D02*
X16508500Y-5182500D01*
X16508500Y-5042500D02*
X16368500Y-5182500D01*
X16487998Y-5161998D02*
X16487998Y-5063002D01*
X16389002Y-5063002D01*
X16389002Y-5161998D01*
X16487998Y-5161998D01*
X16368500Y-5677500D02*
X16508500Y-5817500D01*
X16508500Y-5677500D02*
X16368500Y-5817500D01*
X16487998Y-5796998D02*
X16487998Y-5698002D01*
X16389002Y-5698002D01*
X16389002Y-5796998D01*
X16487998Y-5796998D01*
X17465000Y-12180000D02*
X17605000Y-12320000D01*
X17605000Y-12180000D02*
X17465000Y-12320000D01*
X17584498Y-12299498D02*
X17584498Y-12200502D01*
X17485502Y-12200502D01*
X17485502Y-12299498D01*
X17584498Y-12299498D01*
X17465000Y-12815000D02*
X17605000Y-12955000D01*
X17605000Y-12815000D02*
X17465000Y-12955000D01*
X17584498Y-12934498D02*
X17584498Y-12835502D01*
X17485502Y-12835502D01*
X17485502Y-12934498D01*
X17584498Y-12934498D01*
X17465000Y-13450000D02*
X17605000Y-13590000D01*
X17605000Y-13450000D02*
X17465000Y-13590000D01*
X17584498Y-13569498D02*
X17584498Y-13470502D01*
X17485502Y-13470502D01*
X17485502Y-13569498D01*
X17584498Y-13569498D01*
X17991500Y-4407500D02*
X18131500Y-4547500D01*
X18131500Y-4407500D02*
X17991500Y-4547500D01*
X18110998Y-4526998D02*
X18110998Y-4428002D01*
X18012002Y-4428002D01*
X18012002Y-4526998D01*
X18110998Y-4526998D01*
X17991500Y-5042500D02*
X18131500Y-5182500D01*
X18131500Y-5042500D02*
X17991500Y-5182500D01*
X18110998Y-5161998D02*
X18110998Y-5063002D01*
X18012002Y-5063002D01*
X18012002Y-5161998D01*
X18110998Y-5161998D01*
X17991500Y-5677500D02*
X18131500Y-5817500D01*
X18131500Y-5677500D02*
X17991500Y-5817500D01*
X18110998Y-5796998D02*
X18110998Y-5698002D01*
X18012002Y-5698002D01*
X18012002Y-5796998D01*
X18110998Y-5796998D01*
X18468500Y-4407500D02*
X18608500Y-4547500D01*
X18608500Y-4407500D02*
X18468500Y-4547500D01*
X18587998Y-4526998D02*
X18587998Y-4428002D01*
X18489002Y-4428002D01*
X18489002Y-4526998D01*
X18587998Y-4526998D01*
X18468500Y-5042500D02*
X18608500Y-5182500D01*
X18608500Y-5042500D02*
X18468500Y-5182500D01*
X18587998Y-5161998D02*
X18587998Y-5063002D01*
X18489002Y-5063002D01*
X18489002Y-5161998D01*
X18587998Y-5161998D01*
X18468500Y-5677500D02*
X18608500Y-5817500D01*
X18608500Y-5677500D02*
X18468500Y-5817500D01*
X18587998Y-5796998D02*
X18587998Y-5698002D01*
X18489002Y-5698002D01*
X18489002Y-5796998D01*
X18587998Y-5796998D01*
X19092000Y-12180000D02*
X19232000Y-12320000D01*
X19232000Y-12180000D02*
X19092000Y-12320000D01*
X19211498Y-12299498D02*
X19211498Y-12200502D01*
X19112502Y-12200502D01*
X19112502Y-12299498D01*
X19211498Y-12299498D01*
X19092000Y-12815000D02*
X19232000Y-12955000D01*
X19232000Y-12815000D02*
X19092000Y-12955000D01*
X19211498Y-12934498D02*
X19211498Y-12835502D01*
X19112502Y-12835502D01*
X19112502Y-12934498D01*
X19211498Y-12934498D01*
X19092000Y-13450000D02*
X19232000Y-13590000D01*
X19232000Y-13450000D02*
X19092000Y-13590000D01*
X19211498Y-13569498D02*
X19211498Y-13470502D01*
X19112502Y-13470502D01*
X19112502Y-13569498D01*
X19211498Y-13569498D01*
X20091500Y-4407500D02*
X20231500Y-4547500D01*
X20231500Y-4407500D02*
X20091500Y-4547500D01*
X20210998Y-4526998D02*
X20210998Y-4428002D01*
X20112002Y-4428002D01*
X20112002Y-4526998D01*
X20210998Y-4526998D01*
X20091500Y-5042500D02*
X20231500Y-5182500D01*
X20231500Y-5042500D02*
X20091500Y-5182500D01*
X20210998Y-5161998D02*
X20210998Y-5063002D01*
X20112002Y-5063002D01*
X20112002Y-5161998D01*
X20210998Y-5161998D01*
X20091500Y-5677500D02*
X20231500Y-5817500D01*
X20231500Y-5677500D02*
X20091500Y-5817500D01*
X20210998Y-5796998D02*
X20210998Y-5698002D01*
X20112002Y-5698002D01*
X20112002Y-5796998D01*
X20210998Y-5796998D01*
X20715000Y-12180000D02*
X20855000Y-12320000D01*
X20855000Y-12180000D02*
X20715000Y-12320000D01*
X20834498Y-12299498D02*
X20834498Y-12200502D01*
X20735502Y-12200502D01*
X20735502Y-12299498D01*
X20834498Y-12299498D01*
X20715000Y-12815000D02*
X20855000Y-12955000D01*
X20855000Y-12815000D02*
X20715000Y-12955000D01*
X20834498Y-12934498D02*
X20834498Y-12835502D01*
X20735502Y-12835502D01*
X20735502Y-12934498D01*
X20834498Y-12934498D01*
X20715000Y-13450000D02*
X20855000Y-13590000D01*
X20855000Y-13450000D02*
X20715000Y-13590000D01*
X20834498Y-13569498D02*
X20834498Y-13470502D01*
X20735502Y-13470502D01*
X20735502Y-13569498D01*
X20834498Y-13569498D01*
D19*
X10465000Y-10600000D02*
X10615000Y-10750000D01*
X10615000Y-10600000D02*
X10465000Y-10750000D01*
X10540000Y-10750000D02*
X10615000Y-10675000D01*
X10540000Y-10600000D01*
X10465000Y-10675000D01*
X10540000Y-10750000D01*
D11*
X10615000Y-10740000D02*
X10615000Y-10610000D01*
X10465000Y-10740000D02*
X10465000Y-10610000D01*
X10615000Y-10610000D02*
G75*
G03*
X10465000Y-10610000I-75000J0D01*
G01*
X10465000Y-10740000D02*
G75*
G03*
X10615000Y-10740000I75000J0D01*
G01*
D19*
X11585000Y-10600000D02*
X11735000Y-10750000D01*
X11735000Y-10600000D02*
X11585000Y-10750000D01*
X11660000Y-10750000D02*
X11735000Y-10675000D01*
X11660000Y-10600000D01*
X11585000Y-10675000D01*
X11660000Y-10750000D01*
D11*
X11735000Y-10740000D02*
X11735000Y-10610000D01*
X11585000Y-10740000D02*
X11585000Y-10610000D01*
X11735000Y-10610000D02*
G75*
G03*
X11585000Y-10610000I-75000J0D01*
G01*
X11585000Y-10740000D02*
G75*
G03*
X11735000Y-10740000I75000J0D01*
G01*
D20*
X13022000Y-12510000D02*
X13022000Y-12690000D01*
X12932000Y-12600000D02*
X13112000Y-12600000D01*
X13112000Y-12600000D02*
G75*
G03*
X13112000Y-12600000I-90000J0D01*
G01*
D11*
X13112000Y-12615000D02*
X13112000Y-12585000D01*
X12932000Y-12615000D02*
X12932000Y-12585000D01*
X13112000Y-12585000D02*
G75*
G03*
X12932000Y-12585000I-90000J0D01*
G01*
X12932000Y-12615000D02*
G75*
G03*
X13112000Y-12615000I90000J0D01*
G01*
D20*
X13902000Y-12510000D02*
X13902000Y-12690000D01*
X13812000Y-12600000D02*
X13992000Y-12600000D01*
X13992000Y-12600000D02*
G75*
G03*
X13992000Y-12600000I-90000J0D01*
G01*
D11*
X13992000Y-12615000D02*
X13992000Y-12585000D01*
X13812000Y-12615000D02*
X13812000Y-12585000D01*
X13992000Y-12585000D02*
G75*
G03*
X13812000Y-12585000I-90000J0D01*
G01*
X13812000Y-12615000D02*
G75*
G03*
X13992000Y-12615000I90000J0D01*
G01*
D20*
X16284000Y-12507500D02*
X16284000Y-12687500D01*
X16194000Y-12597500D02*
X16374000Y-12597500D01*
X16374000Y-12597500D02*
G75*
G03*
X16374000Y-12597500I-90000J0D01*
G01*
D11*
X16374000Y-12612500D02*
X16374000Y-12582500D01*
X16194000Y-12612500D02*
X16194000Y-12582500D01*
X16374000Y-12582500D02*
G75*
G03*
X16194000Y-12582500I-90000J0D01*
G01*
X16194000Y-12612500D02*
G75*
G03*
X16374000Y-12612500I90000J0D01*
G01*
D20*
X17164000Y-12507500D02*
X17164000Y-12687500D01*
X17074000Y-12597500D02*
X17254000Y-12597500D01*
X17254000Y-12597500D02*
G75*
G03*
X17254000Y-12597500I-90000J0D01*
G01*
D11*
X17254000Y-12612500D02*
X17254000Y-12582500D01*
X17074000Y-12612500D02*
X17074000Y-12582500D01*
X17254000Y-12582500D02*
G75*
G03*
X17074000Y-12582500I-90000J0D01*
G01*
X17074000Y-12612500D02*
G75*
G03*
X17254000Y-12612500I90000J0D01*
G01*
D20*
X19533500Y-12507500D02*
X19533500Y-12687500D01*
X19443500Y-12597500D02*
X19623500Y-12597500D01*
X19623500Y-12597500D02*
G75*
G03*
X19623500Y-12597500I-90000J0D01*
G01*
D11*
X19623500Y-12612500D02*
X19623500Y-12582500D01*
X19443500Y-12612500D02*
X19443500Y-12582500D01*
X19623500Y-12582500D02*
G75*
G03*
X19443500Y-12582500I-90000J0D01*
G01*
X19443500Y-12612500D02*
G75*
G03*
X19623500Y-12612500I90000J0D01*
G01*
D20*
X20413500Y-12507500D02*
X20413500Y-12687500D01*
X20323500Y-12597500D02*
X20503500Y-12597500D01*
X20503500Y-12597500D02*
G75*
G03*
X20503500Y-12597500I-90000J0D01*
G01*
D11*
X20503500Y-12612500D02*
X20503500Y-12582500D01*
X20323500Y-12612500D02*
X20323500Y-12582500D01*
X20503500Y-12582500D02*
G75*
G03*
X20323500Y-12582500I-90000J0D01*
G01*
X20323500Y-12612500D02*
G75*
G03*
X20503500Y-12612500I90000J0D01*
G01*
D21*
X21020612Y-5121392D02*
X21020612Y-4916329D01*
X20815549Y-4916329D01*
X20815549Y-5121392D01*
X21020612Y-5121392D01*
X21063080Y-5018860D02*
G75*
G03*
X21063080Y-5018860I-145000J0D01*
G01*
X22120612Y-5121392D02*
X22120612Y-4916329D01*
X21915549Y-4916329D01*
X21915549Y-5121392D01*
X22120612Y-5121392D01*
X22163080Y-5018860D02*
G75*
G03*
X22163080Y-5018860I-145000J0D01*
G01*
D11*
X9802619Y-14265476D02*
X9802619Y-14065476D01*
X9850238Y-14065476D01*
X9878810Y-14075000D01*
X9897857Y-14094048D01*
X9907381Y-14113095D01*
X9916905Y-14151190D01*
X9916905Y-14179762D01*
X9907381Y-14217857D01*
X9897857Y-14236905D01*
X9878810Y-14255952D01*
X9850238Y-14265476D01*
X9802619Y-14265476D01*
X10002619Y-14265476D02*
X10002619Y-14132143D01*
X10002619Y-14170238D02*
X10012143Y-14151190D01*
X10021667Y-14141667D01*
X10040714Y-14132143D01*
X10059762Y-14132143D01*
X10126429Y-14265476D02*
X10126429Y-14132143D01*
X10126429Y-14065476D02*
X10116905Y-14075000D01*
X10126429Y-14084524D01*
X10135952Y-14075000D01*
X10126429Y-14065476D01*
X10126429Y-14084524D01*
X10250238Y-14265476D02*
X10231190Y-14255952D01*
X10221667Y-14236905D01*
X10221667Y-14065476D01*
X10355000Y-14265476D02*
X10335952Y-14255952D01*
X10326429Y-14236905D01*
X10326429Y-14065476D01*
X10583571Y-14265476D02*
X10583571Y-14065476D01*
X10650238Y-14208333D01*
X10716905Y-14065476D01*
X10716905Y-14265476D01*
X10897857Y-14265476D02*
X10897857Y-14160714D01*
X10888333Y-14141667D01*
X10869286Y-14132143D01*
X10831190Y-14132143D01*
X10812143Y-14141667D01*
X10897857Y-14255952D02*
X10878810Y-14265476D01*
X10831190Y-14265476D01*
X10812143Y-14255952D01*
X10802619Y-14236905D01*
X10802619Y-14217857D01*
X10812143Y-14198809D01*
X10831190Y-14189286D01*
X10878810Y-14189286D01*
X10897857Y-14179762D01*
X10993095Y-14132143D02*
X10993095Y-14332143D01*
X10993095Y-14141667D02*
X11012143Y-14132143D01*
X11050238Y-14132143D01*
X11069286Y-14141667D01*
X11078810Y-14151190D01*
X11088333Y-14170238D01*
X11088333Y-14227381D01*
X11078810Y-14246428D01*
X11069286Y-14255952D01*
X11050238Y-14265476D01*
X11012143Y-14265476D01*
X10993095Y-14255952D01*
X11174048Y-14246428D02*
X11183571Y-14255952D01*
X11174048Y-14265476D01*
X11164524Y-14255952D01*
X11174048Y-14246428D01*
X11174048Y-14265476D01*
X11174048Y-14141667D02*
X11183571Y-14151190D01*
X11174048Y-14160714D01*
X11164524Y-14151190D01*
X11174048Y-14141667D01*
X11174048Y-14160714D01*
D12*
X9505000Y-14575000D02*
X9545000Y-14615000D01*
X9545000Y-14575000D02*
X9505000Y-14615000D01*
D11*
X9840714Y-14485476D02*
X9859762Y-14485476D01*
X9878810Y-14495000D01*
X9888333Y-14504524D01*
X9897857Y-14523571D01*
X9907381Y-14561667D01*
X9907381Y-14609286D01*
X9897857Y-14647381D01*
X9888333Y-14666428D01*
X9878810Y-14675952D01*
X9859762Y-14685476D01*
X9840714Y-14685476D01*
X9821667Y-14675952D01*
X9812143Y-14666428D01*
X9802619Y-14647381D01*
X9793095Y-14609286D01*
X9793095Y-14561667D01*
X9802619Y-14523571D01*
X9812143Y-14504524D01*
X9821667Y-14495000D01*
X9840714Y-14485476D01*
X9993095Y-14666428D02*
X10002619Y-14675952D01*
X9993095Y-14685476D01*
X9983571Y-14675952D01*
X9993095Y-14666428D01*
X9993095Y-14685476D01*
X10174048Y-14552143D02*
X10174048Y-14685476D01*
X10126429Y-14475952D02*
X10078810Y-14618809D01*
X10202619Y-14618809D01*
X10316905Y-14485476D02*
X10335952Y-14485476D01*
X10355000Y-14495000D01*
X10364524Y-14504524D01*
X10374048Y-14523571D01*
X10383571Y-14561667D01*
X10383571Y-14609286D01*
X10374048Y-14647381D01*
X10364524Y-14666428D01*
X10355000Y-14675952D01*
X10335952Y-14685476D01*
X10316905Y-14685476D01*
X10297857Y-14675952D01*
X10288333Y-14666428D01*
X10278810Y-14647381D01*
X10269286Y-14609286D01*
X10269286Y-14561667D01*
X10278810Y-14523571D01*
X10288333Y-14504524D01*
X10297857Y-14495000D01*
X10316905Y-14485476D01*
X10507381Y-14485476D02*
X10526429Y-14485476D01*
X10545476Y-14495000D01*
X10555000Y-14504524D01*
X10564524Y-14523571D01*
X10574048Y-14561667D01*
X10574048Y-14609286D01*
X10564524Y-14647381D01*
X10555000Y-14666428D01*
X10545476Y-14675952D01*
X10526429Y-14685476D01*
X10507381Y-14685476D01*
X10488333Y-14675952D01*
X10478810Y-14666428D01*
X10469286Y-14647381D01*
X10459762Y-14609286D01*
X10459762Y-14561667D01*
X10469286Y-14523571D01*
X10478810Y-14504524D01*
X10488333Y-14495000D01*
X10507381Y-14485476D01*
X10659762Y-14685476D02*
X10659762Y-14552143D01*
X10659762Y-14571190D02*
X10669286Y-14561667D01*
X10688333Y-14552143D01*
X10716905Y-14552143D01*
X10735952Y-14561667D01*
X10745476Y-14580714D01*
X10745476Y-14685476D01*
X10745476Y-14580714D02*
X10755000Y-14561667D01*
X10774048Y-14552143D01*
X10802619Y-14552143D01*
X10821667Y-14561667D01*
X10831190Y-14580714D01*
X10831190Y-14685476D01*
X10926429Y-14685476D02*
X10926429Y-14552143D01*
X10926429Y-14571190D02*
X10935952Y-14561667D01*
X10955000Y-14552143D01*
X10983571Y-14552143D01*
X11002619Y-14561667D01*
X11012143Y-14580714D01*
X11012143Y-14685476D01*
X11012143Y-14580714D02*
X11021667Y-14561667D01*
X11040714Y-14552143D01*
X11069286Y-14552143D01*
X11088333Y-14561667D01*
X11097857Y-14580714D01*
X11097857Y-14685476D01*
X11488333Y-14475952D02*
X11316905Y-14733095D01*
X11745476Y-14485476D02*
X11764524Y-14485476D01*
X11783571Y-14495000D01*
X11793095Y-14504524D01*
X11802619Y-14523571D01*
X11812143Y-14561667D01*
X11812143Y-14609286D01*
X11802619Y-14647381D01*
X11793095Y-14666428D01*
X11783571Y-14675952D01*
X11764524Y-14685476D01*
X11745476Y-14685476D01*
X11726428Y-14675952D01*
X11716905Y-14666428D01*
X11707381Y-14647381D01*
X11697857Y-14609286D01*
X11697857Y-14561667D01*
X11707381Y-14523571D01*
X11716905Y-14504524D01*
X11726428Y-14495000D01*
X11745476Y-14485476D01*
X11897857Y-14666428D02*
X11907381Y-14675952D01*
X11897857Y-14685476D01*
X11888333Y-14675952D01*
X11897857Y-14666428D01*
X11897857Y-14685476D01*
X12031190Y-14485476D02*
X12050238Y-14485476D01*
X12069286Y-14495000D01*
X12078809Y-14504524D01*
X12088333Y-14523571D01*
X12097857Y-14561667D01*
X12097857Y-14609286D01*
X12088333Y-14647381D01*
X12078809Y-14666428D01*
X12069286Y-14675952D01*
X12050238Y-14685476D01*
X12031190Y-14685476D01*
X12012143Y-14675952D01*
X12002619Y-14666428D01*
X11993095Y-14647381D01*
X11983571Y-14609286D01*
X11983571Y-14561667D01*
X11993095Y-14523571D01*
X12002619Y-14504524D01*
X12012143Y-14495000D01*
X12031190Y-14485476D01*
X12288333Y-14685476D02*
X12174048Y-14685476D01*
X12231190Y-14685476D02*
X12231190Y-14485476D01*
X12212143Y-14514048D01*
X12193095Y-14533095D01*
X12174048Y-14542619D01*
X12469286Y-14485476D02*
X12374048Y-14485476D01*
X12364524Y-14580714D01*
X12374048Y-14571190D01*
X12393095Y-14561667D01*
X12440714Y-14561667D01*
X12459762Y-14571190D01*
X12469286Y-14580714D01*
X12478809Y-14599762D01*
X12478809Y-14647381D01*
X12469286Y-14666428D01*
X12459762Y-14675952D01*
X12440714Y-14685476D01*
X12393095Y-14685476D01*
X12374048Y-14675952D01*
X12364524Y-14666428D01*
X12545476Y-14485476D02*
X12678809Y-14485476D01*
X12593095Y-14685476D01*
X12745476Y-14485476D02*
X12745476Y-14523571D01*
X12821667Y-14485476D02*
X12821667Y-14523571D01*
X13116905Y-14761667D02*
X13107381Y-14752143D01*
X13088333Y-14723571D01*
X13078809Y-14704524D01*
X13069286Y-14675952D01*
X13059762Y-14628333D01*
X13059762Y-14590238D01*
X13069286Y-14542619D01*
X13078809Y-14514048D01*
X13088333Y-14495000D01*
X13107381Y-14466428D01*
X13116905Y-14456905D01*
X13174048Y-14485476D02*
X13307381Y-14485476D01*
X13221667Y-14685476D01*
X13535952Y-14685476D02*
X13535952Y-14485476D01*
X13621667Y-14685476D02*
X13621667Y-14580714D01*
X13612143Y-14561667D01*
X13593095Y-14552143D01*
X13564524Y-14552143D01*
X13545476Y-14561667D01*
X13535952Y-14571190D01*
X13745476Y-14685476D02*
X13726428Y-14675952D01*
X13716905Y-14666428D01*
X13707381Y-14647381D01*
X13707381Y-14590238D01*
X13716905Y-14571190D01*
X13726428Y-14561667D01*
X13745476Y-14552143D01*
X13774048Y-14552143D01*
X13793095Y-14561667D01*
X13802619Y-14571190D01*
X13812143Y-14590238D01*
X13812143Y-14647381D01*
X13802619Y-14666428D01*
X13793095Y-14675952D01*
X13774048Y-14685476D01*
X13745476Y-14685476D01*
X13926428Y-14685476D02*
X13907381Y-14675952D01*
X13897857Y-14656905D01*
X13897857Y-14485476D01*
X14078809Y-14675952D02*
X14059762Y-14685476D01*
X14021667Y-14685476D01*
X14002619Y-14675952D01*
X13993095Y-14656905D01*
X13993095Y-14580714D01*
X14002619Y-14561667D01*
X14021667Y-14552143D01*
X14059762Y-14552143D01*
X14078809Y-14561667D01*
X14088333Y-14580714D01*
X14088333Y-14599762D01*
X13993095Y-14618809D01*
X14164524Y-14675952D02*
X14183571Y-14685476D01*
X14221667Y-14685476D01*
X14240714Y-14675952D01*
X14250238Y-14656905D01*
X14250238Y-14647381D01*
X14240714Y-14628333D01*
X14221667Y-14618809D01*
X14193095Y-14618809D01*
X14174048Y-14609286D01*
X14164524Y-14590238D01*
X14164524Y-14580714D01*
X14174048Y-14561667D01*
X14193095Y-14552143D01*
X14221667Y-14552143D01*
X14240714Y-14561667D01*
X14316905Y-14761667D02*
X14326428Y-14752143D01*
X14345476Y-14723571D01*
X14355000Y-14704524D01*
X14364524Y-14675952D01*
X14374048Y-14628333D01*
X14374048Y-14590238D01*
X14364524Y-14542619D01*
X14355000Y-14514048D01*
X14345476Y-14495000D01*
X14326428Y-14466428D01*
X14316905Y-14456905D01*
D13*
X9545000Y-14859000D02*
G75*
G03*
X9545000Y-14859000I-37500J0D01*
G01*
D11*
X9840714Y-14749476D02*
X9859762Y-14749476D01*
X9878810Y-14759000D01*
X9888333Y-14768524D01*
X9897857Y-14787571D01*
X9907381Y-14825667D01*
X9907381Y-14873286D01*
X9897857Y-14911381D01*
X9888333Y-14930428D01*
X9878810Y-14939952D01*
X9859762Y-14949476D01*
X9840714Y-14949476D01*
X9821667Y-14939952D01*
X9812143Y-14930428D01*
X9802619Y-14911381D01*
X9793095Y-14873286D01*
X9793095Y-14825667D01*
X9802619Y-14787571D01*
X9812143Y-14768524D01*
X9821667Y-14759000D01*
X9840714Y-14749476D01*
X9993095Y-14930428D02*
X10002619Y-14939952D01*
X9993095Y-14949476D01*
X9983571Y-14939952D01*
X9993095Y-14930428D01*
X9993095Y-14949476D01*
X10069286Y-14749476D02*
X10202619Y-14749476D01*
X10116905Y-14949476D01*
X10374048Y-14749476D02*
X10278810Y-14749476D01*
X10269286Y-14844714D01*
X10278810Y-14835190D01*
X10297857Y-14825667D01*
X10345476Y-14825667D01*
X10364524Y-14835190D01*
X10374048Y-14844714D01*
X10383571Y-14863762D01*
X10383571Y-14911381D01*
X10374048Y-14930428D01*
X10364524Y-14939952D01*
X10345476Y-14949476D01*
X10297857Y-14949476D01*
X10278810Y-14939952D01*
X10269286Y-14930428D01*
X10507381Y-14749476D02*
X10526429Y-14749476D01*
X10545476Y-14759000D01*
X10555000Y-14768524D01*
X10564524Y-14787571D01*
X10574048Y-14825667D01*
X10574048Y-14873286D01*
X10564524Y-14911381D01*
X10555000Y-14930428D01*
X10545476Y-14939952D01*
X10526429Y-14949476D01*
X10507381Y-14949476D01*
X10488333Y-14939952D01*
X10478810Y-14930428D01*
X10469286Y-14911381D01*
X10459762Y-14873286D01*
X10459762Y-14825667D01*
X10469286Y-14787571D01*
X10478810Y-14768524D01*
X10488333Y-14759000D01*
X10507381Y-14749476D01*
X10659762Y-14949476D02*
X10659762Y-14816143D01*
X10659762Y-14835190D02*
X10669286Y-14825667D01*
X10688333Y-14816143D01*
X10716905Y-14816143D01*
X10735952Y-14825667D01*
X10745476Y-14844714D01*
X10745476Y-14949476D01*
X10745476Y-14844714D02*
X10755000Y-14825667D01*
X10774048Y-14816143D01*
X10802619Y-14816143D01*
X10821667Y-14825667D01*
X10831190Y-14844714D01*
X10831190Y-14949476D01*
X10926429Y-14949476D02*
X10926429Y-14816143D01*
X10926429Y-14835190D02*
X10935952Y-14825667D01*
X10955000Y-14816143D01*
X10983571Y-14816143D01*
X11002619Y-14825667D01*
X11012143Y-14844714D01*
X11012143Y-14949476D01*
X11012143Y-14844714D02*
X11021667Y-14825667D01*
X11040714Y-14816143D01*
X11069286Y-14816143D01*
X11088333Y-14825667D01*
X11097857Y-14844714D01*
X11097857Y-14949476D01*
X11488333Y-14739952D02*
X11316905Y-14997095D01*
X11745476Y-14749476D02*
X11764524Y-14749476D01*
X11783571Y-14759000D01*
X11793095Y-14768524D01*
X11802619Y-14787571D01*
X11812143Y-14825667D01*
X11812143Y-14873286D01*
X11802619Y-14911381D01*
X11793095Y-14930428D01*
X11783571Y-14939952D01*
X11764524Y-14949476D01*
X11745476Y-14949476D01*
X11726428Y-14939952D01*
X11716905Y-14930428D01*
X11707381Y-14911381D01*
X11697857Y-14873286D01*
X11697857Y-14825667D01*
X11707381Y-14787571D01*
X11716905Y-14768524D01*
X11726428Y-14759000D01*
X11745476Y-14749476D01*
X11897857Y-14930428D02*
X11907381Y-14939952D01*
X11897857Y-14949476D01*
X11888333Y-14939952D01*
X11897857Y-14930428D01*
X11897857Y-14949476D01*
X12031190Y-14749476D02*
X12050238Y-14749476D01*
X12069286Y-14759000D01*
X12078809Y-14768524D01*
X12088333Y-14787571D01*
X12097857Y-14825667D01*
X12097857Y-14873286D01*
X12088333Y-14911381D01*
X12078809Y-14930428D01*
X12069286Y-14939952D01*
X12050238Y-14949476D01*
X12031190Y-14949476D01*
X12012143Y-14939952D01*
X12002619Y-14930428D01*
X11993095Y-14911381D01*
X11983571Y-14873286D01*
X11983571Y-14825667D01*
X11993095Y-14787571D01*
X12002619Y-14768524D01*
X12012143Y-14759000D01*
X12031190Y-14749476D01*
X12174048Y-14768524D02*
X12183571Y-14759000D01*
X12202619Y-14749476D01*
X12250238Y-14749476D01*
X12269286Y-14759000D01*
X12278809Y-14768524D01*
X12288333Y-14787571D01*
X12288333Y-14806619D01*
X12278809Y-14835190D01*
X12164524Y-14949476D01*
X12288333Y-14949476D01*
X12383571Y-14949476D02*
X12421667Y-14949476D01*
X12440714Y-14939952D01*
X12450238Y-14930428D01*
X12469286Y-14901857D01*
X12478809Y-14863762D01*
X12478809Y-14787571D01*
X12469286Y-14768524D01*
X12459762Y-14759000D01*
X12440714Y-14749476D01*
X12402619Y-14749476D01*
X12383571Y-14759000D01*
X12374048Y-14768524D01*
X12364524Y-14787571D01*
X12364524Y-14835190D01*
X12374048Y-14854238D01*
X12383571Y-14863762D01*
X12402619Y-14873286D01*
X12440714Y-14873286D01*
X12459762Y-14863762D01*
X12469286Y-14854238D01*
X12478809Y-14835190D01*
X12659762Y-14749476D02*
X12564524Y-14749476D01*
X12555000Y-14844714D01*
X12564524Y-14835190D01*
X12583571Y-14825667D01*
X12631190Y-14825667D01*
X12650238Y-14835190D01*
X12659762Y-14844714D01*
X12669286Y-14863762D01*
X12669286Y-14911381D01*
X12659762Y-14930428D01*
X12650238Y-14939952D01*
X12631190Y-14949476D01*
X12583571Y-14949476D01*
X12564524Y-14939952D01*
X12555000Y-14930428D01*
X12745476Y-14749476D02*
X12745476Y-14787571D01*
X12821667Y-14749476D02*
X12821667Y-14787571D01*
X13116905Y-15025667D02*
X13107381Y-15016143D01*
X13088333Y-14987571D01*
X13078809Y-14968524D01*
X13069286Y-14939952D01*
X13059762Y-14892333D01*
X13059762Y-14854238D01*
X13069286Y-14806619D01*
X13078809Y-14778048D01*
X13088333Y-14759000D01*
X13107381Y-14730428D01*
X13116905Y-14720905D01*
X13288333Y-14749476D02*
X13193095Y-14749476D01*
X13183571Y-14844714D01*
X13193095Y-14835190D01*
X13212143Y-14825667D01*
X13259762Y-14825667D01*
X13278809Y-14835190D01*
X13288333Y-14844714D01*
X13297857Y-14863762D01*
X13297857Y-14911381D01*
X13288333Y-14930428D01*
X13278809Y-14939952D01*
X13259762Y-14949476D01*
X13212143Y-14949476D01*
X13193095Y-14939952D01*
X13183571Y-14930428D01*
X13535952Y-14949476D02*
X13535952Y-14749476D01*
X13621667Y-14949476D02*
X13621667Y-14844714D01*
X13612143Y-14825667D01*
X13593095Y-14816143D01*
X13564524Y-14816143D01*
X13545476Y-14825667D01*
X13535952Y-14835190D01*
X13745476Y-14949476D02*
X13726428Y-14939952D01*
X13716905Y-14930428D01*
X13707381Y-14911381D01*
X13707381Y-14854238D01*
X13716905Y-14835190D01*
X13726428Y-14825667D01*
X13745476Y-14816143D01*
X13774048Y-14816143D01*
X13793095Y-14825667D01*
X13802619Y-14835190D01*
X13812143Y-14854238D01*
X13812143Y-14911381D01*
X13802619Y-14930428D01*
X13793095Y-14939952D01*
X13774048Y-14949476D01*
X13745476Y-14949476D01*
X13926428Y-14949476D02*
X13907381Y-14939952D01*
X13897857Y-14920905D01*
X13897857Y-14749476D01*
X14078809Y-14939952D02*
X14059762Y-14949476D01*
X14021667Y-14949476D01*
X14002619Y-14939952D01*
X13993095Y-14920905D01*
X13993095Y-14844714D01*
X14002619Y-14825667D01*
X14021667Y-14816143D01*
X14059762Y-14816143D01*
X14078809Y-14825667D01*
X14088333Y-14844714D01*
X14088333Y-14863762D01*
X13993095Y-14882809D01*
X14164524Y-14939952D02*
X14183571Y-14949476D01*
X14221667Y-14949476D01*
X14240714Y-14939952D01*
X14250238Y-14920905D01*
X14250238Y-14911381D01*
X14240714Y-14892333D01*
X14221667Y-14882809D01*
X14193095Y-14882809D01*
X14174048Y-14873286D01*
X14164524Y-14854238D01*
X14164524Y-14844714D01*
X14174048Y-14825667D01*
X14193095Y-14816143D01*
X14221667Y-14816143D01*
X14240714Y-14825667D01*
X14316905Y-15025667D02*
X14326428Y-15016143D01*
X14345476Y-14987571D01*
X14355000Y-14968524D01*
X14364524Y-14939952D01*
X14374048Y-14892333D01*
X14374048Y-14854238D01*
X14364524Y-14806619D01*
X14355000Y-14778048D01*
X14345476Y-14759000D01*
X14326428Y-14730428D01*
X14316905Y-14720905D01*
D14*
X9506900Y-15084900D02*
X9506900Y-15161100D01*
X9468800Y-15123000D02*
X9545000Y-15123000D01*
D11*
X9840714Y-15013476D02*
X9859762Y-15013476D01*
X9878810Y-15023000D01*
X9888333Y-15032524D01*
X9897857Y-15051571D01*
X9907381Y-15089667D01*
X9907381Y-15137286D01*
X9897857Y-15175381D01*
X9888333Y-15194428D01*
X9878810Y-15203952D01*
X9859762Y-15213476D01*
X9840714Y-15213476D01*
X9821667Y-15203952D01*
X9812143Y-15194428D01*
X9802619Y-15175381D01*
X9793095Y-15137286D01*
X9793095Y-15089667D01*
X9802619Y-15051571D01*
X9812143Y-15032524D01*
X9821667Y-15023000D01*
X9840714Y-15013476D01*
X9993095Y-15194428D02*
X10002619Y-15203952D01*
X9993095Y-15213476D01*
X9983571Y-15203952D01*
X9993095Y-15194428D01*
X9993095Y-15213476D01*
X10069286Y-15013476D02*
X10202619Y-15013476D01*
X10116905Y-15213476D01*
X10364524Y-15013476D02*
X10326429Y-15013476D01*
X10307381Y-15023000D01*
X10297857Y-15032524D01*
X10278810Y-15061095D01*
X10269286Y-15099190D01*
X10269286Y-15175381D01*
X10278810Y-15194428D01*
X10288333Y-15203952D01*
X10307381Y-15213476D01*
X10345476Y-15213476D01*
X10364524Y-15203952D01*
X10374048Y-15194428D01*
X10383571Y-15175381D01*
X10383571Y-15127762D01*
X10374048Y-15108714D01*
X10364524Y-15099190D01*
X10345476Y-15089667D01*
X10307381Y-15089667D01*
X10288333Y-15099190D01*
X10278810Y-15108714D01*
X10269286Y-15127762D01*
X10459762Y-15032524D02*
X10469286Y-15023000D01*
X10488333Y-15013476D01*
X10535952Y-15013476D01*
X10555000Y-15023000D01*
X10564524Y-15032524D01*
X10574048Y-15051571D01*
X10574048Y-15070619D01*
X10564524Y-15099190D01*
X10450238Y-15213476D01*
X10574048Y-15213476D01*
X10659762Y-15213476D02*
X10659762Y-15080143D01*
X10659762Y-15099190D02*
X10669286Y-15089667D01*
X10688333Y-15080143D01*
X10716905Y-15080143D01*
X10735952Y-15089667D01*
X10745476Y-15108714D01*
X10745476Y-15213476D01*
X10745476Y-15108714D02*
X10755000Y-15089667D01*
X10774048Y-15080143D01*
X10802619Y-15080143D01*
X10821667Y-15089667D01*
X10831190Y-15108714D01*
X10831190Y-15213476D01*
X10926429Y-15213476D02*
X10926429Y-15080143D01*
X10926429Y-15099190D02*
X10935952Y-15089667D01*
X10955000Y-15080143D01*
X10983571Y-15080143D01*
X11002619Y-15089667D01*
X11012143Y-15108714D01*
X11012143Y-15213476D01*
X11012143Y-15108714D02*
X11021667Y-15089667D01*
X11040714Y-15080143D01*
X11069286Y-15080143D01*
X11088333Y-15089667D01*
X11097857Y-15108714D01*
X11097857Y-15213476D01*
X11488333Y-15003952D02*
X11316905Y-15261095D01*
X11745476Y-15013476D02*
X11764524Y-15013476D01*
X11783571Y-15023000D01*
X11793095Y-15032524D01*
X11802619Y-15051571D01*
X11812143Y-15089667D01*
X11812143Y-15137286D01*
X11802619Y-15175381D01*
X11793095Y-15194428D01*
X11783571Y-15203952D01*
X11764524Y-15213476D01*
X11745476Y-15213476D01*
X11726428Y-15203952D01*
X11716905Y-15194428D01*
X11707381Y-15175381D01*
X11697857Y-15137286D01*
X11697857Y-15089667D01*
X11707381Y-15051571D01*
X11716905Y-15032524D01*
X11726428Y-15023000D01*
X11745476Y-15013476D01*
X11897857Y-15194428D02*
X11907381Y-15203952D01*
X11897857Y-15213476D01*
X11888333Y-15203952D01*
X11897857Y-15194428D01*
X11897857Y-15213476D01*
X12031190Y-15013476D02*
X12050238Y-15013476D01*
X12069286Y-15023000D01*
X12078809Y-15032524D01*
X12088333Y-15051571D01*
X12097857Y-15089667D01*
X12097857Y-15137286D01*
X12088333Y-15175381D01*
X12078809Y-15194428D01*
X12069286Y-15203952D01*
X12050238Y-15213476D01*
X12031190Y-15213476D01*
X12012143Y-15203952D01*
X12002619Y-15194428D01*
X11993095Y-15175381D01*
X11983571Y-15137286D01*
X11983571Y-15089667D01*
X11993095Y-15051571D01*
X12002619Y-15032524D01*
X12012143Y-15023000D01*
X12031190Y-15013476D01*
X12164524Y-15013476D02*
X12288333Y-15013476D01*
X12221667Y-15089667D01*
X12250238Y-15089667D01*
X12269286Y-15099190D01*
X12278809Y-15108714D01*
X12288333Y-15127762D01*
X12288333Y-15175381D01*
X12278809Y-15194428D01*
X12269286Y-15203952D01*
X12250238Y-15213476D01*
X12193095Y-15213476D01*
X12174048Y-15203952D01*
X12164524Y-15194428D01*
X12412143Y-15013476D02*
X12431190Y-15013476D01*
X12450238Y-15023000D01*
X12459762Y-15032524D01*
X12469286Y-15051571D01*
X12478809Y-15089667D01*
X12478809Y-15137286D01*
X12469286Y-15175381D01*
X12459762Y-15194428D01*
X12450238Y-15203952D01*
X12431190Y-15213476D01*
X12412143Y-15213476D01*
X12393095Y-15203952D01*
X12383571Y-15194428D01*
X12374048Y-15175381D01*
X12364524Y-15137286D01*
X12364524Y-15089667D01*
X12374048Y-15051571D01*
X12383571Y-15032524D01*
X12393095Y-15023000D01*
X12412143Y-15013476D01*
X12602619Y-15013476D02*
X12621667Y-15013476D01*
X12640714Y-15023000D01*
X12650238Y-15032524D01*
X12659762Y-15051571D01*
X12669286Y-15089667D01*
X12669286Y-15137286D01*
X12659762Y-15175381D01*
X12650238Y-15194428D01*
X12640714Y-15203952D01*
X12621667Y-15213476D01*
X12602619Y-15213476D01*
X12583571Y-15203952D01*
X12574048Y-15194428D01*
X12564524Y-15175381D01*
X12555000Y-15137286D01*
X12555000Y-15089667D01*
X12564524Y-15051571D01*
X12574048Y-15032524D01*
X12583571Y-15023000D01*
X12602619Y-15013476D01*
X12745476Y-15013476D02*
X12745476Y-15051571D01*
X12821667Y-15013476D02*
X12821667Y-15051571D01*
X13116905Y-15289667D02*
X13107381Y-15280143D01*
X13088333Y-15251571D01*
X13078809Y-15232524D01*
X13069286Y-15203952D01*
X13059762Y-15156333D01*
X13059762Y-15118238D01*
X13069286Y-15070619D01*
X13078809Y-15042048D01*
X13088333Y-15023000D01*
X13107381Y-14994428D01*
X13116905Y-14984905D01*
X13297857Y-15213476D02*
X13183571Y-15213476D01*
X13240714Y-15213476D02*
X13240714Y-15013476D01*
X13221667Y-15042048D01*
X13202619Y-15061095D01*
X13183571Y-15070619D01*
X13412143Y-15099190D02*
X13393095Y-15089667D01*
X13383571Y-15080143D01*
X13374048Y-15061095D01*
X13374048Y-15051571D01*
X13383571Y-15032524D01*
X13393095Y-15023000D01*
X13412143Y-15013476D01*
X13450238Y-15013476D01*
X13469286Y-15023000D01*
X13478809Y-15032524D01*
X13488333Y-15051571D01*
X13488333Y-15061095D01*
X13478809Y-15080143D01*
X13469286Y-15089667D01*
X13450238Y-15099190D01*
X13412143Y-15099190D01*
X13393095Y-15108714D01*
X13383571Y-15118238D01*
X13374048Y-15137286D01*
X13374048Y-15175381D01*
X13383571Y-15194428D01*
X13393095Y-15203952D01*
X13412143Y-15213476D01*
X13450238Y-15213476D01*
X13469286Y-15203952D01*
X13478809Y-15194428D01*
X13488333Y-15175381D01*
X13488333Y-15137286D01*
X13478809Y-15118238D01*
X13469286Y-15108714D01*
X13450238Y-15099190D01*
X13726428Y-15213476D02*
X13726428Y-15013476D01*
X13812143Y-15213476D02*
X13812143Y-15108714D01*
X13802619Y-15089667D01*
X13783571Y-15080143D01*
X13755000Y-15080143D01*
X13735952Y-15089667D01*
X13726428Y-15099190D01*
X13935952Y-15213476D02*
X13916905Y-15203952D01*
X13907381Y-15194428D01*
X13897857Y-15175381D01*
X13897857Y-15118238D01*
X13907381Y-15099190D01*
X13916905Y-15089667D01*
X13935952Y-15080143D01*
X13964524Y-15080143D01*
X13983571Y-15089667D01*
X13993095Y-15099190D01*
X14002619Y-15118238D01*
X14002619Y-15175381D01*
X13993095Y-15194428D01*
X13983571Y-15203952D01*
X13964524Y-15213476D01*
X13935952Y-15213476D01*
X14116905Y-15213476D02*
X14097857Y-15203952D01*
X14088333Y-15184905D01*
X14088333Y-15013476D01*
X14269286Y-15203952D02*
X14250238Y-15213476D01*
X14212143Y-15213476D01*
X14193095Y-15203952D01*
X14183571Y-15184905D01*
X14183571Y-15108714D01*
X14193095Y-15089667D01*
X14212143Y-15080143D01*
X14250238Y-15080143D01*
X14269286Y-15089667D01*
X14278809Y-15108714D01*
X14278809Y-15127762D01*
X14183571Y-15146809D01*
X14355000Y-15203952D02*
X14374048Y-15213476D01*
X14412143Y-15213476D01*
X14431190Y-15203952D01*
X14440714Y-15184905D01*
X14440714Y-15175381D01*
X14431190Y-15156333D01*
X14412143Y-15146809D01*
X14383571Y-15146809D01*
X14364524Y-15137286D01*
X14355000Y-15118238D01*
X14355000Y-15108714D01*
X14364524Y-15089667D01*
X14383571Y-15080143D01*
X14412143Y-15080143D01*
X14431190Y-15089667D01*
X14507381Y-15289667D02*
X14516905Y-15280143D01*
X14535952Y-15251571D01*
X14545476Y-15232524D01*
X14555000Y-15203952D01*
X14564524Y-15156333D01*
X14564524Y-15118238D01*
X14555000Y-15070619D01*
X14545476Y-15042048D01*
X14535952Y-15023000D01*
X14516905Y-14994428D01*
X14507381Y-14984905D01*
D15*
X9533285Y-15415284D02*
X9533285Y-15358715D01*
X9476716Y-15358715D01*
X9476716Y-15415284D01*
X9533285Y-15415284D01*
D11*
X9840714Y-15277476D02*
X9859762Y-15277476D01*
X9878810Y-15287000D01*
X9888333Y-15296524D01*
X9897857Y-15315571D01*
X9907381Y-15353667D01*
X9907381Y-15401286D01*
X9897857Y-15439381D01*
X9888333Y-15458428D01*
X9878810Y-15467952D01*
X9859762Y-15477476D01*
X9840714Y-15477476D01*
X9821667Y-15467952D01*
X9812143Y-15458428D01*
X9802619Y-15439381D01*
X9793095Y-15401286D01*
X9793095Y-15353667D01*
X9802619Y-15315571D01*
X9812143Y-15296524D01*
X9821667Y-15287000D01*
X9840714Y-15277476D01*
X9993095Y-15458428D02*
X10002619Y-15467952D01*
X9993095Y-15477476D01*
X9983571Y-15467952D01*
X9993095Y-15458428D01*
X9993095Y-15477476D01*
X10116905Y-15363190D02*
X10097857Y-15353667D01*
X10088333Y-15344143D01*
X10078810Y-15325095D01*
X10078810Y-15315571D01*
X10088333Y-15296524D01*
X10097857Y-15287000D01*
X10116905Y-15277476D01*
X10155000Y-15277476D01*
X10174048Y-15287000D01*
X10183571Y-15296524D01*
X10193095Y-15315571D01*
X10193095Y-15325095D01*
X10183571Y-15344143D01*
X10174048Y-15353667D01*
X10155000Y-15363190D01*
X10116905Y-15363190D01*
X10097857Y-15372714D01*
X10088333Y-15382238D01*
X10078810Y-15401286D01*
X10078810Y-15439381D01*
X10088333Y-15458428D01*
X10097857Y-15467952D01*
X10116905Y-15477476D01*
X10155000Y-15477476D01*
X10174048Y-15467952D01*
X10183571Y-15458428D01*
X10193095Y-15439381D01*
X10193095Y-15401286D01*
X10183571Y-15382238D01*
X10174048Y-15372714D01*
X10155000Y-15363190D01*
X10316905Y-15277476D02*
X10335952Y-15277476D01*
X10355000Y-15287000D01*
X10364524Y-15296524D01*
X10374048Y-15315571D01*
X10383571Y-15353667D01*
X10383571Y-15401286D01*
X10374048Y-15439381D01*
X10364524Y-15458428D01*
X10355000Y-15467952D01*
X10335952Y-15477476D01*
X10316905Y-15477476D01*
X10297857Y-15467952D01*
X10288333Y-15458428D01*
X10278810Y-15439381D01*
X10269286Y-15401286D01*
X10269286Y-15353667D01*
X10278810Y-15315571D01*
X10288333Y-15296524D01*
X10297857Y-15287000D01*
X10316905Y-15277476D01*
X10507381Y-15277476D02*
X10526429Y-15277476D01*
X10545476Y-15287000D01*
X10555000Y-15296524D01*
X10564524Y-15315571D01*
X10574048Y-15353667D01*
X10574048Y-15401286D01*
X10564524Y-15439381D01*
X10555000Y-15458428D01*
X10545476Y-15467952D01*
X10526429Y-15477476D01*
X10507381Y-15477476D01*
X10488333Y-15467952D01*
X10478810Y-15458428D01*
X10469286Y-15439381D01*
X10459762Y-15401286D01*
X10459762Y-15353667D01*
X10469286Y-15315571D01*
X10478810Y-15296524D01*
X10488333Y-15287000D01*
X10507381Y-15277476D01*
X10659762Y-15477476D02*
X10659762Y-15344143D01*
X10659762Y-15363190D02*
X10669286Y-15353667D01*
X10688333Y-15344143D01*
X10716905Y-15344143D01*
X10735952Y-15353667D01*
X10745476Y-15372714D01*
X10745476Y-15477476D01*
X10745476Y-15372714D02*
X10755000Y-15353667D01*
X10774048Y-15344143D01*
X10802619Y-15344143D01*
X10821667Y-15353667D01*
X10831190Y-15372714D01*
X10831190Y-15477476D01*
X10926429Y-15477476D02*
X10926429Y-15344143D01*
X10926429Y-15363190D02*
X10935952Y-15353667D01*
X10955000Y-15344143D01*
X10983571Y-15344143D01*
X11002619Y-15353667D01*
X11012143Y-15372714D01*
X11012143Y-15477476D01*
X11012143Y-15372714D02*
X11021667Y-15353667D01*
X11040714Y-15344143D01*
X11069286Y-15344143D01*
X11088333Y-15353667D01*
X11097857Y-15372714D01*
X11097857Y-15477476D01*
X11488333Y-15267952D02*
X11316905Y-15525095D01*
X11745476Y-15277476D02*
X11764524Y-15277476D01*
X11783571Y-15287000D01*
X11793095Y-15296524D01*
X11802619Y-15315571D01*
X11812143Y-15353667D01*
X11812143Y-15401286D01*
X11802619Y-15439381D01*
X11793095Y-15458428D01*
X11783571Y-15467952D01*
X11764524Y-15477476D01*
X11745476Y-15477476D01*
X11726428Y-15467952D01*
X11716905Y-15458428D01*
X11707381Y-15439381D01*
X11697857Y-15401286D01*
X11697857Y-15353667D01*
X11707381Y-15315571D01*
X11716905Y-15296524D01*
X11726428Y-15287000D01*
X11745476Y-15277476D01*
X11897857Y-15458428D02*
X11907381Y-15467952D01*
X11897857Y-15477476D01*
X11888333Y-15467952D01*
X11897857Y-15458428D01*
X11897857Y-15477476D01*
X12031190Y-15277476D02*
X12050238Y-15277476D01*
X12069286Y-15287000D01*
X12078809Y-15296524D01*
X12088333Y-15315571D01*
X12097857Y-15353667D01*
X12097857Y-15401286D01*
X12088333Y-15439381D01*
X12078809Y-15458428D01*
X12069286Y-15467952D01*
X12050238Y-15477476D01*
X12031190Y-15477476D01*
X12012143Y-15467952D01*
X12002619Y-15458428D01*
X11993095Y-15439381D01*
X11983571Y-15401286D01*
X11983571Y-15353667D01*
X11993095Y-15315571D01*
X12002619Y-15296524D01*
X12012143Y-15287000D01*
X12031190Y-15277476D01*
X12164524Y-15277476D02*
X12288333Y-15277476D01*
X12221667Y-15353667D01*
X12250238Y-15353667D01*
X12269286Y-15363190D01*
X12278809Y-15372714D01*
X12288333Y-15391762D01*
X12288333Y-15439381D01*
X12278809Y-15458428D01*
X12269286Y-15467952D01*
X12250238Y-15477476D01*
X12193095Y-15477476D01*
X12174048Y-15467952D01*
X12164524Y-15458428D01*
X12478809Y-15477476D02*
X12364524Y-15477476D01*
X12421667Y-15477476D02*
X12421667Y-15277476D01*
X12402619Y-15306048D01*
X12383571Y-15325095D01*
X12364524Y-15334619D01*
X12659762Y-15277476D02*
X12564524Y-15277476D01*
X12555000Y-15372714D01*
X12564524Y-15363190D01*
X12583571Y-15353667D01*
X12631190Y-15353667D01*
X12650238Y-15363190D01*
X12659762Y-15372714D01*
X12669286Y-15391762D01*
X12669286Y-15439381D01*
X12659762Y-15458428D01*
X12650238Y-15467952D01*
X12631190Y-15477476D01*
X12583571Y-15477476D01*
X12564524Y-15467952D01*
X12555000Y-15458428D01*
X12745476Y-15277476D02*
X12745476Y-15315571D01*
X12821667Y-15277476D02*
X12821667Y-15315571D01*
X13116905Y-15553667D02*
X13107381Y-15544143D01*
X13088333Y-15515571D01*
X13078809Y-15496524D01*
X13069286Y-15467952D01*
X13059762Y-15420333D01*
X13059762Y-15382238D01*
X13069286Y-15334619D01*
X13078809Y-15306048D01*
X13088333Y-15287000D01*
X13107381Y-15258428D01*
X13116905Y-15248905D01*
X13297857Y-15477476D02*
X13183571Y-15477476D01*
X13240714Y-15477476D02*
X13240714Y-15277476D01*
X13221667Y-15306048D01*
X13202619Y-15325095D01*
X13183571Y-15334619D01*
X13469286Y-15344143D02*
X13469286Y-15477476D01*
X13421667Y-15267952D02*
X13374048Y-15410809D01*
X13497857Y-15410809D01*
X13564524Y-15296524D02*
X13574048Y-15287000D01*
X13593095Y-15277476D01*
X13640714Y-15277476D01*
X13659762Y-15287000D01*
X13669286Y-15296524D01*
X13678809Y-15315571D01*
X13678809Y-15334619D01*
X13669286Y-15363190D01*
X13555000Y-15477476D01*
X13678809Y-15477476D01*
X13916905Y-15477476D02*
X13916905Y-15277476D01*
X14002619Y-15477476D02*
X14002619Y-15372714D01*
X13993095Y-15353667D01*
X13974048Y-15344143D01*
X13945476Y-15344143D01*
X13926428Y-15353667D01*
X13916905Y-15363190D01*
X14126428Y-15477476D02*
X14107381Y-15467952D01*
X14097857Y-15458428D01*
X14088333Y-15439381D01*
X14088333Y-15382238D01*
X14097857Y-15363190D01*
X14107381Y-15353667D01*
X14126428Y-15344143D01*
X14155000Y-15344143D01*
X14174048Y-15353667D01*
X14183571Y-15363190D01*
X14193095Y-15382238D01*
X14193095Y-15439381D01*
X14183571Y-15458428D01*
X14174048Y-15467952D01*
X14155000Y-15477476D01*
X14126428Y-15477476D01*
X14307381Y-15477476D02*
X14288333Y-15467952D01*
X14278809Y-15448905D01*
X14278809Y-15277476D01*
X14459762Y-15467952D02*
X14440714Y-15477476D01*
X14402619Y-15477476D01*
X14383571Y-15467952D01*
X14374048Y-15448905D01*
X14374048Y-15372714D01*
X14383571Y-15353667D01*
X14402619Y-15344143D01*
X14440714Y-15344143D01*
X14459762Y-15353667D01*
X14469286Y-15372714D01*
X14469286Y-15391762D01*
X14374048Y-15410809D01*
X14545476Y-15467952D02*
X14564524Y-15477476D01*
X14602619Y-15477476D01*
X14621667Y-15467952D01*
X14631190Y-15448905D01*
X14631190Y-15439381D01*
X14621667Y-15420333D01*
X14602619Y-15410809D01*
X14574048Y-15410809D01*
X14555000Y-15401286D01*
X14545476Y-15382238D01*
X14545476Y-15372714D01*
X14555000Y-15353667D01*
X14574048Y-15344143D01*
X14602619Y-15344143D01*
X14621667Y-15353667D01*
X14697857Y-15553667D02*
X14707381Y-15544143D01*
X14726428Y-15515571D01*
X14735952Y-15496524D01*
X14745476Y-15467952D01*
X14755000Y-15420333D01*
X14755000Y-15382238D01*
X14745476Y-15334619D01*
X14735952Y-15306048D01*
X14726428Y-15287000D01*
X14707381Y-15258428D01*
X14697857Y-15248905D01*
D10*
X9495000Y-15701000D02*
X9545000Y-15651000D01*
X9495000Y-15601000D01*
X9445000Y-15651000D01*
X9495000Y-15701000D01*
D11*
X9907381Y-15741476D02*
X9793095Y-15741476D01*
X9850238Y-15741476D02*
X9850238Y-15541476D01*
X9831190Y-15570048D01*
X9812143Y-15589095D01*
X9793095Y-15598619D01*
X9993095Y-15722428D02*
X10002619Y-15731952D01*
X9993095Y-15741476D01*
X9983571Y-15731952D01*
X9993095Y-15722428D01*
X9993095Y-15741476D01*
X10126429Y-15541476D02*
X10145476Y-15541476D01*
X10164524Y-15551000D01*
X10174048Y-15560524D01*
X10183571Y-15579571D01*
X10193095Y-15617667D01*
X10193095Y-15665286D01*
X10183571Y-15703381D01*
X10174048Y-15722428D01*
X10164524Y-15731952D01*
X10145476Y-15741476D01*
X10126429Y-15741476D01*
X10107381Y-15731952D01*
X10097857Y-15722428D01*
X10088333Y-15703381D01*
X10078810Y-15665286D01*
X10078810Y-15617667D01*
X10088333Y-15579571D01*
X10097857Y-15560524D01*
X10107381Y-15551000D01*
X10126429Y-15541476D01*
X10316905Y-15541476D02*
X10335952Y-15541476D01*
X10355000Y-15551000D01*
X10364524Y-15560524D01*
X10374048Y-15579571D01*
X10383571Y-15617667D01*
X10383571Y-15665286D01*
X10374048Y-15703381D01*
X10364524Y-15722428D01*
X10355000Y-15731952D01*
X10335952Y-15741476D01*
X10316905Y-15741476D01*
X10297857Y-15731952D01*
X10288333Y-15722428D01*
X10278810Y-15703381D01*
X10269286Y-15665286D01*
X10269286Y-15617667D01*
X10278810Y-15579571D01*
X10288333Y-15560524D01*
X10297857Y-15551000D01*
X10316905Y-15541476D01*
X10507381Y-15541476D02*
X10526429Y-15541476D01*
X10545476Y-15551000D01*
X10555000Y-15560524D01*
X10564524Y-15579571D01*
X10574048Y-15617667D01*
X10574048Y-15665286D01*
X10564524Y-15703381D01*
X10555000Y-15722428D01*
X10545476Y-15731952D01*
X10526429Y-15741476D01*
X10507381Y-15741476D01*
X10488333Y-15731952D01*
X10478810Y-15722428D01*
X10469286Y-15703381D01*
X10459762Y-15665286D01*
X10459762Y-15617667D01*
X10469286Y-15579571D01*
X10478810Y-15560524D01*
X10488333Y-15551000D01*
X10507381Y-15541476D01*
X10659762Y-15741476D02*
X10659762Y-15608143D01*
X10659762Y-15627190D02*
X10669286Y-15617667D01*
X10688333Y-15608143D01*
X10716905Y-15608143D01*
X10735952Y-15617667D01*
X10745476Y-15636714D01*
X10745476Y-15741476D01*
X10745476Y-15636714D02*
X10755000Y-15617667D01*
X10774048Y-15608143D01*
X10802619Y-15608143D01*
X10821667Y-15617667D01*
X10831190Y-15636714D01*
X10831190Y-15741476D01*
X10926429Y-15741476D02*
X10926429Y-15608143D01*
X10926429Y-15627190D02*
X10935952Y-15617667D01*
X10955000Y-15608143D01*
X10983571Y-15608143D01*
X11002619Y-15617667D01*
X11012143Y-15636714D01*
X11012143Y-15741476D01*
X11012143Y-15636714D02*
X11021667Y-15617667D01*
X11040714Y-15608143D01*
X11069286Y-15608143D01*
X11088333Y-15617667D01*
X11097857Y-15636714D01*
X11097857Y-15741476D01*
X11488333Y-15531952D02*
X11316905Y-15789095D01*
X11745476Y-15541476D02*
X11764524Y-15541476D01*
X11783571Y-15551000D01*
X11793095Y-15560524D01*
X11802619Y-15579571D01*
X11812143Y-15617667D01*
X11812143Y-15665286D01*
X11802619Y-15703381D01*
X11793095Y-15722428D01*
X11783571Y-15731952D01*
X11764524Y-15741476D01*
X11745476Y-15741476D01*
X11726428Y-15731952D01*
X11716905Y-15722428D01*
X11707381Y-15703381D01*
X11697857Y-15665286D01*
X11697857Y-15617667D01*
X11707381Y-15579571D01*
X11716905Y-15560524D01*
X11726428Y-15551000D01*
X11745476Y-15541476D01*
X11897857Y-15722428D02*
X11907381Y-15731952D01*
X11897857Y-15741476D01*
X11888333Y-15731952D01*
X11897857Y-15722428D01*
X11897857Y-15741476D01*
X12031190Y-15541476D02*
X12050238Y-15541476D01*
X12069286Y-15551000D01*
X12078809Y-15560524D01*
X12088333Y-15579571D01*
X12097857Y-15617667D01*
X12097857Y-15665286D01*
X12088333Y-15703381D01*
X12078809Y-15722428D01*
X12069286Y-15731952D01*
X12050238Y-15741476D01*
X12031190Y-15741476D01*
X12012143Y-15731952D01*
X12002619Y-15722428D01*
X11993095Y-15703381D01*
X11983571Y-15665286D01*
X11983571Y-15617667D01*
X11993095Y-15579571D01*
X12002619Y-15560524D01*
X12012143Y-15551000D01*
X12031190Y-15541476D01*
X12164524Y-15541476D02*
X12288333Y-15541476D01*
X12221667Y-15617667D01*
X12250238Y-15617667D01*
X12269286Y-15627190D01*
X12278809Y-15636714D01*
X12288333Y-15655762D01*
X12288333Y-15703381D01*
X12278809Y-15722428D01*
X12269286Y-15731952D01*
X12250238Y-15741476D01*
X12193095Y-15741476D01*
X12174048Y-15731952D01*
X12164524Y-15722428D01*
X12383571Y-15741476D02*
X12421667Y-15741476D01*
X12440714Y-15731952D01*
X12450238Y-15722428D01*
X12469286Y-15693857D01*
X12478809Y-15655762D01*
X12478809Y-15579571D01*
X12469286Y-15560524D01*
X12459762Y-15551000D01*
X12440714Y-15541476D01*
X12402619Y-15541476D01*
X12383571Y-15551000D01*
X12374048Y-15560524D01*
X12364524Y-15579571D01*
X12364524Y-15627190D01*
X12374048Y-15646238D01*
X12383571Y-15655762D01*
X12402619Y-15665286D01*
X12440714Y-15665286D01*
X12459762Y-15655762D01*
X12469286Y-15646238D01*
X12478809Y-15627190D01*
X12650238Y-15608143D02*
X12650238Y-15741476D01*
X12602619Y-15531952D02*
X12555000Y-15674809D01*
X12678809Y-15674809D01*
X12745476Y-15541476D02*
X12745476Y-15579571D01*
X12821667Y-15541476D02*
X12821667Y-15579571D01*
X13116905Y-15817667D02*
X13107381Y-15808143D01*
X13088333Y-15779571D01*
X13078809Y-15760524D01*
X13069286Y-15731952D01*
X13059762Y-15684333D01*
X13059762Y-15646238D01*
X13069286Y-15598619D01*
X13078809Y-15570048D01*
X13088333Y-15551000D01*
X13107381Y-15522428D01*
X13116905Y-15512905D01*
X13174048Y-15541476D02*
X13297857Y-15541476D01*
X13231190Y-15617667D01*
X13259762Y-15617667D01*
X13278809Y-15627190D01*
X13288333Y-15636714D01*
X13297857Y-15655762D01*
X13297857Y-15703381D01*
X13288333Y-15722428D01*
X13278809Y-15731952D01*
X13259762Y-15741476D01*
X13202619Y-15741476D01*
X13183571Y-15731952D01*
X13174048Y-15722428D01*
X13469286Y-15541476D02*
X13431190Y-15541476D01*
X13412143Y-15551000D01*
X13402619Y-15560524D01*
X13383571Y-15589095D01*
X13374048Y-15627190D01*
X13374048Y-15703381D01*
X13383571Y-15722428D01*
X13393095Y-15731952D01*
X13412143Y-15741476D01*
X13450238Y-15741476D01*
X13469286Y-15731952D01*
X13478809Y-15722428D01*
X13488333Y-15703381D01*
X13488333Y-15655762D01*
X13478809Y-15636714D01*
X13469286Y-15627190D01*
X13450238Y-15617667D01*
X13412143Y-15617667D01*
X13393095Y-15627190D01*
X13383571Y-15636714D01*
X13374048Y-15655762D01*
X13726428Y-15741476D02*
X13726428Y-15541476D01*
X13812143Y-15741476D02*
X13812143Y-15636714D01*
X13802619Y-15617667D01*
X13783571Y-15608143D01*
X13755000Y-15608143D01*
X13735952Y-15617667D01*
X13726428Y-15627190D01*
X13935952Y-15741476D02*
X13916905Y-15731952D01*
X13907381Y-15722428D01*
X13897857Y-15703381D01*
X13897857Y-15646238D01*
X13907381Y-15627190D01*
X13916905Y-15617667D01*
X13935952Y-15608143D01*
X13964524Y-15608143D01*
X13983571Y-15617667D01*
X13993095Y-15627190D01*
X14002619Y-15646238D01*
X14002619Y-15703381D01*
X13993095Y-15722428D01*
X13983571Y-15731952D01*
X13964524Y-15741476D01*
X13935952Y-15741476D01*
X14116905Y-15741476D02*
X14097857Y-15731952D01*
X14088333Y-15712905D01*
X14088333Y-15541476D01*
X14269286Y-15731952D02*
X14250238Y-15741476D01*
X14212143Y-15741476D01*
X14193095Y-15731952D01*
X14183571Y-15712905D01*
X14183571Y-15636714D01*
X14193095Y-15617667D01*
X14212143Y-15608143D01*
X14250238Y-15608143D01*
X14269286Y-15617667D01*
X14278809Y-15636714D01*
X14278809Y-15655762D01*
X14183571Y-15674809D01*
X14355000Y-15731952D02*
X14374048Y-15741476D01*
X14412143Y-15741476D01*
X14431190Y-15731952D01*
X14440714Y-15712905D01*
X14440714Y-15703381D01*
X14431190Y-15684333D01*
X14412143Y-15674809D01*
X14383571Y-15674809D01*
X14364524Y-15665286D01*
X14355000Y-15646238D01*
X14355000Y-15636714D01*
X14364524Y-15617667D01*
X14383571Y-15608143D01*
X14412143Y-15608143D01*
X14431190Y-15617667D01*
X14678809Y-15665286D02*
X14831190Y-15665286D01*
X14755000Y-15741476D02*
X14755000Y-15589095D01*
X15088333Y-15741476D02*
X15126428Y-15741476D01*
X15145476Y-15731952D01*
X15155000Y-15722428D01*
X15174048Y-15693857D01*
X15183571Y-15655762D01*
X15183571Y-15579571D01*
X15174048Y-15560524D01*
X15164524Y-15551000D01*
X15145476Y-15541476D01*
X15107381Y-15541476D01*
X15088333Y-15551000D01*
X15078809Y-15560524D01*
X15069286Y-15579571D01*
X15069286Y-15627190D01*
X15078809Y-15646238D01*
X15088333Y-15655762D01*
X15107381Y-15665286D01*
X15145476Y-15665286D01*
X15164524Y-15655762D01*
X15174048Y-15646238D01*
X15183571Y-15627190D01*
X15412143Y-15731952D02*
X15431190Y-15741476D01*
X15469286Y-15741476D01*
X15488333Y-15731952D01*
X15497857Y-15712905D01*
X15497857Y-15703381D01*
X15488333Y-15684333D01*
X15469286Y-15674809D01*
X15440714Y-15674809D01*
X15421667Y-15665286D01*
X15412143Y-15646238D01*
X15412143Y-15636714D01*
X15421667Y-15617667D01*
X15440714Y-15608143D01*
X15469286Y-15608143D01*
X15488333Y-15617667D01*
X15612143Y-15741476D02*
X15593095Y-15731952D01*
X15583571Y-15712905D01*
X15583571Y-15541476D01*
X15716905Y-15741476D02*
X15697857Y-15731952D01*
X15688333Y-15722428D01*
X15678809Y-15703381D01*
X15678809Y-15646238D01*
X15688333Y-15627190D01*
X15697857Y-15617667D01*
X15716905Y-15608143D01*
X15745476Y-15608143D01*
X15764524Y-15617667D01*
X15774048Y-15627190D01*
X15783571Y-15646238D01*
X15783571Y-15703381D01*
X15774048Y-15722428D01*
X15764524Y-15731952D01*
X15745476Y-15741476D01*
X15716905Y-15741476D01*
X15840714Y-15608143D02*
X15916905Y-15608143D01*
X15869286Y-15541476D02*
X15869286Y-15712905D01*
X15878809Y-15731952D01*
X15897857Y-15741476D01*
X15916905Y-15741476D01*
X15974048Y-15731952D02*
X15993095Y-15741476D01*
X16031190Y-15741476D01*
X16050238Y-15731952D01*
X16059762Y-15712905D01*
X16059762Y-15703381D01*
X16050238Y-15684333D01*
X16031190Y-15674809D01*
X16002619Y-15674809D01*
X15983571Y-15665286D01*
X15974048Y-15646238D01*
X15974048Y-15636714D01*
X15983571Y-15617667D01*
X16002619Y-15608143D01*
X16031190Y-15608143D01*
X16050238Y-15617667D01*
X16126428Y-15817667D02*
X16135952Y-15808143D01*
X16155000Y-15779571D01*
X16164524Y-15760524D01*
X16174048Y-15731952D01*
X16183571Y-15684333D01*
X16183571Y-15646238D01*
X16174048Y-15598619D01*
X16164524Y-15570048D01*
X16155000Y-15551000D01*
X16135952Y-15522428D01*
X16126428Y-15512905D01*
D16*
X9443000Y-15864000D02*
X9545000Y-15966000D01*
X9545000Y-15864000D02*
X9443000Y-15966000D01*
X9545000Y-15915000D02*
G75*
G03*
X9545000Y-15915000I-51000J0D01*
G01*
D11*
X9907381Y-16005476D02*
X9793095Y-16005476D01*
X9850238Y-16005476D02*
X9850238Y-15805476D01*
X9831190Y-15834048D01*
X9812143Y-15853095D01*
X9793095Y-15862619D01*
X9993095Y-15986428D02*
X10002619Y-15995952D01*
X9993095Y-16005476D01*
X9983571Y-15995952D01*
X9993095Y-15986428D01*
X9993095Y-16005476D01*
X10126429Y-15805476D02*
X10145476Y-15805476D01*
X10164524Y-15815000D01*
X10174048Y-15824524D01*
X10183571Y-15843571D01*
X10193095Y-15881667D01*
X10193095Y-15929286D01*
X10183571Y-15967381D01*
X10174048Y-15986428D01*
X10164524Y-15995952D01*
X10145476Y-16005476D01*
X10126429Y-16005476D01*
X10107381Y-15995952D01*
X10097857Y-15986428D01*
X10088333Y-15967381D01*
X10078810Y-15929286D01*
X10078810Y-15881667D01*
X10088333Y-15843571D01*
X10097857Y-15824524D01*
X10107381Y-15815000D01*
X10126429Y-15805476D01*
X10269286Y-15824524D02*
X10278810Y-15815000D01*
X10297857Y-15805476D01*
X10345476Y-15805476D01*
X10364524Y-15815000D01*
X10374048Y-15824524D01*
X10383571Y-15843571D01*
X10383571Y-15862619D01*
X10374048Y-15891190D01*
X10259762Y-16005476D01*
X10383571Y-16005476D01*
X10507381Y-15805476D02*
X10526429Y-15805476D01*
X10545476Y-15815000D01*
X10555000Y-15824524D01*
X10564524Y-15843571D01*
X10574048Y-15881667D01*
X10574048Y-15929286D01*
X10564524Y-15967381D01*
X10555000Y-15986428D01*
X10545476Y-15995952D01*
X10526429Y-16005476D01*
X10507381Y-16005476D01*
X10488333Y-15995952D01*
X10478810Y-15986428D01*
X10469286Y-15967381D01*
X10459762Y-15929286D01*
X10459762Y-15881667D01*
X10469286Y-15843571D01*
X10478810Y-15824524D01*
X10488333Y-15815000D01*
X10507381Y-15805476D01*
X10659762Y-16005476D02*
X10659762Y-15872143D01*
X10659762Y-15891190D02*
X10669286Y-15881667D01*
X10688333Y-15872143D01*
X10716905Y-15872143D01*
X10735952Y-15881667D01*
X10745476Y-15900714D01*
X10745476Y-16005476D01*
X10745476Y-15900714D02*
X10755000Y-15881667D01*
X10774048Y-15872143D01*
X10802619Y-15872143D01*
X10821667Y-15881667D01*
X10831190Y-15900714D01*
X10831190Y-16005476D01*
X10926429Y-16005476D02*
X10926429Y-15872143D01*
X10926429Y-15891190D02*
X10935952Y-15881667D01*
X10955000Y-15872143D01*
X10983571Y-15872143D01*
X11002619Y-15881667D01*
X11012143Y-15900714D01*
X11012143Y-16005476D01*
X11012143Y-15900714D02*
X11021667Y-15881667D01*
X11040714Y-15872143D01*
X11069286Y-15872143D01*
X11088333Y-15881667D01*
X11097857Y-15900714D01*
X11097857Y-16005476D01*
X11488333Y-15795952D02*
X11316905Y-16053095D01*
X11745476Y-15805476D02*
X11764524Y-15805476D01*
X11783571Y-15815000D01*
X11793095Y-15824524D01*
X11802619Y-15843571D01*
X11812143Y-15881667D01*
X11812143Y-15929286D01*
X11802619Y-15967381D01*
X11793095Y-15986428D01*
X11783571Y-15995952D01*
X11764524Y-16005476D01*
X11745476Y-16005476D01*
X11726428Y-15995952D01*
X11716905Y-15986428D01*
X11707381Y-15967381D01*
X11697857Y-15929286D01*
X11697857Y-15881667D01*
X11707381Y-15843571D01*
X11716905Y-15824524D01*
X11726428Y-15815000D01*
X11745476Y-15805476D01*
X11897857Y-15986428D02*
X11907381Y-15995952D01*
X11897857Y-16005476D01*
X11888333Y-15995952D01*
X11897857Y-15986428D01*
X11897857Y-16005476D01*
X12031190Y-15805476D02*
X12050238Y-15805476D01*
X12069286Y-15815000D01*
X12078809Y-15824524D01*
X12088333Y-15843571D01*
X12097857Y-15881667D01*
X12097857Y-15929286D01*
X12088333Y-15967381D01*
X12078809Y-15986428D01*
X12069286Y-15995952D01*
X12050238Y-16005476D01*
X12031190Y-16005476D01*
X12012143Y-15995952D01*
X12002619Y-15986428D01*
X11993095Y-15967381D01*
X11983571Y-15929286D01*
X11983571Y-15881667D01*
X11993095Y-15843571D01*
X12002619Y-15824524D01*
X12012143Y-15815000D01*
X12031190Y-15805476D01*
X12269286Y-15872143D02*
X12269286Y-16005476D01*
X12221667Y-15795952D02*
X12174048Y-15938809D01*
X12297857Y-15938809D01*
X12412143Y-15805476D02*
X12431190Y-15805476D01*
X12450238Y-15815000D01*
X12459762Y-15824524D01*
X12469286Y-15843571D01*
X12478809Y-15881667D01*
X12478809Y-15929286D01*
X12469286Y-15967381D01*
X12459762Y-15986428D01*
X12450238Y-15995952D01*
X12431190Y-16005476D01*
X12412143Y-16005476D01*
X12393095Y-15995952D01*
X12383571Y-15986428D01*
X12374048Y-15967381D01*
X12364524Y-15929286D01*
X12364524Y-15881667D01*
X12374048Y-15843571D01*
X12383571Y-15824524D01*
X12393095Y-15815000D01*
X12412143Y-15805476D01*
X12555000Y-15824524D02*
X12564524Y-15815000D01*
X12583571Y-15805476D01*
X12631190Y-15805476D01*
X12650238Y-15815000D01*
X12659762Y-15824524D01*
X12669286Y-15843571D01*
X12669286Y-15862619D01*
X12659762Y-15891190D01*
X12545476Y-16005476D01*
X12669286Y-16005476D01*
X12745476Y-15805476D02*
X12745476Y-15843571D01*
X12821667Y-15805476D02*
X12821667Y-15843571D01*
X13116905Y-16081667D02*
X13107381Y-16072143D01*
X13088333Y-16043571D01*
X13078809Y-16024524D01*
X13069286Y-15995952D01*
X13059762Y-15948333D01*
X13059762Y-15910238D01*
X13069286Y-15862619D01*
X13078809Y-15834048D01*
X13088333Y-15815000D01*
X13107381Y-15786428D01*
X13116905Y-15776905D01*
X13278809Y-15872143D02*
X13278809Y-16005476D01*
X13231190Y-15795952D02*
X13183571Y-15938809D01*
X13307381Y-15938809D01*
X13364524Y-15805476D02*
X13488333Y-15805476D01*
X13421667Y-15881667D01*
X13450238Y-15881667D01*
X13469286Y-15891190D01*
X13478809Y-15900714D01*
X13488333Y-15919762D01*
X13488333Y-15967381D01*
X13478809Y-15986428D01*
X13469286Y-15995952D01*
X13450238Y-16005476D01*
X13393095Y-16005476D01*
X13374048Y-15995952D01*
X13364524Y-15986428D01*
X13726428Y-16005476D02*
X13726428Y-15805476D01*
X13812143Y-16005476D02*
X13812143Y-15900714D01*
X13802619Y-15881667D01*
X13783571Y-15872143D01*
X13755000Y-15872143D01*
X13735952Y-15881667D01*
X13726428Y-15891190D01*
X13935952Y-16005476D02*
X13916905Y-15995952D01*
X13907381Y-15986428D01*
X13897857Y-15967381D01*
X13897857Y-15910238D01*
X13907381Y-15891190D01*
X13916905Y-15881667D01*
X13935952Y-15872143D01*
X13964524Y-15872143D01*
X13983571Y-15881667D01*
X13993095Y-15891190D01*
X14002619Y-15910238D01*
X14002619Y-15967381D01*
X13993095Y-15986428D01*
X13983571Y-15995952D01*
X13964524Y-16005476D01*
X13935952Y-16005476D01*
X14116905Y-16005476D02*
X14097857Y-15995952D01*
X14088333Y-15976905D01*
X14088333Y-15805476D01*
X14269286Y-15995952D02*
X14250238Y-16005476D01*
X14212143Y-16005476D01*
X14193095Y-15995952D01*
X14183571Y-15976905D01*
X14183571Y-15900714D01*
X14193095Y-15881667D01*
X14212143Y-15872143D01*
X14250238Y-15872143D01*
X14269286Y-15881667D01*
X14278809Y-15900714D01*
X14278809Y-15919762D01*
X14183571Y-15938809D01*
X14355000Y-15995952D02*
X14374048Y-16005476D01*
X14412143Y-16005476D01*
X14431190Y-15995952D01*
X14440714Y-15976905D01*
X14440714Y-15967381D01*
X14431190Y-15948333D01*
X14412143Y-15938809D01*
X14383571Y-15938809D01*
X14364524Y-15929286D01*
X14355000Y-15910238D01*
X14355000Y-15900714D01*
X14364524Y-15881667D01*
X14383571Y-15872143D01*
X14412143Y-15872143D01*
X14431190Y-15881667D01*
X14507381Y-16081667D02*
X14516905Y-16072143D01*
X14535952Y-16043571D01*
X14545476Y-16024524D01*
X14555000Y-15995952D01*
X14564524Y-15948333D01*
X14564524Y-15910238D01*
X14555000Y-15862619D01*
X14545476Y-15834048D01*
X14535952Y-15815000D01*
X14516905Y-15786428D01*
X14507381Y-15776905D01*
D17*
X9435000Y-16124000D02*
X9545000Y-16234000D01*
X9545000Y-16124000D02*
X9435000Y-16234000D01*
X9490000Y-16124000D02*
X9490000Y-16234000D01*
X9435000Y-16179000D02*
X9545000Y-16179000D01*
D11*
X9907381Y-16269476D02*
X9793095Y-16269476D01*
X9850238Y-16269476D02*
X9850238Y-16069476D01*
X9831190Y-16098048D01*
X9812143Y-16117095D01*
X9793095Y-16126619D01*
X9993095Y-16250428D02*
X10002619Y-16259952D01*
X9993095Y-16269476D01*
X9983571Y-16259952D01*
X9993095Y-16250428D01*
X9993095Y-16269476D01*
X10193095Y-16269476D02*
X10078810Y-16269476D01*
X10135952Y-16269476D02*
X10135952Y-16069476D01*
X10116905Y-16098048D01*
X10097857Y-16117095D01*
X10078810Y-16126619D01*
X10316905Y-16069476D02*
X10335952Y-16069476D01*
X10355000Y-16079000D01*
X10364524Y-16088524D01*
X10374048Y-16107571D01*
X10383571Y-16145667D01*
X10383571Y-16193286D01*
X10374048Y-16231381D01*
X10364524Y-16250428D01*
X10355000Y-16259952D01*
X10335952Y-16269476D01*
X10316905Y-16269476D01*
X10297857Y-16259952D01*
X10288333Y-16250428D01*
X10278810Y-16231381D01*
X10269286Y-16193286D01*
X10269286Y-16145667D01*
X10278810Y-16107571D01*
X10288333Y-16088524D01*
X10297857Y-16079000D01*
X10316905Y-16069476D01*
X10507381Y-16069476D02*
X10526429Y-16069476D01*
X10545476Y-16079000D01*
X10555000Y-16088524D01*
X10564524Y-16107571D01*
X10574048Y-16145667D01*
X10574048Y-16193286D01*
X10564524Y-16231381D01*
X10555000Y-16250428D01*
X10545476Y-16259952D01*
X10526429Y-16269476D01*
X10507381Y-16269476D01*
X10488333Y-16259952D01*
X10478810Y-16250428D01*
X10469286Y-16231381D01*
X10459762Y-16193286D01*
X10459762Y-16145667D01*
X10469286Y-16107571D01*
X10478810Y-16088524D01*
X10488333Y-16079000D01*
X10507381Y-16069476D01*
X10659762Y-16269476D02*
X10659762Y-16136143D01*
X10659762Y-16155190D02*
X10669286Y-16145667D01*
X10688333Y-16136143D01*
X10716905Y-16136143D01*
X10735952Y-16145667D01*
X10745476Y-16164714D01*
X10745476Y-16269476D01*
X10745476Y-16164714D02*
X10755000Y-16145667D01*
X10774048Y-16136143D01*
X10802619Y-16136143D01*
X10821667Y-16145667D01*
X10831190Y-16164714D01*
X10831190Y-16269476D01*
X10926429Y-16269476D02*
X10926429Y-16136143D01*
X10926429Y-16155190D02*
X10935952Y-16145667D01*
X10955000Y-16136143D01*
X10983571Y-16136143D01*
X11002619Y-16145667D01*
X11012143Y-16164714D01*
X11012143Y-16269476D01*
X11012143Y-16164714D02*
X11021667Y-16145667D01*
X11040714Y-16136143D01*
X11069286Y-16136143D01*
X11088333Y-16145667D01*
X11097857Y-16164714D01*
X11097857Y-16269476D01*
X11488333Y-16059952D02*
X11316905Y-16317095D01*
X11745476Y-16069476D02*
X11764524Y-16069476D01*
X11783571Y-16079000D01*
X11793095Y-16088524D01*
X11802619Y-16107571D01*
X11812143Y-16145667D01*
X11812143Y-16193286D01*
X11802619Y-16231381D01*
X11793095Y-16250428D01*
X11783571Y-16259952D01*
X11764524Y-16269476D01*
X11745476Y-16269476D01*
X11726428Y-16259952D01*
X11716905Y-16250428D01*
X11707381Y-16231381D01*
X11697857Y-16193286D01*
X11697857Y-16145667D01*
X11707381Y-16107571D01*
X11716905Y-16088524D01*
X11726428Y-16079000D01*
X11745476Y-16069476D01*
X11897857Y-16250428D02*
X11907381Y-16259952D01*
X11897857Y-16269476D01*
X11888333Y-16259952D01*
X11897857Y-16250428D01*
X11897857Y-16269476D01*
X12031190Y-16069476D02*
X12050238Y-16069476D01*
X12069286Y-16079000D01*
X12078809Y-16088524D01*
X12088333Y-16107571D01*
X12097857Y-16145667D01*
X12097857Y-16193286D01*
X12088333Y-16231381D01*
X12078809Y-16250428D01*
X12069286Y-16259952D01*
X12050238Y-16269476D01*
X12031190Y-16269476D01*
X12012143Y-16259952D01*
X12002619Y-16250428D01*
X11993095Y-16231381D01*
X11983571Y-16193286D01*
X11983571Y-16145667D01*
X11993095Y-16107571D01*
X12002619Y-16088524D01*
X12012143Y-16079000D01*
X12031190Y-16069476D01*
X12269286Y-16136143D02*
X12269286Y-16269476D01*
X12221667Y-16059952D02*
X12174048Y-16202809D01*
X12297857Y-16202809D01*
X12355000Y-16069476D02*
X12478809Y-16069476D01*
X12412143Y-16145667D01*
X12440714Y-16145667D01*
X12459762Y-16155190D01*
X12469286Y-16164714D01*
X12478809Y-16183762D01*
X12478809Y-16231381D01*
X12469286Y-16250428D01*
X12459762Y-16259952D01*
X12440714Y-16269476D01*
X12383571Y-16269476D01*
X12364524Y-16259952D01*
X12355000Y-16250428D01*
X12545476Y-16069476D02*
X12669286Y-16069476D01*
X12602619Y-16145667D01*
X12631190Y-16145667D01*
X12650238Y-16155190D01*
X12659762Y-16164714D01*
X12669286Y-16183762D01*
X12669286Y-16231381D01*
X12659762Y-16250428D01*
X12650238Y-16259952D01*
X12631190Y-16269476D01*
X12574048Y-16269476D01*
X12555000Y-16259952D01*
X12545476Y-16250428D01*
X12745476Y-16069476D02*
X12745476Y-16107571D01*
X12821667Y-16069476D02*
X12821667Y-16107571D01*
X13116905Y-16345667D02*
X13107381Y-16336143D01*
X13088333Y-16307571D01*
X13078809Y-16288524D01*
X13069286Y-16259952D01*
X13059762Y-16212333D01*
X13059762Y-16174238D01*
X13069286Y-16126619D01*
X13078809Y-16098048D01*
X13088333Y-16079000D01*
X13107381Y-16050428D01*
X13116905Y-16040905D01*
X13183571Y-16088524D02*
X13193095Y-16079000D01*
X13212143Y-16069476D01*
X13259762Y-16069476D01*
X13278809Y-16079000D01*
X13288333Y-16088524D01*
X13297857Y-16107571D01*
X13297857Y-16126619D01*
X13288333Y-16155190D01*
X13174048Y-16269476D01*
X13297857Y-16269476D01*
X13488333Y-16269476D02*
X13374048Y-16269476D01*
X13431190Y-16269476D02*
X13431190Y-16069476D01*
X13412143Y-16098048D01*
X13393095Y-16117095D01*
X13374048Y-16126619D01*
X13726428Y-16269476D02*
X13726428Y-16069476D01*
X13812143Y-16269476D02*
X13812143Y-16164714D01*
X13802619Y-16145667D01*
X13783571Y-16136143D01*
X13755000Y-16136143D01*
X13735952Y-16145667D01*
X13726428Y-16155190D01*
X13935952Y-16269476D02*
X13916905Y-16259952D01*
X13907381Y-16250428D01*
X13897857Y-16231381D01*
X13897857Y-16174238D01*
X13907381Y-16155190D01*
X13916905Y-16145667D01*
X13935952Y-16136143D01*
X13964524Y-16136143D01*
X13983571Y-16145667D01*
X13993095Y-16155190D01*
X14002619Y-16174238D01*
X14002619Y-16231381D01*
X13993095Y-16250428D01*
X13983571Y-16259952D01*
X13964524Y-16269476D01*
X13935952Y-16269476D01*
X14116905Y-16269476D02*
X14097857Y-16259952D01*
X14088333Y-16240905D01*
X14088333Y-16069476D01*
X14269286Y-16259952D02*
X14250238Y-16269476D01*
X14212143Y-16269476D01*
X14193095Y-16259952D01*
X14183571Y-16240905D01*
X14183571Y-16164714D01*
X14193095Y-16145667D01*
X14212143Y-16136143D01*
X14250238Y-16136143D01*
X14269286Y-16145667D01*
X14278809Y-16164714D01*
X14278809Y-16183762D01*
X14183571Y-16202809D01*
X14355000Y-16259952D02*
X14374048Y-16269476D01*
X14412143Y-16269476D01*
X14431190Y-16259952D01*
X14440714Y-16240905D01*
X14440714Y-16231381D01*
X14431190Y-16212333D01*
X14412143Y-16202809D01*
X14383571Y-16202809D01*
X14364524Y-16193286D01*
X14355000Y-16174238D01*
X14355000Y-16164714D01*
X14364524Y-16145667D01*
X14383571Y-16136143D01*
X14412143Y-16136143D01*
X14431190Y-16145667D01*
X14507381Y-16345667D02*
X14516905Y-16336143D01*
X14535952Y-16307571D01*
X14545476Y-16288524D01*
X14555000Y-16259952D01*
X14564524Y-16212333D01*
X14564524Y-16174238D01*
X14555000Y-16126619D01*
X14545476Y-16098048D01*
X14535952Y-16079000D01*
X14516905Y-16050428D01*
X14507381Y-16040905D01*
D18*
X9405000Y-16373000D02*
X9545000Y-16513000D01*
X9545000Y-16373000D02*
X9405000Y-16513000D01*
X9524498Y-16492498D02*
X9524498Y-16393502D01*
X9425502Y-16393502D01*
X9425502Y-16492498D01*
X9524498Y-16492498D01*
D11*
X9907381Y-16533476D02*
X9793095Y-16533476D01*
X9850238Y-16533476D02*
X9850238Y-16333476D01*
X9831190Y-16362048D01*
X9812143Y-16381095D01*
X9793095Y-16390619D01*
X9993095Y-16514428D02*
X10002619Y-16523952D01*
X9993095Y-16533476D01*
X9983571Y-16523952D01*
X9993095Y-16514428D01*
X9993095Y-16533476D01*
X10174048Y-16400143D02*
X10174048Y-16533476D01*
X10126429Y-16323952D02*
X10078810Y-16466809D01*
X10202619Y-16466809D01*
X10316905Y-16333476D02*
X10335952Y-16333476D01*
X10355000Y-16343000D01*
X10364524Y-16352524D01*
X10374048Y-16371571D01*
X10383571Y-16409667D01*
X10383571Y-16457286D01*
X10374048Y-16495381D01*
X10364524Y-16514428D01*
X10355000Y-16523952D01*
X10335952Y-16533476D01*
X10316905Y-16533476D01*
X10297857Y-16523952D01*
X10288333Y-16514428D01*
X10278810Y-16495381D01*
X10269286Y-16457286D01*
X10269286Y-16409667D01*
X10278810Y-16371571D01*
X10288333Y-16352524D01*
X10297857Y-16343000D01*
X10316905Y-16333476D01*
X10507381Y-16333476D02*
X10526429Y-16333476D01*
X10545476Y-16343000D01*
X10555000Y-16352524D01*
X10564524Y-16371571D01*
X10574048Y-16409667D01*
X10574048Y-16457286D01*
X10564524Y-16495381D01*
X10555000Y-16514428D01*
X10545476Y-16523952D01*
X10526429Y-16533476D01*
X10507381Y-16533476D01*
X10488333Y-16523952D01*
X10478810Y-16514428D01*
X10469286Y-16495381D01*
X10459762Y-16457286D01*
X10459762Y-16409667D01*
X10469286Y-16371571D01*
X10478810Y-16352524D01*
X10488333Y-16343000D01*
X10507381Y-16333476D01*
X10659762Y-16533476D02*
X10659762Y-16400143D01*
X10659762Y-16419190D02*
X10669286Y-16409667D01*
X10688333Y-16400143D01*
X10716905Y-16400143D01*
X10735952Y-16409667D01*
X10745476Y-16428714D01*
X10745476Y-16533476D01*
X10745476Y-16428714D02*
X10755000Y-16409667D01*
X10774048Y-16400143D01*
X10802619Y-16400143D01*
X10821667Y-16409667D01*
X10831190Y-16428714D01*
X10831190Y-16533476D01*
X10926429Y-16533476D02*
X10926429Y-16400143D01*
X10926429Y-16419190D02*
X10935952Y-16409667D01*
X10955000Y-16400143D01*
X10983571Y-16400143D01*
X11002619Y-16409667D01*
X11012143Y-16428714D01*
X11012143Y-16533476D01*
X11012143Y-16428714D02*
X11021667Y-16409667D01*
X11040714Y-16400143D01*
X11069286Y-16400143D01*
X11088333Y-16409667D01*
X11097857Y-16428714D01*
X11097857Y-16533476D01*
X11488333Y-16323952D02*
X11316905Y-16581095D01*
X11745476Y-16333476D02*
X11764524Y-16333476D01*
X11783571Y-16343000D01*
X11793095Y-16352524D01*
X11802619Y-16371571D01*
X11812143Y-16409667D01*
X11812143Y-16457286D01*
X11802619Y-16495381D01*
X11793095Y-16514428D01*
X11783571Y-16523952D01*
X11764524Y-16533476D01*
X11745476Y-16533476D01*
X11726428Y-16523952D01*
X11716905Y-16514428D01*
X11707381Y-16495381D01*
X11697857Y-16457286D01*
X11697857Y-16409667D01*
X11707381Y-16371571D01*
X11716905Y-16352524D01*
X11726428Y-16343000D01*
X11745476Y-16333476D01*
X11897857Y-16514428D02*
X11907381Y-16523952D01*
X11897857Y-16533476D01*
X11888333Y-16523952D01*
X11897857Y-16514428D01*
X11897857Y-16533476D01*
X12031190Y-16333476D02*
X12050238Y-16333476D01*
X12069286Y-16343000D01*
X12078809Y-16352524D01*
X12088333Y-16371571D01*
X12097857Y-16409667D01*
X12097857Y-16457286D01*
X12088333Y-16495381D01*
X12078809Y-16514428D01*
X12069286Y-16523952D01*
X12050238Y-16533476D01*
X12031190Y-16533476D01*
X12012143Y-16523952D01*
X12002619Y-16514428D01*
X11993095Y-16495381D01*
X11983571Y-16457286D01*
X11983571Y-16409667D01*
X11993095Y-16371571D01*
X12002619Y-16352524D01*
X12012143Y-16343000D01*
X12031190Y-16333476D01*
X12278809Y-16333476D02*
X12183571Y-16333476D01*
X12174048Y-16428714D01*
X12183571Y-16419190D01*
X12202619Y-16409667D01*
X12250238Y-16409667D01*
X12269286Y-16419190D01*
X12278809Y-16428714D01*
X12288333Y-16447762D01*
X12288333Y-16495381D01*
X12278809Y-16514428D01*
X12269286Y-16523952D01*
X12250238Y-16533476D01*
X12202619Y-16533476D01*
X12183571Y-16523952D01*
X12174048Y-16514428D01*
X12469286Y-16333476D02*
X12374048Y-16333476D01*
X12364524Y-16428714D01*
X12374048Y-16419190D01*
X12393095Y-16409667D01*
X12440714Y-16409667D01*
X12459762Y-16419190D01*
X12469286Y-16428714D01*
X12478809Y-16447762D01*
X12478809Y-16495381D01*
X12469286Y-16514428D01*
X12459762Y-16523952D01*
X12440714Y-16533476D01*
X12393095Y-16533476D01*
X12374048Y-16523952D01*
X12364524Y-16514428D01*
X12669286Y-16533476D02*
X12555000Y-16533476D01*
X12612143Y-16533476D02*
X12612143Y-16333476D01*
X12593095Y-16362048D01*
X12574048Y-16381095D01*
X12555000Y-16390619D01*
X12745476Y-16333476D02*
X12745476Y-16371571D01*
X12821667Y-16333476D02*
X12821667Y-16371571D01*
X13116905Y-16609667D02*
X13107381Y-16600143D01*
X13088333Y-16571571D01*
X13078809Y-16552524D01*
X13069286Y-16523952D01*
X13059762Y-16476333D01*
X13059762Y-16438238D01*
X13069286Y-16390619D01*
X13078809Y-16362048D01*
X13088333Y-16343000D01*
X13107381Y-16314428D01*
X13116905Y-16304905D01*
X13174048Y-16333476D02*
X13297857Y-16333476D01*
X13231190Y-16409667D01*
X13259762Y-16409667D01*
X13278809Y-16419190D01*
X13288333Y-16428714D01*
X13297857Y-16447762D01*
X13297857Y-16495381D01*
X13288333Y-16514428D01*
X13278809Y-16523952D01*
X13259762Y-16533476D01*
X13202619Y-16533476D01*
X13183571Y-16523952D01*
X13174048Y-16514428D01*
X13421667Y-16333476D02*
X13440714Y-16333476D01*
X13459762Y-16343000D01*
X13469286Y-16352524D01*
X13478809Y-16371571D01*
X13488333Y-16409667D01*
X13488333Y-16457286D01*
X13478809Y-16495381D01*
X13469286Y-16514428D01*
X13459762Y-16523952D01*
X13440714Y-16533476D01*
X13421667Y-16533476D01*
X13402619Y-16523952D01*
X13393095Y-16514428D01*
X13383571Y-16495381D01*
X13374048Y-16457286D01*
X13374048Y-16409667D01*
X13383571Y-16371571D01*
X13393095Y-16352524D01*
X13402619Y-16343000D01*
X13421667Y-16333476D01*
X13726428Y-16533476D02*
X13726428Y-16333476D01*
X13812143Y-16533476D02*
X13812143Y-16428714D01*
X13802619Y-16409667D01*
X13783571Y-16400143D01*
X13755000Y-16400143D01*
X13735952Y-16409667D01*
X13726428Y-16419190D01*
X13935952Y-16533476D02*
X13916905Y-16523952D01*
X13907381Y-16514428D01*
X13897857Y-16495381D01*
X13897857Y-16438238D01*
X13907381Y-16419190D01*
X13916905Y-16409667D01*
X13935952Y-16400143D01*
X13964524Y-16400143D01*
X13983571Y-16409667D01*
X13993095Y-16419190D01*
X14002619Y-16438238D01*
X14002619Y-16495381D01*
X13993095Y-16514428D01*
X13983571Y-16523952D01*
X13964524Y-16533476D01*
X13935952Y-16533476D01*
X14116905Y-16533476D02*
X14097857Y-16523952D01*
X14088333Y-16504905D01*
X14088333Y-16333476D01*
X14269286Y-16523952D02*
X14250238Y-16533476D01*
X14212143Y-16533476D01*
X14193095Y-16523952D01*
X14183571Y-16504905D01*
X14183571Y-16428714D01*
X14193095Y-16409667D01*
X14212143Y-16400143D01*
X14250238Y-16400143D01*
X14269286Y-16409667D01*
X14278809Y-16428714D01*
X14278809Y-16447762D01*
X14183571Y-16466809D01*
X14355000Y-16523952D02*
X14374048Y-16533476D01*
X14412143Y-16533476D01*
X14431190Y-16523952D01*
X14440714Y-16504905D01*
X14440714Y-16495381D01*
X14431190Y-16476333D01*
X14412143Y-16466809D01*
X14383571Y-16466809D01*
X14364524Y-16457286D01*
X14355000Y-16438238D01*
X14355000Y-16428714D01*
X14364524Y-16409667D01*
X14383571Y-16400143D01*
X14412143Y-16400143D01*
X14431190Y-16409667D01*
X14507381Y-16609667D02*
X14516905Y-16600143D01*
X14535952Y-16571571D01*
X14545476Y-16552524D01*
X14555000Y-16523952D01*
X14564524Y-16476333D01*
X14564524Y-16438238D01*
X14555000Y-16390619D01*
X14545476Y-16362048D01*
X14535952Y-16343000D01*
X14516905Y-16314428D01*
X14507381Y-16304905D01*
D19*
X9395000Y-16632000D02*
X9545000Y-16782000D01*
X9545000Y-16632000D02*
X9395000Y-16782000D01*
X9470000Y-16782000D02*
X9545000Y-16707000D01*
X9470000Y-16632000D01*
X9395000Y-16707000D01*
X9470000Y-16782000D01*
D11*
X9907381Y-16797476D02*
X9793095Y-16797476D01*
X9850238Y-16797476D02*
X9850238Y-16597476D01*
X9831190Y-16626048D01*
X9812143Y-16645095D01*
X9793095Y-16654619D01*
X9993095Y-16778429D02*
X10002619Y-16787952D01*
X9993095Y-16797476D01*
X9983571Y-16787952D01*
X9993095Y-16778429D01*
X9993095Y-16797476D01*
X10183571Y-16597476D02*
X10088333Y-16597476D01*
X10078810Y-16692714D01*
X10088333Y-16683190D01*
X10107381Y-16673667D01*
X10155000Y-16673667D01*
X10174048Y-16683190D01*
X10183571Y-16692714D01*
X10193095Y-16711762D01*
X10193095Y-16759381D01*
X10183571Y-16778429D01*
X10174048Y-16787952D01*
X10155000Y-16797476D01*
X10107381Y-16797476D01*
X10088333Y-16787952D01*
X10078810Y-16778429D01*
X10316905Y-16597476D02*
X10335952Y-16597476D01*
X10355000Y-16607000D01*
X10364524Y-16616524D01*
X10374048Y-16635571D01*
X10383571Y-16673667D01*
X10383571Y-16721286D01*
X10374048Y-16759381D01*
X10364524Y-16778429D01*
X10355000Y-16787952D01*
X10335952Y-16797476D01*
X10316905Y-16797476D01*
X10297857Y-16787952D01*
X10288333Y-16778429D01*
X10278810Y-16759381D01*
X10269286Y-16721286D01*
X10269286Y-16673667D01*
X10278810Y-16635571D01*
X10288333Y-16616524D01*
X10297857Y-16607000D01*
X10316905Y-16597476D01*
X10507381Y-16597476D02*
X10526429Y-16597476D01*
X10545476Y-16607000D01*
X10555000Y-16616524D01*
X10564524Y-16635571D01*
X10574048Y-16673667D01*
X10574048Y-16721286D01*
X10564524Y-16759381D01*
X10555000Y-16778429D01*
X10545476Y-16787952D01*
X10526429Y-16797476D01*
X10507381Y-16797476D01*
X10488333Y-16787952D01*
X10478810Y-16778429D01*
X10469286Y-16759381D01*
X10459762Y-16721286D01*
X10459762Y-16673667D01*
X10469286Y-16635571D01*
X10478810Y-16616524D01*
X10488333Y-16607000D01*
X10507381Y-16597476D01*
X10659762Y-16797476D02*
X10659762Y-16664143D01*
X10659762Y-16683190D02*
X10669286Y-16673667D01*
X10688333Y-16664143D01*
X10716905Y-16664143D01*
X10735952Y-16673667D01*
X10745476Y-16692714D01*
X10745476Y-16797476D01*
X10745476Y-16692714D02*
X10755000Y-16673667D01*
X10774048Y-16664143D01*
X10802619Y-16664143D01*
X10821667Y-16673667D01*
X10831190Y-16692714D01*
X10831190Y-16797476D01*
X10926429Y-16797476D02*
X10926429Y-16664143D01*
X10926429Y-16683190D02*
X10935952Y-16673667D01*
X10955000Y-16664143D01*
X10983571Y-16664143D01*
X11002619Y-16673667D01*
X11012143Y-16692714D01*
X11012143Y-16797476D01*
X11012143Y-16692714D02*
X11021667Y-16673667D01*
X11040714Y-16664143D01*
X11069286Y-16664143D01*
X11088333Y-16673667D01*
X11097857Y-16692714D01*
X11097857Y-16797476D01*
X11488333Y-16587952D02*
X11316905Y-16845095D01*
X11745476Y-16597476D02*
X11764524Y-16597476D01*
X11783571Y-16607000D01*
X11793095Y-16616524D01*
X11802619Y-16635571D01*
X11812143Y-16673667D01*
X11812143Y-16721286D01*
X11802619Y-16759381D01*
X11793095Y-16778429D01*
X11783571Y-16787952D01*
X11764524Y-16797476D01*
X11745476Y-16797476D01*
X11726428Y-16787952D01*
X11716905Y-16778429D01*
X11707381Y-16759381D01*
X11697857Y-16721286D01*
X11697857Y-16673667D01*
X11707381Y-16635571D01*
X11716905Y-16616524D01*
X11726428Y-16607000D01*
X11745476Y-16597476D01*
X11897857Y-16778429D02*
X11907381Y-16787952D01*
X11897857Y-16797476D01*
X11888333Y-16787952D01*
X11897857Y-16778429D01*
X11897857Y-16797476D01*
X12031190Y-16597476D02*
X12050238Y-16597476D01*
X12069286Y-16607000D01*
X12078809Y-16616524D01*
X12088333Y-16635571D01*
X12097857Y-16673667D01*
X12097857Y-16721286D01*
X12088333Y-16759381D01*
X12078809Y-16778429D01*
X12069286Y-16787952D01*
X12050238Y-16797476D01*
X12031190Y-16797476D01*
X12012143Y-16787952D01*
X12002619Y-16778429D01*
X11993095Y-16759381D01*
X11983571Y-16721286D01*
X11983571Y-16673667D01*
X11993095Y-16635571D01*
X12002619Y-16616524D01*
X12012143Y-16607000D01*
X12031190Y-16597476D01*
X12278809Y-16597476D02*
X12183571Y-16597476D01*
X12174048Y-16692714D01*
X12183571Y-16683190D01*
X12202619Y-16673667D01*
X12250238Y-16673667D01*
X12269286Y-16683190D01*
X12278809Y-16692714D01*
X12288333Y-16711762D01*
X12288333Y-16759381D01*
X12278809Y-16778429D01*
X12269286Y-16787952D01*
X12250238Y-16797476D01*
X12202619Y-16797476D01*
X12183571Y-16787952D01*
X12174048Y-16778429D01*
X12383571Y-16797476D02*
X12421667Y-16797476D01*
X12440714Y-16787952D01*
X12450238Y-16778429D01*
X12469286Y-16749857D01*
X12478809Y-16711762D01*
X12478809Y-16635571D01*
X12469286Y-16616524D01*
X12459762Y-16607000D01*
X12440714Y-16597476D01*
X12402619Y-16597476D01*
X12383571Y-16607000D01*
X12374048Y-16616524D01*
X12364524Y-16635571D01*
X12364524Y-16683190D01*
X12374048Y-16702238D01*
X12383571Y-16711762D01*
X12402619Y-16721286D01*
X12440714Y-16721286D01*
X12459762Y-16711762D01*
X12469286Y-16702238D01*
X12478809Y-16683190D01*
X12669286Y-16797476D02*
X12555000Y-16797476D01*
X12612143Y-16797476D02*
X12612143Y-16597476D01*
X12593095Y-16626048D01*
X12574048Y-16645095D01*
X12555000Y-16654619D01*
X12745476Y-16597476D02*
X12745476Y-16635571D01*
X12821667Y-16597476D02*
X12821667Y-16635571D01*
X13116905Y-16873667D02*
X13107381Y-16864143D01*
X13088333Y-16835571D01*
X13078809Y-16816524D01*
X13069286Y-16787952D01*
X13059762Y-16740333D01*
X13059762Y-16702238D01*
X13069286Y-16654619D01*
X13078809Y-16626048D01*
X13088333Y-16607000D01*
X13107381Y-16578428D01*
X13116905Y-16568905D01*
X13231190Y-16597476D02*
X13250238Y-16597476D01*
X13269286Y-16607000D01*
X13278809Y-16616524D01*
X13288333Y-16635571D01*
X13297857Y-16673667D01*
X13297857Y-16721286D01*
X13288333Y-16759381D01*
X13278809Y-16778429D01*
X13269286Y-16787952D01*
X13250238Y-16797476D01*
X13231190Y-16797476D01*
X13212143Y-16787952D01*
X13202619Y-16778429D01*
X13193095Y-16759381D01*
X13183571Y-16721286D01*
X13183571Y-16673667D01*
X13193095Y-16635571D01*
X13202619Y-16616524D01*
X13212143Y-16607000D01*
X13231190Y-16597476D01*
X13535952Y-16797476D02*
X13535952Y-16597476D01*
X13621667Y-16797476D02*
X13621667Y-16692714D01*
X13612143Y-16673667D01*
X13593095Y-16664143D01*
X13564524Y-16664143D01*
X13545476Y-16673667D01*
X13535952Y-16683190D01*
X13745476Y-16797476D02*
X13726428Y-16787952D01*
X13716905Y-16778429D01*
X13707381Y-16759381D01*
X13707381Y-16702238D01*
X13716905Y-16683190D01*
X13726428Y-16673667D01*
X13745476Y-16664143D01*
X13774048Y-16664143D01*
X13793095Y-16673667D01*
X13802619Y-16683190D01*
X13812143Y-16702238D01*
X13812143Y-16759381D01*
X13802619Y-16778429D01*
X13793095Y-16787952D01*
X13774048Y-16797476D01*
X13745476Y-16797476D01*
X13926428Y-16797476D02*
X13907381Y-16787952D01*
X13897857Y-16768905D01*
X13897857Y-16597476D01*
X14078809Y-16787952D02*
X14059762Y-16797476D01*
X14021667Y-16797476D01*
X14002619Y-16787952D01*
X13993095Y-16768905D01*
X13993095Y-16692714D01*
X14002619Y-16673667D01*
X14021667Y-16664143D01*
X14059762Y-16664143D01*
X14078809Y-16673667D01*
X14088333Y-16692714D01*
X14088333Y-16711762D01*
X13993095Y-16730809D01*
X14164524Y-16787952D02*
X14183571Y-16797476D01*
X14221667Y-16797476D01*
X14240714Y-16787952D01*
X14250238Y-16768905D01*
X14250238Y-16759381D01*
X14240714Y-16740333D01*
X14221667Y-16730809D01*
X14193095Y-16730809D01*
X14174048Y-16721286D01*
X14164524Y-16702238D01*
X14164524Y-16692714D01*
X14174048Y-16673667D01*
X14193095Y-16664143D01*
X14221667Y-16664143D01*
X14240714Y-16673667D01*
X14488333Y-16721286D02*
X14640714Y-16721286D01*
X14564524Y-16797476D02*
X14564524Y-16645095D01*
X14878809Y-16616524D02*
X14888333Y-16607000D01*
X14907381Y-16597476D01*
X14955000Y-16597476D01*
X14974048Y-16607000D01*
X14983571Y-16616524D01*
X14993095Y-16635571D01*
X14993095Y-16654619D01*
X14983571Y-16683190D01*
X14869286Y-16797476D01*
X14993095Y-16797476D01*
X15221667Y-16787952D02*
X15240714Y-16797476D01*
X15278809Y-16797476D01*
X15297857Y-16787952D01*
X15307381Y-16768905D01*
X15307381Y-16759381D01*
X15297857Y-16740333D01*
X15278809Y-16730809D01*
X15250238Y-16730809D01*
X15231190Y-16721286D01*
X15221667Y-16702238D01*
X15221667Y-16692714D01*
X15231190Y-16673667D01*
X15250238Y-16664143D01*
X15278809Y-16664143D01*
X15297857Y-16673667D01*
X15421667Y-16797476D02*
X15402619Y-16787952D01*
X15393095Y-16768905D01*
X15393095Y-16597476D01*
X15526428Y-16797476D02*
X15507381Y-16787952D01*
X15497857Y-16778429D01*
X15488333Y-16759381D01*
X15488333Y-16702238D01*
X15497857Y-16683190D01*
X15507381Y-16673667D01*
X15526428Y-16664143D01*
X15555000Y-16664143D01*
X15574048Y-16673667D01*
X15583571Y-16683190D01*
X15593095Y-16702238D01*
X15593095Y-16759381D01*
X15583571Y-16778429D01*
X15574048Y-16787952D01*
X15555000Y-16797476D01*
X15526428Y-16797476D01*
X15650238Y-16664143D02*
X15726428Y-16664143D01*
X15678809Y-16597476D02*
X15678809Y-16768905D01*
X15688333Y-16787952D01*
X15707381Y-16797476D01*
X15726428Y-16797476D01*
X15783571Y-16787952D02*
X15802619Y-16797476D01*
X15840714Y-16797476D01*
X15859762Y-16787952D01*
X15869286Y-16768905D01*
X15869286Y-16759381D01*
X15859762Y-16740333D01*
X15840714Y-16730809D01*
X15812143Y-16730809D01*
X15793095Y-16721286D01*
X15783571Y-16702238D01*
X15783571Y-16692714D01*
X15793095Y-16673667D01*
X15812143Y-16664143D01*
X15840714Y-16664143D01*
X15859762Y-16673667D01*
X15935952Y-16873667D02*
X15945476Y-16864143D01*
X15964524Y-16835571D01*
X15974048Y-16816524D01*
X15983571Y-16787952D01*
X15993095Y-16740333D01*
X15993095Y-16702238D01*
X15983571Y-16654619D01*
X15974048Y-16626048D01*
X15964524Y-16607000D01*
X15945476Y-16578428D01*
X15935952Y-16568905D01*
D20*
X9455000Y-16887000D02*
X9455000Y-17067000D01*
X9365000Y-16977000D02*
X9545000Y-16977000D01*
X9545000Y-16977000D02*
G75*
G03*
X9545000Y-16977000I-90000J0D01*
G01*
D11*
X9907381Y-17067476D02*
X9793095Y-17067476D01*
X9850238Y-17067476D02*
X9850238Y-16867476D01*
X9831190Y-16896048D01*
X9812143Y-16915095D01*
X9793095Y-16924619D01*
X9993095Y-17048429D02*
X10002619Y-17057952D01*
X9993095Y-17067476D01*
X9983571Y-17057952D01*
X9993095Y-17048429D01*
X9993095Y-17067476D01*
X10116905Y-16953190D02*
X10097857Y-16943667D01*
X10088333Y-16934143D01*
X10078810Y-16915095D01*
X10078810Y-16905571D01*
X10088333Y-16886524D01*
X10097857Y-16877000D01*
X10116905Y-16867476D01*
X10155000Y-16867476D01*
X10174048Y-16877000D01*
X10183571Y-16886524D01*
X10193095Y-16905571D01*
X10193095Y-16915095D01*
X10183571Y-16934143D01*
X10174048Y-16943667D01*
X10155000Y-16953190D01*
X10116905Y-16953190D01*
X10097857Y-16962714D01*
X10088333Y-16972238D01*
X10078810Y-16991286D01*
X10078810Y-17029381D01*
X10088333Y-17048429D01*
X10097857Y-17057952D01*
X10116905Y-17067476D01*
X10155000Y-17067476D01*
X10174048Y-17057952D01*
X10183571Y-17048429D01*
X10193095Y-17029381D01*
X10193095Y-16991286D01*
X10183571Y-16972238D01*
X10174048Y-16962714D01*
X10155000Y-16953190D01*
X10316905Y-16867476D02*
X10335952Y-16867476D01*
X10355000Y-16877000D01*
X10364524Y-16886524D01*
X10374048Y-16905571D01*
X10383571Y-16943667D01*
X10383571Y-16991286D01*
X10374048Y-17029381D01*
X10364524Y-17048429D01*
X10355000Y-17057952D01*
X10335952Y-17067476D01*
X10316905Y-17067476D01*
X10297857Y-17057952D01*
X10288333Y-17048429D01*
X10278810Y-17029381D01*
X10269286Y-16991286D01*
X10269286Y-16943667D01*
X10278810Y-16905571D01*
X10288333Y-16886524D01*
X10297857Y-16877000D01*
X10316905Y-16867476D01*
X10507381Y-16867476D02*
X10526429Y-16867476D01*
X10545476Y-16877000D01*
X10555000Y-16886524D01*
X10564524Y-16905571D01*
X10574048Y-16943667D01*
X10574048Y-16991286D01*
X10564524Y-17029381D01*
X10555000Y-17048429D01*
X10545476Y-17057952D01*
X10526429Y-17067476D01*
X10507381Y-17067476D01*
X10488333Y-17057952D01*
X10478810Y-17048429D01*
X10469286Y-17029381D01*
X10459762Y-16991286D01*
X10459762Y-16943667D01*
X10469286Y-16905571D01*
X10478810Y-16886524D01*
X10488333Y-16877000D01*
X10507381Y-16867476D01*
X10659762Y-17067476D02*
X10659762Y-16934143D01*
X10659762Y-16953190D02*
X10669286Y-16943667D01*
X10688333Y-16934143D01*
X10716905Y-16934143D01*
X10735952Y-16943667D01*
X10745476Y-16962714D01*
X10745476Y-17067476D01*
X10745476Y-16962714D02*
X10755000Y-16943667D01*
X10774048Y-16934143D01*
X10802619Y-16934143D01*
X10821667Y-16943667D01*
X10831190Y-16962714D01*
X10831190Y-17067476D01*
X10926429Y-17067476D02*
X10926429Y-16934143D01*
X10926429Y-16953190D02*
X10935952Y-16943667D01*
X10955000Y-16934143D01*
X10983571Y-16934143D01*
X11002619Y-16943667D01*
X11012143Y-16962714D01*
X11012143Y-17067476D01*
X11012143Y-16962714D02*
X11021667Y-16943667D01*
X11040714Y-16934143D01*
X11069286Y-16934143D01*
X11088333Y-16943667D01*
X11097857Y-16962714D01*
X11097857Y-17067476D01*
X11488333Y-16857952D02*
X11316905Y-17115095D01*
X11745476Y-16867476D02*
X11764524Y-16867476D01*
X11783571Y-16877000D01*
X11793095Y-16886524D01*
X11802619Y-16905571D01*
X11812143Y-16943667D01*
X11812143Y-16991286D01*
X11802619Y-17029381D01*
X11793095Y-17048429D01*
X11783571Y-17057952D01*
X11764524Y-17067476D01*
X11745476Y-17067476D01*
X11726428Y-17057952D01*
X11716905Y-17048429D01*
X11707381Y-17029381D01*
X11697857Y-16991286D01*
X11697857Y-16943667D01*
X11707381Y-16905571D01*
X11716905Y-16886524D01*
X11726428Y-16877000D01*
X11745476Y-16867476D01*
X11897857Y-17048429D02*
X11907381Y-17057952D01*
X11897857Y-17067476D01*
X11888333Y-17057952D01*
X11897857Y-17048429D01*
X11897857Y-17067476D01*
X12031190Y-16867476D02*
X12050238Y-16867476D01*
X12069286Y-16877000D01*
X12078809Y-16886524D01*
X12088333Y-16905571D01*
X12097857Y-16943667D01*
X12097857Y-16991286D01*
X12088333Y-17029381D01*
X12078809Y-17048429D01*
X12069286Y-17057952D01*
X12050238Y-17067476D01*
X12031190Y-17067476D01*
X12012143Y-17057952D01*
X12002619Y-17048429D01*
X11993095Y-17029381D01*
X11983571Y-16991286D01*
X11983571Y-16943667D01*
X11993095Y-16905571D01*
X12002619Y-16886524D01*
X12012143Y-16877000D01*
X12031190Y-16867476D01*
X12164524Y-16867476D02*
X12297857Y-16867476D01*
X12212143Y-17067476D01*
X12412143Y-16867476D02*
X12431190Y-16867476D01*
X12450238Y-16877000D01*
X12459762Y-16886524D01*
X12469286Y-16905571D01*
X12478809Y-16943667D01*
X12478809Y-16991286D01*
X12469286Y-17029381D01*
X12459762Y-17048429D01*
X12450238Y-17057952D01*
X12431190Y-17067476D01*
X12412143Y-17067476D01*
X12393095Y-17057952D01*
X12383571Y-17048429D01*
X12374048Y-17029381D01*
X12364524Y-16991286D01*
X12364524Y-16943667D01*
X12374048Y-16905571D01*
X12383571Y-16886524D01*
X12393095Y-16877000D01*
X12412143Y-16867476D01*
X12574048Y-17067476D02*
X12612143Y-17067476D01*
X12631190Y-17057952D01*
X12640714Y-17048429D01*
X12659762Y-17019857D01*
X12669286Y-16981762D01*
X12669286Y-16905571D01*
X12659762Y-16886524D01*
X12650238Y-16877000D01*
X12631190Y-16867476D01*
X12593095Y-16867476D01*
X12574048Y-16877000D01*
X12564524Y-16886524D01*
X12555000Y-16905571D01*
X12555000Y-16953190D01*
X12564524Y-16972238D01*
X12574048Y-16981762D01*
X12593095Y-16991286D01*
X12631190Y-16991286D01*
X12650238Y-16981762D01*
X12659762Y-16972238D01*
X12669286Y-16953190D01*
X12745476Y-16867476D02*
X12745476Y-16905571D01*
X12821667Y-16867476D02*
X12821667Y-16905571D01*
X13116905Y-17143667D02*
X13107381Y-17134143D01*
X13088333Y-17105571D01*
X13078809Y-17086524D01*
X13069286Y-17057952D01*
X13059762Y-17010333D01*
X13059762Y-16972238D01*
X13069286Y-16924619D01*
X13078809Y-16896048D01*
X13088333Y-16877000D01*
X13107381Y-16848429D01*
X13116905Y-16838905D01*
X13231190Y-16867476D02*
X13250238Y-16867476D01*
X13269286Y-16877000D01*
X13278809Y-16886524D01*
X13288333Y-16905571D01*
X13297857Y-16943667D01*
X13297857Y-16991286D01*
X13288333Y-17029381D01*
X13278809Y-17048429D01*
X13269286Y-17057952D01*
X13250238Y-17067476D01*
X13231190Y-17067476D01*
X13212143Y-17057952D01*
X13202619Y-17048429D01*
X13193095Y-17029381D01*
X13183571Y-16991286D01*
X13183571Y-16943667D01*
X13193095Y-16905571D01*
X13202619Y-16886524D01*
X13212143Y-16877000D01*
X13231190Y-16867476D01*
X13535952Y-17067476D02*
X13535952Y-16867476D01*
X13621667Y-17067476D02*
X13621667Y-16962714D01*
X13612143Y-16943667D01*
X13593095Y-16934143D01*
X13564524Y-16934143D01*
X13545476Y-16943667D01*
X13535952Y-16953190D01*
X13745476Y-17067476D02*
X13726428Y-17057952D01*
X13716905Y-17048429D01*
X13707381Y-17029381D01*
X13707381Y-16972238D01*
X13716905Y-16953190D01*
X13726428Y-16943667D01*
X13745476Y-16934143D01*
X13774048Y-16934143D01*
X13793095Y-16943667D01*
X13802619Y-16953190D01*
X13812143Y-16972238D01*
X13812143Y-17029381D01*
X13802619Y-17048429D01*
X13793095Y-17057952D01*
X13774048Y-17067476D01*
X13745476Y-17067476D01*
X13926428Y-17067476D02*
X13907381Y-17057952D01*
X13897857Y-17038905D01*
X13897857Y-16867476D01*
X14078809Y-17057952D02*
X14059762Y-17067476D01*
X14021667Y-17067476D01*
X14002619Y-17057952D01*
X13993095Y-17038905D01*
X13993095Y-16962714D01*
X14002619Y-16943667D01*
X14021667Y-16934143D01*
X14059762Y-16934143D01*
X14078809Y-16943667D01*
X14088333Y-16962714D01*
X14088333Y-16981762D01*
X13993095Y-17000810D01*
X14164524Y-17057952D02*
X14183571Y-17067476D01*
X14221667Y-17067476D01*
X14240714Y-17057952D01*
X14250238Y-17038905D01*
X14250238Y-17029381D01*
X14240714Y-17010333D01*
X14221667Y-17000810D01*
X14193095Y-17000810D01*
X14174048Y-16991286D01*
X14164524Y-16972238D01*
X14164524Y-16962714D01*
X14174048Y-16943667D01*
X14193095Y-16934143D01*
X14221667Y-16934143D01*
X14240714Y-16943667D01*
X14488333Y-16991286D02*
X14640714Y-16991286D01*
X14564524Y-17067476D02*
X14564524Y-16915095D01*
X14974048Y-16867476D02*
X14935952Y-16867476D01*
X14916905Y-16877000D01*
X14907381Y-16886524D01*
X14888333Y-16915095D01*
X14878809Y-16953190D01*
X14878809Y-17029381D01*
X14888333Y-17048429D01*
X14897857Y-17057952D01*
X14916905Y-17067476D01*
X14955000Y-17067476D01*
X14974048Y-17057952D01*
X14983571Y-17048429D01*
X14993095Y-17029381D01*
X14993095Y-16981762D01*
X14983571Y-16962714D01*
X14974048Y-16953190D01*
X14955000Y-16943667D01*
X14916905Y-16943667D01*
X14897857Y-16953190D01*
X14888333Y-16962714D01*
X14878809Y-16981762D01*
X15221667Y-17057952D02*
X15240714Y-17067476D01*
X15278809Y-17067476D01*
X15297857Y-17057952D01*
X15307381Y-17038905D01*
X15307381Y-17029381D01*
X15297857Y-17010333D01*
X15278809Y-17000810D01*
X15250238Y-17000810D01*
X15231190Y-16991286D01*
X15221667Y-16972238D01*
X15221667Y-16962714D01*
X15231190Y-16943667D01*
X15250238Y-16934143D01*
X15278809Y-16934143D01*
X15297857Y-16943667D01*
X15421667Y-17067476D02*
X15402619Y-17057952D01*
X15393095Y-17038905D01*
X15393095Y-16867476D01*
X15526428Y-17067476D02*
X15507381Y-17057952D01*
X15497857Y-17048429D01*
X15488333Y-17029381D01*
X15488333Y-16972238D01*
X15497857Y-16953190D01*
X15507381Y-16943667D01*
X15526428Y-16934143D01*
X15555000Y-16934143D01*
X15574048Y-16943667D01*
X15583571Y-16953190D01*
X15593095Y-16972238D01*
X15593095Y-17029381D01*
X15583571Y-17048429D01*
X15574048Y-17057952D01*
X15555000Y-17067476D01*
X15526428Y-17067476D01*
X15650238Y-16934143D02*
X15726428Y-16934143D01*
X15678809Y-16867476D02*
X15678809Y-17038905D01*
X15688333Y-17057952D01*
X15707381Y-17067476D01*
X15726428Y-17067476D01*
X15783571Y-17057952D02*
X15802619Y-17067476D01*
X15840714Y-17067476D01*
X15859762Y-17057952D01*
X15869286Y-17038905D01*
X15869286Y-17029381D01*
X15859762Y-17010333D01*
X15840714Y-17000810D01*
X15812143Y-17000810D01*
X15793095Y-16991286D01*
X15783571Y-16972238D01*
X15783571Y-16962714D01*
X15793095Y-16943667D01*
X15812143Y-16934143D01*
X15840714Y-16934143D01*
X15859762Y-16943667D01*
X15935952Y-17143667D02*
X15945476Y-17134143D01*
X15964524Y-17105571D01*
X15974048Y-17086524D01*
X15983571Y-17057952D01*
X15993095Y-17010333D01*
X15993095Y-16972238D01*
X15983571Y-16924619D01*
X15974048Y-16896048D01*
X15964524Y-16877000D01*
X15945476Y-16848429D01*
X15935952Y-16838905D01*
X9515711Y-17347711D02*
X9515711Y-17206289D01*
X9374289Y-17206289D01*
X9374289Y-17347711D01*
X9515711Y-17347711D01*
X9545000Y-17277000D02*
G75*
G03*
X9545000Y-17277000I-100000J0D01*
G01*
X9793095Y-17186524D02*
X9802619Y-17177000D01*
X9821667Y-17167476D01*
X9869286Y-17167476D01*
X9888333Y-17177000D01*
X9897857Y-17186524D01*
X9907381Y-17205571D01*
X9907381Y-17224619D01*
X9897857Y-17253190D01*
X9783571Y-17367476D01*
X9907381Y-17367476D01*
X9993095Y-17348429D02*
X10002619Y-17357952D01*
X9993095Y-17367476D01*
X9983571Y-17357952D01*
X9993095Y-17348429D01*
X9993095Y-17367476D01*
X10097857Y-17367476D02*
X10135952Y-17367476D01*
X10155000Y-17357952D01*
X10164524Y-17348429D01*
X10183571Y-17319857D01*
X10193095Y-17281762D01*
X10193095Y-17205571D01*
X10183571Y-17186524D01*
X10174048Y-17177000D01*
X10155000Y-17167476D01*
X10116905Y-17167476D01*
X10097857Y-17177000D01*
X10088333Y-17186524D01*
X10078810Y-17205571D01*
X10078810Y-17253190D01*
X10088333Y-17272238D01*
X10097857Y-17281762D01*
X10116905Y-17291286D01*
X10155000Y-17291286D01*
X10174048Y-17281762D01*
X10183571Y-17272238D01*
X10193095Y-17253190D01*
X10316905Y-17167476D02*
X10335952Y-17167476D01*
X10355000Y-17177000D01*
X10364524Y-17186524D01*
X10374048Y-17205571D01*
X10383571Y-17243667D01*
X10383571Y-17291286D01*
X10374048Y-17329381D01*
X10364524Y-17348429D01*
X10355000Y-17357952D01*
X10335952Y-17367476D01*
X10316905Y-17367476D01*
X10297857Y-17357952D01*
X10288333Y-17348429D01*
X10278810Y-17329381D01*
X10269286Y-17291286D01*
X10269286Y-17243667D01*
X10278810Y-17205571D01*
X10288333Y-17186524D01*
X10297857Y-17177000D01*
X10316905Y-17167476D01*
X10507381Y-17167476D02*
X10526429Y-17167476D01*
X10545476Y-17177000D01*
X10555000Y-17186524D01*
X10564524Y-17205571D01*
X10574048Y-17243667D01*
X10574048Y-17291286D01*
X10564524Y-17329381D01*
X10555000Y-17348429D01*
X10545476Y-17357952D01*
X10526429Y-17367476D01*
X10507381Y-17367476D01*
X10488333Y-17357952D01*
X10478810Y-17348429D01*
X10469286Y-17329381D01*
X10459762Y-17291286D01*
X10459762Y-17243667D01*
X10469286Y-17205571D01*
X10478810Y-17186524D01*
X10488333Y-17177000D01*
X10507381Y-17167476D01*
X10659762Y-17367476D02*
X10659762Y-17234143D01*
X10659762Y-17253190D02*
X10669286Y-17243667D01*
X10688333Y-17234143D01*
X10716905Y-17234143D01*
X10735952Y-17243667D01*
X10745476Y-17262714D01*
X10745476Y-17367476D01*
X10745476Y-17262714D02*
X10755000Y-17243667D01*
X10774048Y-17234143D01*
X10802619Y-17234143D01*
X10821667Y-17243667D01*
X10831190Y-17262714D01*
X10831190Y-17367476D01*
X10926429Y-17367476D02*
X10926429Y-17234143D01*
X10926429Y-17253190D02*
X10935952Y-17243667D01*
X10955000Y-17234143D01*
X10983571Y-17234143D01*
X11002619Y-17243667D01*
X11012143Y-17262714D01*
X11012143Y-17367476D01*
X11012143Y-17262714D02*
X11021667Y-17243667D01*
X11040714Y-17234143D01*
X11069286Y-17234143D01*
X11088333Y-17243667D01*
X11097857Y-17262714D01*
X11097857Y-17367476D01*
X11488333Y-17157952D02*
X11316905Y-17415095D01*
X11745476Y-17167476D02*
X11764524Y-17167476D01*
X11783571Y-17177000D01*
X11793095Y-17186524D01*
X11802619Y-17205571D01*
X11812143Y-17243667D01*
X11812143Y-17291286D01*
X11802619Y-17329381D01*
X11793095Y-17348429D01*
X11783571Y-17357952D01*
X11764524Y-17367476D01*
X11745476Y-17367476D01*
X11726428Y-17357952D01*
X11716905Y-17348429D01*
X11707381Y-17329381D01*
X11697857Y-17291286D01*
X11697857Y-17243667D01*
X11707381Y-17205571D01*
X11716905Y-17186524D01*
X11726428Y-17177000D01*
X11745476Y-17167476D01*
X11897857Y-17348429D02*
X11907381Y-17357952D01*
X11897857Y-17367476D01*
X11888333Y-17357952D01*
X11897857Y-17348429D01*
X11897857Y-17367476D01*
X12097857Y-17367476D02*
X11983571Y-17367476D01*
X12040714Y-17367476D02*
X12040714Y-17167476D01*
X12021667Y-17196048D01*
X12002619Y-17215095D01*
X11983571Y-17224619D01*
X12288333Y-17367476D02*
X12174048Y-17367476D01*
X12231190Y-17367476D02*
X12231190Y-17167476D01*
X12212143Y-17196048D01*
X12193095Y-17215095D01*
X12174048Y-17224619D01*
X12459762Y-17234143D02*
X12459762Y-17367476D01*
X12412143Y-17157952D02*
X12364524Y-17300810D01*
X12488333Y-17300810D01*
X12555000Y-17186524D02*
X12564524Y-17177000D01*
X12583571Y-17167476D01*
X12631190Y-17167476D01*
X12650238Y-17177000D01*
X12659762Y-17186524D01*
X12669286Y-17205571D01*
X12669286Y-17224619D01*
X12659762Y-17253190D01*
X12545476Y-17367476D01*
X12669286Y-17367476D01*
X12745476Y-17167476D02*
X12745476Y-17205571D01*
X12821667Y-17167476D02*
X12821667Y-17205571D01*
X13116905Y-17443667D02*
X13107381Y-17434143D01*
X13088333Y-17405571D01*
X13078809Y-17386524D01*
X13069286Y-17357952D01*
X13059762Y-17310333D01*
X13059762Y-17272238D01*
X13069286Y-17224619D01*
X13078809Y-17196048D01*
X13088333Y-17177000D01*
X13107381Y-17148429D01*
X13116905Y-17138905D01*
X13183571Y-17186524D02*
X13193095Y-17177000D01*
X13212143Y-17167476D01*
X13259762Y-17167476D01*
X13278809Y-17177000D01*
X13288333Y-17186524D01*
X13297857Y-17205571D01*
X13297857Y-17224619D01*
X13288333Y-17253190D01*
X13174048Y-17367476D01*
X13297857Y-17367476D01*
X13535952Y-17367476D02*
X13535952Y-17167476D01*
X13621667Y-17367476D02*
X13621667Y-17262714D01*
X13612143Y-17243667D01*
X13593095Y-17234143D01*
X13564524Y-17234143D01*
X13545476Y-17243667D01*
X13535952Y-17253190D01*
X13745476Y-17367476D02*
X13726428Y-17357952D01*
X13716905Y-17348429D01*
X13707381Y-17329381D01*
X13707381Y-17272238D01*
X13716905Y-17253190D01*
X13726428Y-17243667D01*
X13745476Y-17234143D01*
X13774048Y-17234143D01*
X13793095Y-17243667D01*
X13802619Y-17253190D01*
X13812143Y-17272238D01*
X13812143Y-17329381D01*
X13802619Y-17348429D01*
X13793095Y-17357952D01*
X13774048Y-17367476D01*
X13745476Y-17367476D01*
X13926428Y-17367476D02*
X13907381Y-17357952D01*
X13897857Y-17338905D01*
X13897857Y-17167476D01*
X14078809Y-17357952D02*
X14059762Y-17367476D01*
X14021667Y-17367476D01*
X14002619Y-17357952D01*
X13993095Y-17338905D01*
X13993095Y-17262714D01*
X14002619Y-17243667D01*
X14021667Y-17234143D01*
X14059762Y-17234143D01*
X14078809Y-17243667D01*
X14088333Y-17262714D01*
X14088333Y-17281762D01*
X13993095Y-17300810D01*
X14164524Y-17357952D02*
X14183571Y-17367476D01*
X14221667Y-17367476D01*
X14240714Y-17357952D01*
X14250238Y-17338905D01*
X14250238Y-17329381D01*
X14240714Y-17310333D01*
X14221667Y-17300810D01*
X14193095Y-17300810D01*
X14174048Y-17291286D01*
X14164524Y-17272238D01*
X14164524Y-17262714D01*
X14174048Y-17243667D01*
X14193095Y-17234143D01*
X14221667Y-17234143D01*
X14240714Y-17243667D01*
X14316905Y-17443667D02*
X14326428Y-17434143D01*
X14345476Y-17405571D01*
X14355000Y-17386524D01*
X14364524Y-17357952D01*
X14374048Y-17310333D01*
X14374048Y-17272238D01*
X14364524Y-17224619D01*
X14355000Y-17196048D01*
X14345476Y-17177000D01*
X14326428Y-17148429D01*
X14316905Y-17138905D01*
M02*
