%TF.GenerationSoftware,KiCad,Pcbnew,6.0.11+dfsg-1~bpo11+1*%
%TF.CreationDate,2023-11-13T20:18:02+01:00*%
%TF.ProjectId,v1_1,76315f31-2e6b-4696-9361-645f70636258,rev?*%
%TF.SameCoordinates,Original*%
%TF.FileFunction,Drillmap*%
%TF.FilePolarity,Positive*%
%FSLAX45Y45*%
G04 Gerber Fmt 4.5, Leading zero omitted, Abs format (unit mm)*
G04 Created by KiCad (PCBNEW 6.0.11+dfsg-1~bpo11+1) date 2023-11-13 20:18:02*
%MOMM*%
%LPD*%
G01*
G04 APERTURE LIST*
%ADD10C,0.100000*%
%ADD11C,0.200000*%
%ADD12C,0.120000*%
%ADD13C,0.150000*%
%ADD14C,0.180000*%
%ADD15C,0.320000*%
G04 APERTURE END LIST*
D10*
X23450000Y-13950000D02*
X9550000Y-13950000D01*
X9550000Y-13950000D02*
X9550000Y-4050000D01*
X9550000Y-4050000D02*
X23450000Y-4050000D01*
X23450000Y-4050000D02*
X23450000Y-13950000D01*
D11*
D12*
X9943200Y-9192550D02*
X10063200Y-9312550D01*
X10063200Y-9192550D02*
X9943200Y-9312550D01*
X10543200Y-9192550D02*
X10663200Y-9312550D01*
X10663200Y-9192550D02*
X10543200Y-9312550D01*
X22356800Y-6740250D02*
X22476800Y-6860250D01*
X22476800Y-6740250D02*
X22356800Y-6860250D01*
X22356800Y-11667850D02*
X22476800Y-11787850D01*
X22476800Y-11667850D02*
X22356800Y-11787850D01*
X22956800Y-6740250D02*
X23076800Y-6860250D01*
X23076800Y-6740250D02*
X22956800Y-6860250D01*
X22956800Y-11667850D02*
X23076800Y-11787850D01*
X23076800Y-11667850D02*
X22956800Y-11787850D01*
D13*
X11250400Y-5205800D02*
G75*
G03*
X11250400Y-5205800I-75000J0D01*
G01*
X11250400Y-5690800D02*
G75*
G03*
X11250400Y-5690800I-75000J0D01*
G01*
D14*
X10872400Y-5085800D02*
X10872400Y-5265800D01*
X10782400Y-5175800D02*
X10962400Y-5175800D01*
X10872400Y-5630800D02*
X10872400Y-5810800D01*
X10782400Y-5720800D02*
X10962400Y-5720800D01*
D15*
X10273138Y-4675138D02*
X10273138Y-4448862D01*
X10046862Y-4448862D01*
X10046862Y-4675138D01*
X10273138Y-4675138D01*
X10273138Y-13575138D02*
X10273138Y-13348862D01*
X10046862Y-13348862D01*
X10046862Y-13575138D01*
X10273138Y-13575138D01*
X13656138Y-7464138D02*
X13656138Y-7237862D01*
X13429862Y-7237862D01*
X13429862Y-7464138D01*
X13656138Y-7464138D01*
X13656138Y-11144138D02*
X13656138Y-10917862D01*
X13429862Y-10917862D01*
X13429862Y-11144138D01*
X13656138Y-11144138D01*
X20378138Y-7474138D02*
X20378138Y-7247862D01*
X20151862Y-7247862D01*
X20151862Y-7474138D01*
X20378138Y-7474138D01*
X20378138Y-11154138D02*
X20378138Y-10927862D01*
X20151862Y-10927862D01*
X20151862Y-11154138D01*
X20378138Y-11154138D01*
X22973138Y-4675138D02*
X22973138Y-4448862D01*
X22746862Y-4448862D01*
X22746862Y-4675138D01*
X22973138Y-4675138D01*
X22973138Y-13575138D02*
X22973138Y-13348862D01*
X22746862Y-13348862D01*
X22746862Y-13575138D01*
X22973138Y-13575138D01*
D11*
X9802619Y-14265476D02*
X9802619Y-14065476D01*
X9850238Y-14065476D01*
X9878810Y-14075000D01*
X9897857Y-14094048D01*
X9907381Y-14113095D01*
X9916905Y-14151190D01*
X9916905Y-14179762D01*
X9907381Y-14217857D01*
X9897857Y-14236905D01*
X9878810Y-14255952D01*
X9850238Y-14265476D01*
X9802619Y-14265476D01*
X10002619Y-14265476D02*
X10002619Y-14132143D01*
X10002619Y-14170238D02*
X10012143Y-14151190D01*
X10021667Y-14141667D01*
X10040714Y-14132143D01*
X10059762Y-14132143D01*
X10126429Y-14265476D02*
X10126429Y-14132143D01*
X10126429Y-14065476D02*
X10116905Y-14075000D01*
X10126429Y-14084524D01*
X10135952Y-14075000D01*
X10126429Y-14065476D01*
X10126429Y-14084524D01*
X10250238Y-14265476D02*
X10231190Y-14255952D01*
X10221667Y-14236905D01*
X10221667Y-14065476D01*
X10355000Y-14265476D02*
X10335952Y-14255952D01*
X10326429Y-14236905D01*
X10326429Y-14065476D01*
X10583571Y-14265476D02*
X10583571Y-14065476D01*
X10650238Y-14208333D01*
X10716905Y-14065476D01*
X10716905Y-14265476D01*
X10897857Y-14265476D02*
X10897857Y-14160714D01*
X10888333Y-14141667D01*
X10869286Y-14132143D01*
X10831190Y-14132143D01*
X10812143Y-14141667D01*
X10897857Y-14255952D02*
X10878810Y-14265476D01*
X10831190Y-14265476D01*
X10812143Y-14255952D01*
X10802619Y-14236905D01*
X10802619Y-14217857D01*
X10812143Y-14198809D01*
X10831190Y-14189286D01*
X10878810Y-14189286D01*
X10897857Y-14179762D01*
X10993095Y-14132143D02*
X10993095Y-14332143D01*
X10993095Y-14141667D02*
X11012143Y-14132143D01*
X11050238Y-14132143D01*
X11069286Y-14141667D01*
X11078810Y-14151190D01*
X11088333Y-14170238D01*
X11088333Y-14227381D01*
X11078810Y-14246428D01*
X11069286Y-14255952D01*
X11050238Y-14265476D01*
X11012143Y-14265476D01*
X10993095Y-14255952D01*
X11174048Y-14246428D02*
X11183571Y-14255952D01*
X11174048Y-14265476D01*
X11164524Y-14255952D01*
X11174048Y-14246428D01*
X11174048Y-14265476D01*
X11174048Y-14141667D02*
X11183571Y-14151190D01*
X11174048Y-14160714D01*
X11164524Y-14151190D01*
X11174048Y-14141667D01*
X11174048Y-14160714D01*
D12*
X9425000Y-14535000D02*
X9545000Y-14655000D01*
X9545000Y-14535000D02*
X9425000Y-14655000D01*
D11*
X9907381Y-14685476D02*
X9793095Y-14685476D01*
X9850238Y-14685476D02*
X9850238Y-14485476D01*
X9831190Y-14514048D01*
X9812143Y-14533095D01*
X9793095Y-14542619D01*
X9993095Y-14666428D02*
X10002619Y-14675952D01*
X9993095Y-14685476D01*
X9983571Y-14675952D01*
X9993095Y-14666428D01*
X9993095Y-14685476D01*
X10078810Y-14504524D02*
X10088333Y-14495000D01*
X10107381Y-14485476D01*
X10155000Y-14485476D01*
X10174048Y-14495000D01*
X10183571Y-14504524D01*
X10193095Y-14523571D01*
X10193095Y-14542619D01*
X10183571Y-14571190D01*
X10069286Y-14685476D01*
X10193095Y-14685476D01*
X10316905Y-14485476D02*
X10335952Y-14485476D01*
X10355000Y-14495000D01*
X10364524Y-14504524D01*
X10374048Y-14523571D01*
X10383571Y-14561667D01*
X10383571Y-14609286D01*
X10374048Y-14647381D01*
X10364524Y-14666428D01*
X10355000Y-14675952D01*
X10335952Y-14685476D01*
X10316905Y-14685476D01*
X10297857Y-14675952D01*
X10288333Y-14666428D01*
X10278810Y-14647381D01*
X10269286Y-14609286D01*
X10269286Y-14561667D01*
X10278810Y-14523571D01*
X10288333Y-14504524D01*
X10297857Y-14495000D01*
X10316905Y-14485476D01*
X10507381Y-14485476D02*
X10526429Y-14485476D01*
X10545476Y-14495000D01*
X10555000Y-14504524D01*
X10564524Y-14523571D01*
X10574048Y-14561667D01*
X10574048Y-14609286D01*
X10564524Y-14647381D01*
X10555000Y-14666428D01*
X10545476Y-14675952D01*
X10526429Y-14685476D01*
X10507381Y-14685476D01*
X10488333Y-14675952D01*
X10478810Y-14666428D01*
X10469286Y-14647381D01*
X10459762Y-14609286D01*
X10459762Y-14561667D01*
X10469286Y-14523571D01*
X10478810Y-14504524D01*
X10488333Y-14495000D01*
X10507381Y-14485476D01*
X10659762Y-14685476D02*
X10659762Y-14552143D01*
X10659762Y-14571190D02*
X10669286Y-14561667D01*
X10688333Y-14552143D01*
X10716905Y-14552143D01*
X10735952Y-14561667D01*
X10745476Y-14580714D01*
X10745476Y-14685476D01*
X10745476Y-14580714D02*
X10755000Y-14561667D01*
X10774048Y-14552143D01*
X10802619Y-14552143D01*
X10821667Y-14561667D01*
X10831190Y-14580714D01*
X10831190Y-14685476D01*
X10926429Y-14685476D02*
X10926429Y-14552143D01*
X10926429Y-14571190D02*
X10935952Y-14561667D01*
X10955000Y-14552143D01*
X10983571Y-14552143D01*
X11002619Y-14561667D01*
X11012143Y-14580714D01*
X11012143Y-14685476D01*
X11012143Y-14580714D02*
X11021667Y-14561667D01*
X11040714Y-14552143D01*
X11069286Y-14552143D01*
X11088333Y-14561667D01*
X11097857Y-14580714D01*
X11097857Y-14685476D01*
X11488333Y-14475952D02*
X11316905Y-14733095D01*
X11745476Y-14485476D02*
X11764524Y-14485476D01*
X11783571Y-14495000D01*
X11793095Y-14504524D01*
X11802619Y-14523571D01*
X11812143Y-14561667D01*
X11812143Y-14609286D01*
X11802619Y-14647381D01*
X11793095Y-14666428D01*
X11783571Y-14675952D01*
X11764524Y-14685476D01*
X11745476Y-14685476D01*
X11726428Y-14675952D01*
X11716905Y-14666428D01*
X11707381Y-14647381D01*
X11697857Y-14609286D01*
X11697857Y-14561667D01*
X11707381Y-14523571D01*
X11716905Y-14504524D01*
X11726428Y-14495000D01*
X11745476Y-14485476D01*
X11897857Y-14666428D02*
X11907381Y-14675952D01*
X11897857Y-14685476D01*
X11888333Y-14675952D01*
X11897857Y-14666428D01*
X11897857Y-14685476D01*
X12031190Y-14485476D02*
X12050238Y-14485476D01*
X12069286Y-14495000D01*
X12078809Y-14504524D01*
X12088333Y-14523571D01*
X12097857Y-14561667D01*
X12097857Y-14609286D01*
X12088333Y-14647381D01*
X12078809Y-14666428D01*
X12069286Y-14675952D01*
X12050238Y-14685476D01*
X12031190Y-14685476D01*
X12012143Y-14675952D01*
X12002619Y-14666428D01*
X11993095Y-14647381D01*
X11983571Y-14609286D01*
X11983571Y-14561667D01*
X11993095Y-14523571D01*
X12002619Y-14504524D01*
X12012143Y-14495000D01*
X12031190Y-14485476D01*
X12269286Y-14552143D02*
X12269286Y-14685476D01*
X12221667Y-14475952D02*
X12174048Y-14618809D01*
X12297857Y-14618809D01*
X12355000Y-14485476D02*
X12488333Y-14485476D01*
X12402619Y-14685476D01*
X12555000Y-14504524D02*
X12564524Y-14495000D01*
X12583571Y-14485476D01*
X12631190Y-14485476D01*
X12650238Y-14495000D01*
X12659762Y-14504524D01*
X12669286Y-14523571D01*
X12669286Y-14542619D01*
X12659762Y-14571190D01*
X12545476Y-14685476D01*
X12669286Y-14685476D01*
X12745476Y-14485476D02*
X12745476Y-14523571D01*
X12821667Y-14485476D02*
X12821667Y-14523571D01*
X13116905Y-14761667D02*
X13107381Y-14752143D01*
X13088333Y-14723571D01*
X13078809Y-14704524D01*
X13069286Y-14675952D01*
X13059762Y-14628333D01*
X13059762Y-14590238D01*
X13069286Y-14542619D01*
X13078809Y-14514048D01*
X13088333Y-14495000D01*
X13107381Y-14466428D01*
X13116905Y-14456905D01*
X13278809Y-14485476D02*
X13240714Y-14485476D01*
X13221667Y-14495000D01*
X13212143Y-14504524D01*
X13193095Y-14533095D01*
X13183571Y-14571190D01*
X13183571Y-14647381D01*
X13193095Y-14666428D01*
X13202619Y-14675952D01*
X13221667Y-14685476D01*
X13259762Y-14685476D01*
X13278809Y-14675952D01*
X13288333Y-14666428D01*
X13297857Y-14647381D01*
X13297857Y-14599762D01*
X13288333Y-14580714D01*
X13278809Y-14571190D01*
X13259762Y-14561667D01*
X13221667Y-14561667D01*
X13202619Y-14571190D01*
X13193095Y-14580714D01*
X13183571Y-14599762D01*
X13535952Y-14685476D02*
X13535952Y-14485476D01*
X13621667Y-14685476D02*
X13621667Y-14580714D01*
X13612143Y-14561667D01*
X13593095Y-14552143D01*
X13564524Y-14552143D01*
X13545476Y-14561667D01*
X13535952Y-14571190D01*
X13745476Y-14685476D02*
X13726428Y-14675952D01*
X13716905Y-14666428D01*
X13707381Y-14647381D01*
X13707381Y-14590238D01*
X13716905Y-14571190D01*
X13726428Y-14561667D01*
X13745476Y-14552143D01*
X13774048Y-14552143D01*
X13793095Y-14561667D01*
X13802619Y-14571190D01*
X13812143Y-14590238D01*
X13812143Y-14647381D01*
X13802619Y-14666428D01*
X13793095Y-14675952D01*
X13774048Y-14685476D01*
X13745476Y-14685476D01*
X13926428Y-14685476D02*
X13907381Y-14675952D01*
X13897857Y-14656905D01*
X13897857Y-14485476D01*
X14078809Y-14675952D02*
X14059762Y-14685476D01*
X14021667Y-14685476D01*
X14002619Y-14675952D01*
X13993095Y-14656905D01*
X13993095Y-14580714D01*
X14002619Y-14561667D01*
X14021667Y-14552143D01*
X14059762Y-14552143D01*
X14078809Y-14561667D01*
X14088333Y-14580714D01*
X14088333Y-14599762D01*
X13993095Y-14618809D01*
X14164524Y-14675952D02*
X14183571Y-14685476D01*
X14221667Y-14685476D01*
X14240714Y-14675952D01*
X14250238Y-14656905D01*
X14250238Y-14647381D01*
X14240714Y-14628333D01*
X14221667Y-14618809D01*
X14193095Y-14618809D01*
X14174048Y-14609286D01*
X14164524Y-14590238D01*
X14164524Y-14580714D01*
X14174048Y-14561667D01*
X14193095Y-14552143D01*
X14221667Y-14552143D01*
X14240714Y-14561667D01*
X14316905Y-14761667D02*
X14326428Y-14752143D01*
X14345476Y-14723571D01*
X14355000Y-14704524D01*
X14364524Y-14675952D01*
X14374048Y-14628333D01*
X14374048Y-14590238D01*
X14364524Y-14542619D01*
X14355000Y-14514048D01*
X14345476Y-14495000D01*
X14326428Y-14466428D01*
X14316905Y-14456905D01*
X14678809Y-14761667D02*
X14669286Y-14752143D01*
X14650238Y-14723571D01*
X14640714Y-14704524D01*
X14631190Y-14675952D01*
X14621667Y-14628333D01*
X14621667Y-14590238D01*
X14631190Y-14542619D01*
X14640714Y-14514048D01*
X14650238Y-14495000D01*
X14669286Y-14466428D01*
X14678809Y-14456905D01*
X14755000Y-14552143D02*
X14755000Y-14685476D01*
X14755000Y-14571190D02*
X14764524Y-14561667D01*
X14783571Y-14552143D01*
X14812143Y-14552143D01*
X14831190Y-14561667D01*
X14840714Y-14580714D01*
X14840714Y-14685476D01*
X14964524Y-14685476D02*
X14945476Y-14675952D01*
X14935952Y-14666428D01*
X14926428Y-14647381D01*
X14926428Y-14590238D01*
X14935952Y-14571190D01*
X14945476Y-14561667D01*
X14964524Y-14552143D01*
X14993095Y-14552143D01*
X15012143Y-14561667D01*
X15021667Y-14571190D01*
X15031190Y-14590238D01*
X15031190Y-14647381D01*
X15021667Y-14666428D01*
X15012143Y-14675952D01*
X14993095Y-14685476D01*
X14964524Y-14685476D01*
X15088333Y-14552143D02*
X15164524Y-14552143D01*
X15116905Y-14485476D02*
X15116905Y-14656905D01*
X15126428Y-14675952D01*
X15145476Y-14685476D01*
X15164524Y-14685476D01*
X15383571Y-14552143D02*
X15383571Y-14752143D01*
X15383571Y-14561667D02*
X15402619Y-14552143D01*
X15440714Y-14552143D01*
X15459762Y-14561667D01*
X15469286Y-14571190D01*
X15478809Y-14590238D01*
X15478809Y-14647381D01*
X15469286Y-14666428D01*
X15459762Y-14675952D01*
X15440714Y-14685476D01*
X15402619Y-14685476D01*
X15383571Y-14675952D01*
X15593095Y-14685476D02*
X15574048Y-14675952D01*
X15564524Y-14656905D01*
X15564524Y-14485476D01*
X15755000Y-14685476D02*
X15755000Y-14580714D01*
X15745476Y-14561667D01*
X15726428Y-14552143D01*
X15688333Y-14552143D01*
X15669286Y-14561667D01*
X15755000Y-14675952D02*
X15735952Y-14685476D01*
X15688333Y-14685476D01*
X15669286Y-14675952D01*
X15659762Y-14656905D01*
X15659762Y-14637857D01*
X15669286Y-14618809D01*
X15688333Y-14609286D01*
X15735952Y-14609286D01*
X15755000Y-14599762D01*
X15821667Y-14552143D02*
X15897857Y-14552143D01*
X15850238Y-14485476D02*
X15850238Y-14656905D01*
X15859762Y-14675952D01*
X15878809Y-14685476D01*
X15897857Y-14685476D01*
X16040714Y-14675952D02*
X16021667Y-14685476D01*
X15983571Y-14685476D01*
X15964524Y-14675952D01*
X15955000Y-14656905D01*
X15955000Y-14580714D01*
X15964524Y-14561667D01*
X15983571Y-14552143D01*
X16021667Y-14552143D01*
X16040714Y-14561667D01*
X16050238Y-14580714D01*
X16050238Y-14599762D01*
X15955000Y-14618809D01*
X16221667Y-14685476D02*
X16221667Y-14485476D01*
X16221667Y-14675952D02*
X16202619Y-14685476D01*
X16164524Y-14685476D01*
X16145476Y-14675952D01*
X16135952Y-14666428D01*
X16126428Y-14647381D01*
X16126428Y-14590238D01*
X16135952Y-14571190D01*
X16145476Y-14561667D01*
X16164524Y-14552143D01*
X16202619Y-14552143D01*
X16221667Y-14561667D01*
X16297857Y-14761667D02*
X16307381Y-14752143D01*
X16326428Y-14723571D01*
X16335952Y-14704524D01*
X16345476Y-14675952D01*
X16355000Y-14628333D01*
X16355000Y-14590238D01*
X16345476Y-14542619D01*
X16335952Y-14514048D01*
X16326428Y-14495000D01*
X16307381Y-14466428D01*
X16297857Y-14456905D01*
D13*
X9545000Y-14859000D02*
G75*
G03*
X9545000Y-14859000I-75000J0D01*
G01*
D11*
X9907381Y-14949476D02*
X9793095Y-14949476D01*
X9850238Y-14949476D02*
X9850238Y-14749476D01*
X9831190Y-14778048D01*
X9812143Y-14797095D01*
X9793095Y-14806619D01*
X9993095Y-14930428D02*
X10002619Y-14939952D01*
X9993095Y-14949476D01*
X9983571Y-14939952D01*
X9993095Y-14930428D01*
X9993095Y-14949476D01*
X10183571Y-14749476D02*
X10088333Y-14749476D01*
X10078810Y-14844714D01*
X10088333Y-14835190D01*
X10107381Y-14825667D01*
X10155000Y-14825667D01*
X10174048Y-14835190D01*
X10183571Y-14844714D01*
X10193095Y-14863762D01*
X10193095Y-14911381D01*
X10183571Y-14930428D01*
X10174048Y-14939952D01*
X10155000Y-14949476D01*
X10107381Y-14949476D01*
X10088333Y-14939952D01*
X10078810Y-14930428D01*
X10316905Y-14749476D02*
X10335952Y-14749476D01*
X10355000Y-14759000D01*
X10364524Y-14768524D01*
X10374048Y-14787571D01*
X10383571Y-14825667D01*
X10383571Y-14873286D01*
X10374048Y-14911381D01*
X10364524Y-14930428D01*
X10355000Y-14939952D01*
X10335952Y-14949476D01*
X10316905Y-14949476D01*
X10297857Y-14939952D01*
X10288333Y-14930428D01*
X10278810Y-14911381D01*
X10269286Y-14873286D01*
X10269286Y-14825667D01*
X10278810Y-14787571D01*
X10288333Y-14768524D01*
X10297857Y-14759000D01*
X10316905Y-14749476D01*
X10507381Y-14749476D02*
X10526429Y-14749476D01*
X10545476Y-14759000D01*
X10555000Y-14768524D01*
X10564524Y-14787571D01*
X10574048Y-14825667D01*
X10574048Y-14873286D01*
X10564524Y-14911381D01*
X10555000Y-14930428D01*
X10545476Y-14939952D01*
X10526429Y-14949476D01*
X10507381Y-14949476D01*
X10488333Y-14939952D01*
X10478810Y-14930428D01*
X10469286Y-14911381D01*
X10459762Y-14873286D01*
X10459762Y-14825667D01*
X10469286Y-14787571D01*
X10478810Y-14768524D01*
X10488333Y-14759000D01*
X10507381Y-14749476D01*
X10659762Y-14949476D02*
X10659762Y-14816143D01*
X10659762Y-14835190D02*
X10669286Y-14825667D01*
X10688333Y-14816143D01*
X10716905Y-14816143D01*
X10735952Y-14825667D01*
X10745476Y-14844714D01*
X10745476Y-14949476D01*
X10745476Y-14844714D02*
X10755000Y-14825667D01*
X10774048Y-14816143D01*
X10802619Y-14816143D01*
X10821667Y-14825667D01*
X10831190Y-14844714D01*
X10831190Y-14949476D01*
X10926429Y-14949476D02*
X10926429Y-14816143D01*
X10926429Y-14835190D02*
X10935952Y-14825667D01*
X10955000Y-14816143D01*
X10983571Y-14816143D01*
X11002619Y-14825667D01*
X11012143Y-14844714D01*
X11012143Y-14949476D01*
X11012143Y-14844714D02*
X11021667Y-14825667D01*
X11040714Y-14816143D01*
X11069286Y-14816143D01*
X11088333Y-14825667D01*
X11097857Y-14844714D01*
X11097857Y-14949476D01*
X11488333Y-14739952D02*
X11316905Y-14997095D01*
X11745476Y-14749476D02*
X11764524Y-14749476D01*
X11783571Y-14759000D01*
X11793095Y-14768524D01*
X11802619Y-14787571D01*
X11812143Y-14825667D01*
X11812143Y-14873286D01*
X11802619Y-14911381D01*
X11793095Y-14930428D01*
X11783571Y-14939952D01*
X11764524Y-14949476D01*
X11745476Y-14949476D01*
X11726428Y-14939952D01*
X11716905Y-14930428D01*
X11707381Y-14911381D01*
X11697857Y-14873286D01*
X11697857Y-14825667D01*
X11707381Y-14787571D01*
X11716905Y-14768524D01*
X11726428Y-14759000D01*
X11745476Y-14749476D01*
X11897857Y-14930428D02*
X11907381Y-14939952D01*
X11897857Y-14949476D01*
X11888333Y-14939952D01*
X11897857Y-14930428D01*
X11897857Y-14949476D01*
X12031190Y-14749476D02*
X12050238Y-14749476D01*
X12069286Y-14759000D01*
X12078809Y-14768524D01*
X12088333Y-14787571D01*
X12097857Y-14825667D01*
X12097857Y-14873286D01*
X12088333Y-14911381D01*
X12078809Y-14930428D01*
X12069286Y-14939952D01*
X12050238Y-14949476D01*
X12031190Y-14949476D01*
X12012143Y-14939952D01*
X12002619Y-14930428D01*
X11993095Y-14911381D01*
X11983571Y-14873286D01*
X11983571Y-14825667D01*
X11993095Y-14787571D01*
X12002619Y-14768524D01*
X12012143Y-14759000D01*
X12031190Y-14749476D01*
X12278809Y-14749476D02*
X12183571Y-14749476D01*
X12174048Y-14844714D01*
X12183571Y-14835190D01*
X12202619Y-14825667D01*
X12250238Y-14825667D01*
X12269286Y-14835190D01*
X12278809Y-14844714D01*
X12288333Y-14863762D01*
X12288333Y-14911381D01*
X12278809Y-14930428D01*
X12269286Y-14939952D01*
X12250238Y-14949476D01*
X12202619Y-14949476D01*
X12183571Y-14939952D01*
X12174048Y-14930428D01*
X12383571Y-14949476D02*
X12421667Y-14949476D01*
X12440714Y-14939952D01*
X12450238Y-14930428D01*
X12469286Y-14901857D01*
X12478809Y-14863762D01*
X12478809Y-14787571D01*
X12469286Y-14768524D01*
X12459762Y-14759000D01*
X12440714Y-14749476D01*
X12402619Y-14749476D01*
X12383571Y-14759000D01*
X12374048Y-14768524D01*
X12364524Y-14787571D01*
X12364524Y-14835190D01*
X12374048Y-14854238D01*
X12383571Y-14863762D01*
X12402619Y-14873286D01*
X12440714Y-14873286D01*
X12459762Y-14863762D01*
X12469286Y-14854238D01*
X12478809Y-14835190D01*
X12669286Y-14949476D02*
X12555000Y-14949476D01*
X12612143Y-14949476D02*
X12612143Y-14749476D01*
X12593095Y-14778048D01*
X12574048Y-14797095D01*
X12555000Y-14806619D01*
X12745476Y-14749476D02*
X12745476Y-14787571D01*
X12821667Y-14749476D02*
X12821667Y-14787571D01*
X13116905Y-15025667D02*
X13107381Y-15016143D01*
X13088333Y-14987571D01*
X13078809Y-14968524D01*
X13069286Y-14939952D01*
X13059762Y-14892333D01*
X13059762Y-14854238D01*
X13069286Y-14806619D01*
X13078809Y-14778048D01*
X13088333Y-14759000D01*
X13107381Y-14730428D01*
X13116905Y-14720905D01*
X13183571Y-14768524D02*
X13193095Y-14759000D01*
X13212143Y-14749476D01*
X13259762Y-14749476D01*
X13278809Y-14759000D01*
X13288333Y-14768524D01*
X13297857Y-14787571D01*
X13297857Y-14806619D01*
X13288333Y-14835190D01*
X13174048Y-14949476D01*
X13297857Y-14949476D01*
X13535952Y-14949476D02*
X13535952Y-14749476D01*
X13621667Y-14949476D02*
X13621667Y-14844714D01*
X13612143Y-14825667D01*
X13593095Y-14816143D01*
X13564524Y-14816143D01*
X13545476Y-14825667D01*
X13535952Y-14835190D01*
X13745476Y-14949476D02*
X13726428Y-14939952D01*
X13716905Y-14930428D01*
X13707381Y-14911381D01*
X13707381Y-14854238D01*
X13716905Y-14835190D01*
X13726428Y-14825667D01*
X13745476Y-14816143D01*
X13774048Y-14816143D01*
X13793095Y-14825667D01*
X13802619Y-14835190D01*
X13812143Y-14854238D01*
X13812143Y-14911381D01*
X13802619Y-14930428D01*
X13793095Y-14939952D01*
X13774048Y-14949476D01*
X13745476Y-14949476D01*
X13926428Y-14949476D02*
X13907381Y-14939952D01*
X13897857Y-14920905D01*
X13897857Y-14749476D01*
X14078809Y-14939952D02*
X14059762Y-14949476D01*
X14021667Y-14949476D01*
X14002619Y-14939952D01*
X13993095Y-14920905D01*
X13993095Y-14844714D01*
X14002619Y-14825667D01*
X14021667Y-14816143D01*
X14059762Y-14816143D01*
X14078809Y-14825667D01*
X14088333Y-14844714D01*
X14088333Y-14863762D01*
X13993095Y-14882809D01*
X14164524Y-14939952D02*
X14183571Y-14949476D01*
X14221667Y-14949476D01*
X14240714Y-14939952D01*
X14250238Y-14920905D01*
X14250238Y-14911381D01*
X14240714Y-14892333D01*
X14221667Y-14882809D01*
X14193095Y-14882809D01*
X14174048Y-14873286D01*
X14164524Y-14854238D01*
X14164524Y-14844714D01*
X14174048Y-14825667D01*
X14193095Y-14816143D01*
X14221667Y-14816143D01*
X14240714Y-14825667D01*
X14316905Y-15025667D02*
X14326428Y-15016143D01*
X14345476Y-14987571D01*
X14355000Y-14968524D01*
X14364524Y-14939952D01*
X14374048Y-14892333D01*
X14374048Y-14854238D01*
X14364524Y-14806619D01*
X14355000Y-14778048D01*
X14345476Y-14759000D01*
X14326428Y-14730428D01*
X14316905Y-14720905D01*
X14678809Y-15025667D02*
X14669286Y-15016143D01*
X14650238Y-14987571D01*
X14640714Y-14968524D01*
X14631190Y-14939952D01*
X14621667Y-14892333D01*
X14621667Y-14854238D01*
X14631190Y-14806619D01*
X14640714Y-14778048D01*
X14650238Y-14759000D01*
X14669286Y-14730428D01*
X14678809Y-14720905D01*
X14755000Y-14816143D02*
X14755000Y-14949476D01*
X14755000Y-14835190D02*
X14764524Y-14825667D01*
X14783571Y-14816143D01*
X14812143Y-14816143D01*
X14831190Y-14825667D01*
X14840714Y-14844714D01*
X14840714Y-14949476D01*
X14964524Y-14949476D02*
X14945476Y-14939952D01*
X14935952Y-14930428D01*
X14926428Y-14911381D01*
X14926428Y-14854238D01*
X14935952Y-14835190D01*
X14945476Y-14825667D01*
X14964524Y-14816143D01*
X14993095Y-14816143D01*
X15012143Y-14825667D01*
X15021667Y-14835190D01*
X15031190Y-14854238D01*
X15031190Y-14911381D01*
X15021667Y-14930428D01*
X15012143Y-14939952D01*
X14993095Y-14949476D01*
X14964524Y-14949476D01*
X15088333Y-14816143D02*
X15164524Y-14816143D01*
X15116905Y-14749476D02*
X15116905Y-14920905D01*
X15126428Y-14939952D01*
X15145476Y-14949476D01*
X15164524Y-14949476D01*
X15383571Y-14816143D02*
X15383571Y-15016143D01*
X15383571Y-14825667D02*
X15402619Y-14816143D01*
X15440714Y-14816143D01*
X15459762Y-14825667D01*
X15469286Y-14835190D01*
X15478809Y-14854238D01*
X15478809Y-14911381D01*
X15469286Y-14930428D01*
X15459762Y-14939952D01*
X15440714Y-14949476D01*
X15402619Y-14949476D01*
X15383571Y-14939952D01*
X15593095Y-14949476D02*
X15574048Y-14939952D01*
X15564524Y-14920905D01*
X15564524Y-14749476D01*
X15755000Y-14949476D02*
X15755000Y-14844714D01*
X15745476Y-14825667D01*
X15726428Y-14816143D01*
X15688333Y-14816143D01*
X15669286Y-14825667D01*
X15755000Y-14939952D02*
X15735952Y-14949476D01*
X15688333Y-14949476D01*
X15669286Y-14939952D01*
X15659762Y-14920905D01*
X15659762Y-14901857D01*
X15669286Y-14882809D01*
X15688333Y-14873286D01*
X15735952Y-14873286D01*
X15755000Y-14863762D01*
X15821667Y-14816143D02*
X15897857Y-14816143D01*
X15850238Y-14749476D02*
X15850238Y-14920905D01*
X15859762Y-14939952D01*
X15878809Y-14949476D01*
X15897857Y-14949476D01*
X16040714Y-14939952D02*
X16021667Y-14949476D01*
X15983571Y-14949476D01*
X15964524Y-14939952D01*
X15955000Y-14920905D01*
X15955000Y-14844714D01*
X15964524Y-14825667D01*
X15983571Y-14816143D01*
X16021667Y-14816143D01*
X16040714Y-14825667D01*
X16050238Y-14844714D01*
X16050238Y-14863762D01*
X15955000Y-14882809D01*
X16221667Y-14949476D02*
X16221667Y-14749476D01*
X16221667Y-14939952D02*
X16202619Y-14949476D01*
X16164524Y-14949476D01*
X16145476Y-14939952D01*
X16135952Y-14930428D01*
X16126428Y-14911381D01*
X16126428Y-14854238D01*
X16135952Y-14835190D01*
X16145476Y-14825667D01*
X16164524Y-14816143D01*
X16202619Y-14816143D01*
X16221667Y-14825667D01*
X16297857Y-15025667D02*
X16307381Y-15016143D01*
X16326428Y-14987571D01*
X16335952Y-14968524D01*
X16345476Y-14939952D01*
X16355000Y-14892333D01*
X16355000Y-14854238D01*
X16345476Y-14806619D01*
X16335952Y-14778048D01*
X16326428Y-14759000D01*
X16307381Y-14730428D01*
X16297857Y-14720905D01*
D14*
X9455000Y-15039000D02*
X9455000Y-15219000D01*
X9365000Y-15129000D02*
X9545000Y-15129000D01*
D11*
X9907381Y-15219476D02*
X9793095Y-15219476D01*
X9850238Y-15219476D02*
X9850238Y-15019476D01*
X9831190Y-15048048D01*
X9812143Y-15067095D01*
X9793095Y-15076619D01*
X9993095Y-15200428D02*
X10002619Y-15209952D01*
X9993095Y-15219476D01*
X9983571Y-15209952D01*
X9993095Y-15200428D01*
X9993095Y-15219476D01*
X10116905Y-15105190D02*
X10097857Y-15095667D01*
X10088333Y-15086143D01*
X10078810Y-15067095D01*
X10078810Y-15057571D01*
X10088333Y-15038524D01*
X10097857Y-15029000D01*
X10116905Y-15019476D01*
X10155000Y-15019476D01*
X10174048Y-15029000D01*
X10183571Y-15038524D01*
X10193095Y-15057571D01*
X10193095Y-15067095D01*
X10183571Y-15086143D01*
X10174048Y-15095667D01*
X10155000Y-15105190D01*
X10116905Y-15105190D01*
X10097857Y-15114714D01*
X10088333Y-15124238D01*
X10078810Y-15143286D01*
X10078810Y-15181381D01*
X10088333Y-15200428D01*
X10097857Y-15209952D01*
X10116905Y-15219476D01*
X10155000Y-15219476D01*
X10174048Y-15209952D01*
X10183571Y-15200428D01*
X10193095Y-15181381D01*
X10193095Y-15143286D01*
X10183571Y-15124238D01*
X10174048Y-15114714D01*
X10155000Y-15105190D01*
X10316905Y-15019476D02*
X10335952Y-15019476D01*
X10355000Y-15029000D01*
X10364524Y-15038524D01*
X10374048Y-15057571D01*
X10383571Y-15095667D01*
X10383571Y-15143286D01*
X10374048Y-15181381D01*
X10364524Y-15200428D01*
X10355000Y-15209952D01*
X10335952Y-15219476D01*
X10316905Y-15219476D01*
X10297857Y-15209952D01*
X10288333Y-15200428D01*
X10278810Y-15181381D01*
X10269286Y-15143286D01*
X10269286Y-15095667D01*
X10278810Y-15057571D01*
X10288333Y-15038524D01*
X10297857Y-15029000D01*
X10316905Y-15019476D01*
X10507381Y-15019476D02*
X10526429Y-15019476D01*
X10545476Y-15029000D01*
X10555000Y-15038524D01*
X10564524Y-15057571D01*
X10574048Y-15095667D01*
X10574048Y-15143286D01*
X10564524Y-15181381D01*
X10555000Y-15200428D01*
X10545476Y-15209952D01*
X10526429Y-15219476D01*
X10507381Y-15219476D01*
X10488333Y-15209952D01*
X10478810Y-15200428D01*
X10469286Y-15181381D01*
X10459762Y-15143286D01*
X10459762Y-15095667D01*
X10469286Y-15057571D01*
X10478810Y-15038524D01*
X10488333Y-15029000D01*
X10507381Y-15019476D01*
X10659762Y-15219476D02*
X10659762Y-15086143D01*
X10659762Y-15105190D02*
X10669286Y-15095667D01*
X10688333Y-15086143D01*
X10716905Y-15086143D01*
X10735952Y-15095667D01*
X10745476Y-15114714D01*
X10745476Y-15219476D01*
X10745476Y-15114714D02*
X10755000Y-15095667D01*
X10774048Y-15086143D01*
X10802619Y-15086143D01*
X10821667Y-15095667D01*
X10831190Y-15114714D01*
X10831190Y-15219476D01*
X10926429Y-15219476D02*
X10926429Y-15086143D01*
X10926429Y-15105190D02*
X10935952Y-15095667D01*
X10955000Y-15086143D01*
X10983571Y-15086143D01*
X11002619Y-15095667D01*
X11012143Y-15114714D01*
X11012143Y-15219476D01*
X11012143Y-15114714D02*
X11021667Y-15095667D01*
X11040714Y-15086143D01*
X11069286Y-15086143D01*
X11088333Y-15095667D01*
X11097857Y-15114714D01*
X11097857Y-15219476D01*
X11488333Y-15009952D02*
X11316905Y-15267095D01*
X11745476Y-15019476D02*
X11764524Y-15019476D01*
X11783571Y-15029000D01*
X11793095Y-15038524D01*
X11802619Y-15057571D01*
X11812143Y-15095667D01*
X11812143Y-15143286D01*
X11802619Y-15181381D01*
X11793095Y-15200428D01*
X11783571Y-15209952D01*
X11764524Y-15219476D01*
X11745476Y-15219476D01*
X11726428Y-15209952D01*
X11716905Y-15200428D01*
X11707381Y-15181381D01*
X11697857Y-15143286D01*
X11697857Y-15095667D01*
X11707381Y-15057571D01*
X11716905Y-15038524D01*
X11726428Y-15029000D01*
X11745476Y-15019476D01*
X11897857Y-15200428D02*
X11907381Y-15209952D01*
X11897857Y-15219476D01*
X11888333Y-15209952D01*
X11897857Y-15200428D01*
X11897857Y-15219476D01*
X12031190Y-15019476D02*
X12050238Y-15019476D01*
X12069286Y-15029000D01*
X12078809Y-15038524D01*
X12088333Y-15057571D01*
X12097857Y-15095667D01*
X12097857Y-15143286D01*
X12088333Y-15181381D01*
X12078809Y-15200428D01*
X12069286Y-15209952D01*
X12050238Y-15219476D01*
X12031190Y-15219476D01*
X12012143Y-15209952D01*
X12002619Y-15200428D01*
X11993095Y-15181381D01*
X11983571Y-15143286D01*
X11983571Y-15095667D01*
X11993095Y-15057571D01*
X12002619Y-15038524D01*
X12012143Y-15029000D01*
X12031190Y-15019476D01*
X12164524Y-15019476D02*
X12297857Y-15019476D01*
X12212143Y-15219476D01*
X12412143Y-15019476D02*
X12431190Y-15019476D01*
X12450238Y-15029000D01*
X12459762Y-15038524D01*
X12469286Y-15057571D01*
X12478809Y-15095667D01*
X12478809Y-15143286D01*
X12469286Y-15181381D01*
X12459762Y-15200428D01*
X12450238Y-15209952D01*
X12431190Y-15219476D01*
X12412143Y-15219476D01*
X12393095Y-15209952D01*
X12383571Y-15200428D01*
X12374048Y-15181381D01*
X12364524Y-15143286D01*
X12364524Y-15095667D01*
X12374048Y-15057571D01*
X12383571Y-15038524D01*
X12393095Y-15029000D01*
X12412143Y-15019476D01*
X12574048Y-15219476D02*
X12612143Y-15219476D01*
X12631190Y-15209952D01*
X12640714Y-15200428D01*
X12659762Y-15171857D01*
X12669286Y-15133762D01*
X12669286Y-15057571D01*
X12659762Y-15038524D01*
X12650238Y-15029000D01*
X12631190Y-15019476D01*
X12593095Y-15019476D01*
X12574048Y-15029000D01*
X12564524Y-15038524D01*
X12555000Y-15057571D01*
X12555000Y-15105190D01*
X12564524Y-15124238D01*
X12574048Y-15133762D01*
X12593095Y-15143286D01*
X12631190Y-15143286D01*
X12650238Y-15133762D01*
X12659762Y-15124238D01*
X12669286Y-15105190D01*
X12745476Y-15019476D02*
X12745476Y-15057571D01*
X12821667Y-15019476D02*
X12821667Y-15057571D01*
X13116905Y-15295667D02*
X13107381Y-15286143D01*
X13088333Y-15257571D01*
X13078809Y-15238524D01*
X13069286Y-15209952D01*
X13059762Y-15162333D01*
X13059762Y-15124238D01*
X13069286Y-15076619D01*
X13078809Y-15048048D01*
X13088333Y-15029000D01*
X13107381Y-15000428D01*
X13116905Y-14990905D01*
X13183571Y-15038524D02*
X13193095Y-15029000D01*
X13212143Y-15019476D01*
X13259762Y-15019476D01*
X13278809Y-15029000D01*
X13288333Y-15038524D01*
X13297857Y-15057571D01*
X13297857Y-15076619D01*
X13288333Y-15105190D01*
X13174048Y-15219476D01*
X13297857Y-15219476D01*
X13535952Y-15219476D02*
X13535952Y-15019476D01*
X13621667Y-15219476D02*
X13621667Y-15114714D01*
X13612143Y-15095667D01*
X13593095Y-15086143D01*
X13564524Y-15086143D01*
X13545476Y-15095667D01*
X13535952Y-15105190D01*
X13745476Y-15219476D02*
X13726428Y-15209952D01*
X13716905Y-15200428D01*
X13707381Y-15181381D01*
X13707381Y-15124238D01*
X13716905Y-15105190D01*
X13726428Y-15095667D01*
X13745476Y-15086143D01*
X13774048Y-15086143D01*
X13793095Y-15095667D01*
X13802619Y-15105190D01*
X13812143Y-15124238D01*
X13812143Y-15181381D01*
X13802619Y-15200428D01*
X13793095Y-15209952D01*
X13774048Y-15219476D01*
X13745476Y-15219476D01*
X13926428Y-15219476D02*
X13907381Y-15209952D01*
X13897857Y-15190905D01*
X13897857Y-15019476D01*
X14078809Y-15209952D02*
X14059762Y-15219476D01*
X14021667Y-15219476D01*
X14002619Y-15209952D01*
X13993095Y-15190905D01*
X13993095Y-15114714D01*
X14002619Y-15095667D01*
X14021667Y-15086143D01*
X14059762Y-15086143D01*
X14078809Y-15095667D01*
X14088333Y-15114714D01*
X14088333Y-15133762D01*
X13993095Y-15152809D01*
X14164524Y-15209952D02*
X14183571Y-15219476D01*
X14221667Y-15219476D01*
X14240714Y-15209952D01*
X14250238Y-15190905D01*
X14250238Y-15181381D01*
X14240714Y-15162333D01*
X14221667Y-15152809D01*
X14193095Y-15152809D01*
X14174048Y-15143286D01*
X14164524Y-15124238D01*
X14164524Y-15114714D01*
X14174048Y-15095667D01*
X14193095Y-15086143D01*
X14221667Y-15086143D01*
X14240714Y-15095667D01*
X14316905Y-15295667D02*
X14326428Y-15286143D01*
X14345476Y-15257571D01*
X14355000Y-15238524D01*
X14364524Y-15209952D01*
X14374048Y-15162333D01*
X14374048Y-15124238D01*
X14364524Y-15076619D01*
X14355000Y-15048048D01*
X14345476Y-15029000D01*
X14326428Y-15000428D01*
X14316905Y-14990905D01*
X14678809Y-15295667D02*
X14669286Y-15286143D01*
X14650238Y-15257571D01*
X14640714Y-15238524D01*
X14631190Y-15209952D01*
X14621667Y-15162333D01*
X14621667Y-15124238D01*
X14631190Y-15076619D01*
X14640714Y-15048048D01*
X14650238Y-15029000D01*
X14669286Y-15000428D01*
X14678809Y-14990905D01*
X14755000Y-15086143D02*
X14755000Y-15219476D01*
X14755000Y-15105190D02*
X14764524Y-15095667D01*
X14783571Y-15086143D01*
X14812143Y-15086143D01*
X14831190Y-15095667D01*
X14840714Y-15114714D01*
X14840714Y-15219476D01*
X14964524Y-15219476D02*
X14945476Y-15209952D01*
X14935952Y-15200428D01*
X14926428Y-15181381D01*
X14926428Y-15124238D01*
X14935952Y-15105190D01*
X14945476Y-15095667D01*
X14964524Y-15086143D01*
X14993095Y-15086143D01*
X15012143Y-15095667D01*
X15021667Y-15105190D01*
X15031190Y-15124238D01*
X15031190Y-15181381D01*
X15021667Y-15200428D01*
X15012143Y-15209952D01*
X14993095Y-15219476D01*
X14964524Y-15219476D01*
X15088333Y-15086143D02*
X15164524Y-15086143D01*
X15116905Y-15019476D02*
X15116905Y-15190905D01*
X15126428Y-15209952D01*
X15145476Y-15219476D01*
X15164524Y-15219476D01*
X15383571Y-15086143D02*
X15383571Y-15286143D01*
X15383571Y-15095667D02*
X15402619Y-15086143D01*
X15440714Y-15086143D01*
X15459762Y-15095667D01*
X15469286Y-15105190D01*
X15478809Y-15124238D01*
X15478809Y-15181381D01*
X15469286Y-15200428D01*
X15459762Y-15209952D01*
X15440714Y-15219476D01*
X15402619Y-15219476D01*
X15383571Y-15209952D01*
X15593095Y-15219476D02*
X15574048Y-15209952D01*
X15564524Y-15190905D01*
X15564524Y-15019476D01*
X15755000Y-15219476D02*
X15755000Y-15114714D01*
X15745476Y-15095667D01*
X15726428Y-15086143D01*
X15688333Y-15086143D01*
X15669286Y-15095667D01*
X15755000Y-15209952D02*
X15735952Y-15219476D01*
X15688333Y-15219476D01*
X15669286Y-15209952D01*
X15659762Y-15190905D01*
X15659762Y-15171857D01*
X15669286Y-15152809D01*
X15688333Y-15143286D01*
X15735952Y-15143286D01*
X15755000Y-15133762D01*
X15821667Y-15086143D02*
X15897857Y-15086143D01*
X15850238Y-15019476D02*
X15850238Y-15190905D01*
X15859762Y-15209952D01*
X15878809Y-15219476D01*
X15897857Y-15219476D01*
X16040714Y-15209952D02*
X16021667Y-15219476D01*
X15983571Y-15219476D01*
X15964524Y-15209952D01*
X15955000Y-15190905D01*
X15955000Y-15114714D01*
X15964524Y-15095667D01*
X15983571Y-15086143D01*
X16021667Y-15086143D01*
X16040714Y-15095667D01*
X16050238Y-15114714D01*
X16050238Y-15133762D01*
X15955000Y-15152809D01*
X16221667Y-15219476D02*
X16221667Y-15019476D01*
X16221667Y-15209952D02*
X16202619Y-15219476D01*
X16164524Y-15219476D01*
X16145476Y-15209952D01*
X16135952Y-15200428D01*
X16126428Y-15181381D01*
X16126428Y-15124238D01*
X16135952Y-15105190D01*
X16145476Y-15095667D01*
X16164524Y-15086143D01*
X16202619Y-15086143D01*
X16221667Y-15095667D01*
X16297857Y-15295667D02*
X16307381Y-15286143D01*
X16326428Y-15257571D01*
X16335952Y-15238524D01*
X16345476Y-15209952D01*
X16355000Y-15162333D01*
X16355000Y-15124238D01*
X16345476Y-15076619D01*
X16335952Y-15048048D01*
X16326428Y-15029000D01*
X16307381Y-15000428D01*
X16297857Y-14990905D01*
X9515711Y-15499711D02*
X9515711Y-15358289D01*
X9374289Y-15358289D01*
X9374289Y-15499711D01*
X9515711Y-15499711D01*
X9783571Y-15319476D02*
X9907381Y-15319476D01*
X9840714Y-15395667D01*
X9869286Y-15395667D01*
X9888333Y-15405190D01*
X9897857Y-15414714D01*
X9907381Y-15433762D01*
X9907381Y-15481381D01*
X9897857Y-15500428D01*
X9888333Y-15509952D01*
X9869286Y-15519476D01*
X9812143Y-15519476D01*
X9793095Y-15509952D01*
X9783571Y-15500428D01*
X9993095Y-15500428D02*
X10002619Y-15509952D01*
X9993095Y-15519476D01*
X9983571Y-15509952D01*
X9993095Y-15500428D01*
X9993095Y-15519476D01*
X10078810Y-15338524D02*
X10088333Y-15329000D01*
X10107381Y-15319476D01*
X10155000Y-15319476D01*
X10174048Y-15329000D01*
X10183571Y-15338524D01*
X10193095Y-15357571D01*
X10193095Y-15376619D01*
X10183571Y-15405190D01*
X10069286Y-15519476D01*
X10193095Y-15519476D01*
X10316905Y-15319476D02*
X10335952Y-15319476D01*
X10355000Y-15329000D01*
X10364524Y-15338524D01*
X10374048Y-15357571D01*
X10383571Y-15395667D01*
X10383571Y-15443286D01*
X10374048Y-15481381D01*
X10364524Y-15500428D01*
X10355000Y-15509952D01*
X10335952Y-15519476D01*
X10316905Y-15519476D01*
X10297857Y-15509952D01*
X10288333Y-15500428D01*
X10278810Y-15481381D01*
X10269286Y-15443286D01*
X10269286Y-15395667D01*
X10278810Y-15357571D01*
X10288333Y-15338524D01*
X10297857Y-15329000D01*
X10316905Y-15319476D01*
X10507381Y-15319476D02*
X10526429Y-15319476D01*
X10545476Y-15329000D01*
X10555000Y-15338524D01*
X10564524Y-15357571D01*
X10574048Y-15395667D01*
X10574048Y-15443286D01*
X10564524Y-15481381D01*
X10555000Y-15500428D01*
X10545476Y-15509952D01*
X10526429Y-15519476D01*
X10507381Y-15519476D01*
X10488333Y-15509952D01*
X10478810Y-15500428D01*
X10469286Y-15481381D01*
X10459762Y-15443286D01*
X10459762Y-15395667D01*
X10469286Y-15357571D01*
X10478810Y-15338524D01*
X10488333Y-15329000D01*
X10507381Y-15319476D01*
X10659762Y-15519476D02*
X10659762Y-15386143D01*
X10659762Y-15405190D02*
X10669286Y-15395667D01*
X10688333Y-15386143D01*
X10716905Y-15386143D01*
X10735952Y-15395667D01*
X10745476Y-15414714D01*
X10745476Y-15519476D01*
X10745476Y-15414714D02*
X10755000Y-15395667D01*
X10774048Y-15386143D01*
X10802619Y-15386143D01*
X10821667Y-15395667D01*
X10831190Y-15414714D01*
X10831190Y-15519476D01*
X10926429Y-15519476D02*
X10926429Y-15386143D01*
X10926429Y-15405190D02*
X10935952Y-15395667D01*
X10955000Y-15386143D01*
X10983571Y-15386143D01*
X11002619Y-15395667D01*
X11012143Y-15414714D01*
X11012143Y-15519476D01*
X11012143Y-15414714D02*
X11021667Y-15395667D01*
X11040714Y-15386143D01*
X11069286Y-15386143D01*
X11088333Y-15395667D01*
X11097857Y-15414714D01*
X11097857Y-15519476D01*
X11488333Y-15309952D02*
X11316905Y-15567095D01*
X11745476Y-15319476D02*
X11764524Y-15319476D01*
X11783571Y-15329000D01*
X11793095Y-15338524D01*
X11802619Y-15357571D01*
X11812143Y-15395667D01*
X11812143Y-15443286D01*
X11802619Y-15481381D01*
X11793095Y-15500428D01*
X11783571Y-15509952D01*
X11764524Y-15519476D01*
X11745476Y-15519476D01*
X11726428Y-15509952D01*
X11716905Y-15500428D01*
X11707381Y-15481381D01*
X11697857Y-15443286D01*
X11697857Y-15395667D01*
X11707381Y-15357571D01*
X11716905Y-15338524D01*
X11726428Y-15329000D01*
X11745476Y-15319476D01*
X11897857Y-15500428D02*
X11907381Y-15509952D01*
X11897857Y-15519476D01*
X11888333Y-15509952D01*
X11897857Y-15500428D01*
X11897857Y-15519476D01*
X12097857Y-15519476D02*
X11983571Y-15519476D01*
X12040714Y-15519476D02*
X12040714Y-15319476D01*
X12021667Y-15348048D01*
X12002619Y-15367095D01*
X11983571Y-15376619D01*
X12174048Y-15338524D02*
X12183571Y-15329000D01*
X12202619Y-15319476D01*
X12250238Y-15319476D01*
X12269286Y-15329000D01*
X12278809Y-15338524D01*
X12288333Y-15357571D01*
X12288333Y-15376619D01*
X12278809Y-15405190D01*
X12164524Y-15519476D01*
X12288333Y-15519476D01*
X12459762Y-15319476D02*
X12421667Y-15319476D01*
X12402619Y-15329000D01*
X12393095Y-15338524D01*
X12374048Y-15367095D01*
X12364524Y-15405190D01*
X12364524Y-15481381D01*
X12374048Y-15500428D01*
X12383571Y-15509952D01*
X12402619Y-15519476D01*
X12440714Y-15519476D01*
X12459762Y-15509952D01*
X12469286Y-15500428D01*
X12478809Y-15481381D01*
X12478809Y-15433762D01*
X12469286Y-15414714D01*
X12459762Y-15405190D01*
X12440714Y-15395667D01*
X12402619Y-15395667D01*
X12383571Y-15405190D01*
X12374048Y-15414714D01*
X12364524Y-15433762D01*
X12602619Y-15319476D02*
X12621667Y-15319476D01*
X12640714Y-15329000D01*
X12650238Y-15338524D01*
X12659762Y-15357571D01*
X12669286Y-15395667D01*
X12669286Y-15443286D01*
X12659762Y-15481381D01*
X12650238Y-15500428D01*
X12640714Y-15509952D01*
X12621667Y-15519476D01*
X12602619Y-15519476D01*
X12583571Y-15509952D01*
X12574048Y-15500428D01*
X12564524Y-15481381D01*
X12555000Y-15443286D01*
X12555000Y-15395667D01*
X12564524Y-15357571D01*
X12574048Y-15338524D01*
X12583571Y-15329000D01*
X12602619Y-15319476D01*
X12745476Y-15319476D02*
X12745476Y-15357571D01*
X12821667Y-15319476D02*
X12821667Y-15357571D01*
X13116905Y-15595667D02*
X13107381Y-15586143D01*
X13088333Y-15557571D01*
X13078809Y-15538524D01*
X13069286Y-15509952D01*
X13059762Y-15462333D01*
X13059762Y-15424238D01*
X13069286Y-15376619D01*
X13078809Y-15348048D01*
X13088333Y-15329000D01*
X13107381Y-15300428D01*
X13116905Y-15290905D01*
X13221667Y-15405190D02*
X13202619Y-15395667D01*
X13193095Y-15386143D01*
X13183571Y-15367095D01*
X13183571Y-15357571D01*
X13193095Y-15338524D01*
X13202619Y-15329000D01*
X13221667Y-15319476D01*
X13259762Y-15319476D01*
X13278809Y-15329000D01*
X13288333Y-15338524D01*
X13297857Y-15357571D01*
X13297857Y-15367095D01*
X13288333Y-15386143D01*
X13278809Y-15395667D01*
X13259762Y-15405190D01*
X13221667Y-15405190D01*
X13202619Y-15414714D01*
X13193095Y-15424238D01*
X13183571Y-15443286D01*
X13183571Y-15481381D01*
X13193095Y-15500428D01*
X13202619Y-15509952D01*
X13221667Y-15519476D01*
X13259762Y-15519476D01*
X13278809Y-15509952D01*
X13288333Y-15500428D01*
X13297857Y-15481381D01*
X13297857Y-15443286D01*
X13288333Y-15424238D01*
X13278809Y-15414714D01*
X13259762Y-15405190D01*
X13535952Y-15519476D02*
X13535952Y-15319476D01*
X13621667Y-15519476D02*
X13621667Y-15414714D01*
X13612143Y-15395667D01*
X13593095Y-15386143D01*
X13564524Y-15386143D01*
X13545476Y-15395667D01*
X13535952Y-15405190D01*
X13745476Y-15519476D02*
X13726428Y-15509952D01*
X13716905Y-15500428D01*
X13707381Y-15481381D01*
X13707381Y-15424238D01*
X13716905Y-15405190D01*
X13726428Y-15395667D01*
X13745476Y-15386143D01*
X13774048Y-15386143D01*
X13793095Y-15395667D01*
X13802619Y-15405190D01*
X13812143Y-15424238D01*
X13812143Y-15481381D01*
X13802619Y-15500428D01*
X13793095Y-15509952D01*
X13774048Y-15519476D01*
X13745476Y-15519476D01*
X13926428Y-15519476D02*
X13907381Y-15509952D01*
X13897857Y-15490905D01*
X13897857Y-15319476D01*
X14078809Y-15509952D02*
X14059762Y-15519476D01*
X14021667Y-15519476D01*
X14002619Y-15509952D01*
X13993095Y-15490905D01*
X13993095Y-15414714D01*
X14002619Y-15395667D01*
X14021667Y-15386143D01*
X14059762Y-15386143D01*
X14078809Y-15395667D01*
X14088333Y-15414714D01*
X14088333Y-15433762D01*
X13993095Y-15452809D01*
X14164524Y-15509952D02*
X14183571Y-15519476D01*
X14221667Y-15519476D01*
X14240714Y-15509952D01*
X14250238Y-15490905D01*
X14250238Y-15481381D01*
X14240714Y-15462333D01*
X14221667Y-15452809D01*
X14193095Y-15452809D01*
X14174048Y-15443286D01*
X14164524Y-15424238D01*
X14164524Y-15414714D01*
X14174048Y-15395667D01*
X14193095Y-15386143D01*
X14221667Y-15386143D01*
X14240714Y-15395667D01*
X14316905Y-15595667D02*
X14326428Y-15586143D01*
X14345476Y-15557571D01*
X14355000Y-15538524D01*
X14364524Y-15509952D01*
X14374048Y-15462333D01*
X14374048Y-15424238D01*
X14364524Y-15376619D01*
X14355000Y-15348048D01*
X14345476Y-15329000D01*
X14326428Y-15300428D01*
X14316905Y-15290905D01*
X14678809Y-15595667D02*
X14669286Y-15586143D01*
X14650238Y-15557571D01*
X14640714Y-15538524D01*
X14631190Y-15509952D01*
X14621667Y-15462333D01*
X14621667Y-15424238D01*
X14631190Y-15376619D01*
X14640714Y-15348048D01*
X14650238Y-15329000D01*
X14669286Y-15300428D01*
X14678809Y-15290905D01*
X14755000Y-15386143D02*
X14755000Y-15519476D01*
X14755000Y-15405190D02*
X14764524Y-15395667D01*
X14783571Y-15386143D01*
X14812143Y-15386143D01*
X14831190Y-15395667D01*
X14840714Y-15414714D01*
X14840714Y-15519476D01*
X14964524Y-15519476D02*
X14945476Y-15509952D01*
X14935952Y-15500428D01*
X14926428Y-15481381D01*
X14926428Y-15424238D01*
X14935952Y-15405190D01*
X14945476Y-15395667D01*
X14964524Y-15386143D01*
X14993095Y-15386143D01*
X15012143Y-15395667D01*
X15021667Y-15405190D01*
X15031190Y-15424238D01*
X15031190Y-15481381D01*
X15021667Y-15500428D01*
X15012143Y-15509952D01*
X14993095Y-15519476D01*
X14964524Y-15519476D01*
X15088333Y-15386143D02*
X15164524Y-15386143D01*
X15116905Y-15319476D02*
X15116905Y-15490905D01*
X15126428Y-15509952D01*
X15145476Y-15519476D01*
X15164524Y-15519476D01*
X15383571Y-15386143D02*
X15383571Y-15586143D01*
X15383571Y-15395667D02*
X15402619Y-15386143D01*
X15440714Y-15386143D01*
X15459762Y-15395667D01*
X15469286Y-15405190D01*
X15478809Y-15424238D01*
X15478809Y-15481381D01*
X15469286Y-15500428D01*
X15459762Y-15509952D01*
X15440714Y-15519476D01*
X15402619Y-15519476D01*
X15383571Y-15509952D01*
X15593095Y-15519476D02*
X15574048Y-15509952D01*
X15564524Y-15490905D01*
X15564524Y-15319476D01*
X15755000Y-15519476D02*
X15755000Y-15414714D01*
X15745476Y-15395667D01*
X15726428Y-15386143D01*
X15688333Y-15386143D01*
X15669286Y-15395667D01*
X15755000Y-15509952D02*
X15735952Y-15519476D01*
X15688333Y-15519476D01*
X15669286Y-15509952D01*
X15659762Y-15490905D01*
X15659762Y-15471857D01*
X15669286Y-15452809D01*
X15688333Y-15443286D01*
X15735952Y-15443286D01*
X15755000Y-15433762D01*
X15821667Y-15386143D02*
X15897857Y-15386143D01*
X15850238Y-15319476D02*
X15850238Y-15490905D01*
X15859762Y-15509952D01*
X15878809Y-15519476D01*
X15897857Y-15519476D01*
X16040714Y-15509952D02*
X16021667Y-15519476D01*
X15983571Y-15519476D01*
X15964524Y-15509952D01*
X15955000Y-15490905D01*
X15955000Y-15414714D01*
X15964524Y-15395667D01*
X15983571Y-15386143D01*
X16021667Y-15386143D01*
X16040714Y-15395667D01*
X16050238Y-15414714D01*
X16050238Y-15433762D01*
X15955000Y-15452809D01*
X16221667Y-15519476D02*
X16221667Y-15319476D01*
X16221667Y-15509952D02*
X16202619Y-15519476D01*
X16164524Y-15519476D01*
X16145476Y-15509952D01*
X16135952Y-15500428D01*
X16126428Y-15481381D01*
X16126428Y-15424238D01*
X16135952Y-15405190D01*
X16145476Y-15395667D01*
X16164524Y-15386143D01*
X16202619Y-15386143D01*
X16221667Y-15395667D01*
X16297857Y-15595667D02*
X16307381Y-15586143D01*
X16326428Y-15557571D01*
X16335952Y-15538524D01*
X16345476Y-15509952D01*
X16355000Y-15462333D01*
X16355000Y-15424238D01*
X16345476Y-15376619D01*
X16335952Y-15348048D01*
X16326428Y-15329000D01*
X16307381Y-15300428D01*
X16297857Y-15290905D01*
M02*
